<?xml version="1.0" encoding="UTF-8" standalone="no"?>
<!DOCTYPE svg PUBLIC "-//W3C//DTD SVG 1.1//EN" "http://www.w3.org/Graphics/SVG/1.1/DTD/svg11.dtd">
<svg>
<metadata>
Created by FontForge 20090914 at Tue Jan 31 19:10:11 2012
 By www-data
Copyright 2004 - 2010 Monotype Imaging, Inc. All rights reserved.
</metadata>
<defs>
<font id="NeoSansArabic" horiz-adv-x="605">
  <font-face font-family="Neo Sans Arabic" font-weight="400" font-stretch="normal" units-per-em="1000" panose-1="2 11 5 4 3 5 4 4 2 4" ascent="765" descent="-235" x-height="549.999" cap-height="743" bbox="-145.999 -409.001 1307 1127" underline-thickness="57" underline-position="-21" unicode-range="U+0020-U+FEFC"/>
<missing-glyph horiz-adv-x="500" d="M12 665h475v-665h-475v665zM250 375l161 243h-323zM60 91l7 10l18 27l25.5 39l29.5 45l81 121l-161 242v-484zM278 333l162 -243v485zM250 290l-162 -242h323z"/>
    <glyph glyph-name="f_i" unicode="fi" horiz-adv-x="628" d="M548 20c0 -5.33301 -2.00098 -10.002 -6.00098 -14.002s-8.66699 -6 -14 -6h-48c-5.33301 0 -10 2 -14 6s-6 8.66699 -6 14v456h-231v-456c0 -5.33301 -1.83301 -10 -5.5 -14s-8.16699 -6 -13.5 -6h-49c-5.33301 0 -10 2 -14 6s-6 8.66699 -6 14v456l-97 11 c-12.667 1.33301 -19 7.33301 -19 18v27c0 5.33301 1.83301 9.66602 5.5 12.999s8.16699 5 13.5 5h97v72c0 26.667 3.16699 49 9.5 67s15.5 32.333 27.5 43s26.667 18.167 44 22.5s37 6.5 59 6.5c13.333 0 24.333 -0.666992 33 -2s16.334 -2.66602 23.001 -3.99902 c12.667 -3.33301 19 -8.66602 19 -15.999v-33c0 -10 -6 -15 -18 -15h-48c-23.333 0 -39.333 -4.66699 -48 -14s-13 -27.666 -13 -54.999v-72h299c5.33301 0 10 -2 14 -6s6 -8.66699 6 -14v-510zM549.999 657.998c0 -5.33301 -2 -10 -6 -14s-8.66699 -6 -14 -6h-51 c-5.33301 0 -10 2 -14 6s-6 8.66699 -6 14v80c0 5.33301 2 10 6 14s8.66699 6 14 6h51c5.33301 0 10 -2 14 -6s6 -8.66699 6 -14v-80z"/>
    <glyph glyph-name="f_l" unicode="fl" horiz-adv-x="625" d="M548 20c0 -5.33301 -1.66992 -10.001 -5.00293 -14.001s-7.66602 -6 -12.999 -6h-52c-5.33301 0 -9.66602 2 -12.999 6s-5 8.66699 -5 14v671h-164c-23.333 0 -40.333 -4.66699 -51 -14s-16 -27.666 -16 -54.999v-72h105c5.33301 0 9.83301 -1.66699 13.5 -5 s5.5 -7.66602 5.5 -12.999v-39c0 -11.333 -6.33301 -17 -19 -17h-105v-456c0 -5.33301 -1.83301 -10 -5.5 -14s-8.16699 -6 -13.5 -6h-49c-5.33301 0 -10 2 -14 6s-6 8.66699 -6 14v456l-97 11c-12.667 1.33301 -19 7.33301 -19 18v27c0 5.33301 1.83301 9.66602 5.5 12.999 s8.16699 5 13.5 5h97v72c0 26.667 3.5 49 10.5 67s16.833 32.333 29.5 43s28 18.167 46 22.5s38 6.5 60 6.5c6.66699 0 17.834 -0.166992 33.501 -0.5s32.834 -0.833008 51.501 -1.5s37.5 -1.5 56.5 -2.5s35.5 -2.5 49.5 -4.5h52c5.33301 0 9.66602 -1.83301 12.999 -5.5 s5 -8.16699 5 -13.5v-713z"/>
    <glyph glyph-name="Allah" unicode="اﻟﻠّٰﻪ" horiz-adv-x="1397" arabic-form="isolated" d="M62 242c0 39.333 6.33398 73.0039 19.001 101.004s30.5 50.833 53.5 68.5s50.333 30.667 82 39s66.5 12.5 104.5 12.5c8.66699 0 18.667 -0.333008 30 -1s22.5 -1.66699 33.5 -3s21.5 -2.83301 31.5 -4.5s18.667 -3.5 26 -5.5c6.66699 -1.33301 10.834 -3.5 12.501 -6.5 s2.5 -7.16699 2.5 -12.5v-281c0 -26.667 6.33301 -43.834 19 -51.501s29.667 -11.5 51 -11.5h70c6 0 13.167 0.333008 21.5 1s16 2.16699 23 4.5s13 6 18 11s7.5 11.833 7.5 20.5v449c0 5.33301 1.83301 10 5.5 14s8.16699 6 13.5 6h49c5.33301 0 9.66602 -2 12.999 -6 s5 -8.66699 5 -14v-462c2 -5.33301 6.16699 -9.5 12.5 -12.5s13.5 -5.33301 21.5 -7s16 -2.83398 24 -3.50098s14.667 -1 20 -1h89c19.333 0 31.5 1.66699 36.5 5s7.5 13.666 7.5 30.999v610c0 12.667 6.33301 19 19 19h49c12 0 18 -6.33301 18 -19v-577 c0 -16 -0.5 -35.333 -1.5 -58s-2.16699 -42 -3.5 -58c-1.33301 -6.66699 -3.33301 -12.334 -6 -17.001s-8 -8.66699 -16 -12c-5.33301 -2 -13 -3.66699 -23 -5s-21 -2.33301 -33 -3s-24.5 -1.16699 -37.5 -1.5s-25.167 -0.5 -36.5 -0.5h-59 c-20.667 0 -42.834 2.16699 -66.501 6.5s-43.167 13.166 -58.5 26.499c-16.667 -13.333 -36.5 -22.166 -59.5 -26.499s-44.167 -6.5 -63.5 -6.5h-70c-30 -0 -55.167 4.33301 -75.5 13s-35.833 23.667 -46.5 45c-11.333 -14.667 -28.833 -25.167 -52.5 -31.5 s-49.5 -9.5 -77.5 -9.5h-9c-62.667 0 -110.5 17 -143.5 51s-49.5 83.333 -49.5 148v26zM1221 732.004c0 5.33301 1.83301 10 5.5 14s8.16699 6 13.5 6h49c5.33301 0 9.66602 -2 12.999 -6s5 -8.66699 5 -14v-712c0 -5.33301 -1.66699 -10 -5 -14s-7.66602 -6 -12.999 -6h-49 c-5.33301 0 -9.83301 2 -13.5 6s-5.5 8.66699 -5.5 14v712zM146.001 227.004c0 -40 8.83105 -71.166 26.498 -93.499s48.5 -33.5 92.5 -33.5h19c10 0 20.333 0.666992 31 2s20.334 4 29.001 8s15.667 9.33301 21 16s8 15.667 8 27v227c-13.333 1.33301 -25 2.33301 -35 3 s-19.333 1 -28 1c-24 0 -46 -2 -66 -6s-37.167 -11.167 -51.5 -21.5s-25.666 -24.333 -33.999 -42s-12.5 -39.834 -12.5 -66.501v-21zM653.999 650.005c-23.333 0 -39.1689 6.83301 -47.502 20.5s-12.5 31.167 -12.5 52.5v15.5c0 5 0.333008 10.5 1 16.5 c1.33301 9.33301 6 14 14 14h14c3.33301 0 6.33301 -1.33301 9 -4s3.66699 -6 3 -10c-0.666992 -7.33301 -1 -13.5 -1 -18.5v-15.5c0 -22.667 8.66699 -34 26 -34h4c4 0 9.5 1.5 16.5 4.5s10.5 10.5 10.5 22.5v39c0 9.33301 4.33301 14 13 14h13 c8.66699 0 13 -4.66699 13 -14v-39c0 -12 3.5 -19.5 10.5 -22.5s12.5 -4.5 16.5 -4.5h4c7.33301 0 13.5 2.66699 18.5 8s7.5 14.333 7.5 27v15.5c0 5 -0.333008 10.833 -1 17.5c-0.666992 4 0.333008 7.5 3 10.5s6 4.5 10 4.5h13c8 0 12.667 -5 14 -15 c0.666992 -6.66699 1 -12.167 1 -16.5v-15.5c0 -21.333 -4.83301 -38.833 -14.5 -52.5s-26.167 -20.5 -49.5 -20.5h-5c-8.66699 0 -17.167 1.66699 -25.5 5s-15.166 8.66602 -20.499 15.999h-2c-5.33301 -7.33301 -12.666 -12.666 -21.999 -15.999s-19 -5 -29 -5h-5z M688.996 914.005c0 3.33301 1.33301 6.5 4 9.5s5.66699 4.5 9 4.5h17c4 0 7.16699 -1.5 9.5 -4.5s3.5 -6.16699 3.5 -9.5v-93c0 -4 -1.16699 -7.5 -3.5 -10.5s-5.5 -4.5 -9.5 -4.5h-17c-4 0 -7.16699 1.5 -9.5 4.5s-3.5 6.5 -3.5 10.5v93z"/>
    <glyph glyph-name="LamAlefMaddaSep" unicode="ﻟﺂ" horiz-adv-x="644" arabic-form="isolated" d="M180 641c0 5.33301 1.83301 10 5.5 14s8.16699 6 13.5 6h48c5.33301 0 9.5 -2 12.5 -6s4.5 -8.66699 4.5 -14v-446c0 -12.667 -6 -19 -18 -19h-47c-12.667 0 -19 6.33301 -19 19v446zM46 68c0 12 6.33398 18.002 19.001 18.002h361c19.333 0 31.833 1.66699 37.5 5 s8.5 13.666 8.5 30.999v610c0 5.33301 1.66699 10 5 14s7.66602 6 12.999 6h51c5.33301 0 9.5 -2 12.5 -6s4.5 -8.66699 4.5 -14v-577c0 -27.333 -0.333008 -50 -1 -68s-1.66699 -34 -3 -48c-1.33301 -6.66699 -3.33301 -12.334 -6 -17.001s-8 -8.66699 -16 -12 c-5.33301 -2 -13 -3.5 -23 -4.5s-21.333 -2 -34 -3s-25.667 -1.66699 -39 -2s-26.333 -0.5 -39 -0.5h-332c-12.667 0 -19 5.66699 -19 17v51zM84.001 729.002c-8.66699 0 -12.999 3.66797 -12.999 11.001c0.666992 8 2.5 16.167 5.5 24.5s6.83301 15.5 11.5 21.5 c8.66699 11.333 18 18.666 28 21.999s20 5 30 5c11.333 0 22.666 -2 33.999 -6l38 -14c9.33301 -3.33301 18.833 -6.16602 28.5 -8.49902s19.5 -3.5 29.5 -3.5c13.333 0 24.5 1.33301 33.5 4s16.833 5.66699 23.5 9c7.33301 3.33301 13.666 6.33301 18.999 9 s9.66602 4 12.999 4c6 0 9 -3 9 -9v-23c0 -6.66699 -3 -12.334 -9 -17.001c-9.33301 -7.33301 -22.166 -13.5 -38.499 -18.5s-33.833 -7.5 -52.5 -7.5c-15.333 0 -29.666 1.5 -42.999 4.5s-31.666 9.5 -54.999 19.5c-6.66699 3.33301 -12.334 5.5 -17.001 6.5 s-8.66699 1.5 -12 1.5c-5.33301 0 -9.83301 -1.33301 -13.5 -4s-6.16699 -5.66699 -7.5 -9l-5 -10c-4 -8 -9 -12 -15 -12h-22z"/>
    <glyph glyph-name="LamAlefMaddaFin" unicode="ﻠﺂ" horiz-adv-x="651" arabic-form="final" d="M84 729c-8.66699 0 -12.999 3.66797 -12.999 11.001c0.666992 8 2.5 16.167 5.5 24.5s6.83301 15.5 11.5 21.5c8.66699 11.333 18 18.666 28 21.999s20 5 30 5c11.333 0 22.666 -2 33.999 -6l38 -14c9.33301 -3.33301 18.833 -6.16602 28.5 -8.49902s19.5 -3.5 29.5 -3.5 c13.333 0 24.5 1.33301 33.5 4s16.833 5.66699 23.5 9c7.33301 3.33301 13.666 6.33301 18.999 9s9.66602 4 12.999 4c6 0 9 -3 9 -9v-23c0 -6.66699 -3 -12.334 -9 -17.001c-9.33301 -7.33301 -22.166 -13.5 -38.499 -18.5s-33.833 -7.5 -52.5 -7.5 c-15.333 0 -29.666 1.5 -42.999 4.5s-31.666 9.5 -54.999 19.5c-6.66699 3.33301 -12.334 5.5 -17.001 6.5s-8.66699 1.5 -12 1.5c-5.33301 0 -9.83301 -1.33301 -13.5 -4s-6.16699 -5.66699 -7.5 -9l-5 -10c-4 -8 -9 -12 -15 -12h-22zM180.001 641.001 c0 5.33301 1.66602 10 4.99902 14s7.66602 6 12.999 6h49c5.33301 0 9.5 -2 12.5 -6s4.5 -8.66699 4.5 -14v-446c0 -5.33301 -1.66699 -9.83301 -5 -13.5s-7.66602 -5.5 -12.999 -5.5h-48c-5.33301 0 -9.66602 1.83301 -12.999 5.5s-5 8.16699 -5 13.5v446zM46 68.001 c0 12 6.33496 18.002 19.002 18.002h336c6.66699 0 14 0.333008 22 1s15.667 2.16699 23 4.5s13.5 6 18.5 11s7.5 11.833 7.5 20.5v609c0 5.33301 1.66699 9.83301 5 13.5s7.66602 5.5 12.999 5.5h50c5.33301 0 9.66602 -1.83301 12.999 -5.5s5 -8.16699 5 -13.5v-622 c2 -5.33301 6.16699 -9.5 12.5 -12.5s13.5 -5.33301 21.5 -7s16 -2.83398 24 -3.50098s14.667 -1 20 -1h15v-86h-12c-20 0 -41.333 2.16699 -64 6.5s-42 13.166 -58 26.499c-17.333 -14 -37.5 -23 -60.5 -27s-43.833 -6 -62.5 -6h-329c-12.667 0 -19 5.66699 -19 17v51z"/>
    <glyph glyph-name="LamAlefHamzaAboveSep" unicode="ﻟﺄ" horiz-adv-x="644" arabic-form="isolated" d="M180 641c0 5.33301 1.83301 10 5.5 14s8.16699 6 13.5 6h48c5.33301 0 9.5 -2 12.5 -6s4.5 -8.66699 4.5 -14v-446c0 -12.667 -6 -19 -18 -19h-47c-12.667 0 -19 6.33301 -19 19v446zM46 68c0 12 6.33398 18.002 19.001 18.002h361c19.333 0 31.833 1.66699 37.5 5 s8.5 13.666 8.5 30.999v610c0 5.33301 1.66699 10 5 14s7.66602 6 12.999 6h51c5.33301 0 9.5 -2 12.5 -6s4.5 -8.66699 4.5 -14v-577c0 -27.333 -0.333008 -50 -1 -68s-1.66699 -34 -3 -48c-1.33301 -6.66699 -3.33301 -12.334 -6 -17.001s-8 -8.66699 -16 -12 c-5.33301 -2 -13 -3.5 -23 -4.5s-21.333 -2 -34 -3s-25.667 -1.66699 -39 -2s-26.333 -0.5 -39 -0.5h-332c-12.667 0 -19 5.66699 -19 17v51zM155.001 736.002c-12 0 -18.001 4 -18.001 12v17c0 6.66699 6 10 18 10h17c-6 7.33301 -10.333 16.166 -13 26.499 s-4 20.5 -4 30.5c0 28 8.16699 48.5 24.5 61.5s39.5 19.5 69.5 19.5c5.33301 0 11.333 -0.333008 18 -1s13.334 -1.66699 20.001 -3c7.33301 -2.66699 11 -6.66699 11 -12v-14c0 -7.33301 -4.33301 -11 -13 -11c-1.33301 0 -6 0.166992 -14 0.5s-13.667 0.5 -17 0.5 c-35.333 0 -53 -15 -53 -45c0 -14 2.33301 -25.5 7 -34.5s9.66699 -14.833 15 -17.5h67c11.333 0 17 -4 17 -12v-16c0 -5.33301 -1.5 -8.66602 -4.5 -9.99902s-7.16699 -2 -12.5 -2h-135z"/>
    <glyph glyph-name="LamAlefHamzaAboveFin" unicode="ﻠﺄ" horiz-adv-x="651" arabic-form="final" d="M180 641c0 5.33301 1.66602 10 4.99902 14s7.66602 6 12.999 6h49c5.33301 0 9.5 -2 12.5 -6s4.5 -8.66699 4.5 -14v-446c0 -5.33301 -1.66699 -9.83301 -5 -13.5s-7.66602 -5.5 -12.999 -5.5h-48c-5.33301 0 -9.66602 1.83301 -12.999 5.5s-5 8.16699 -5 13.5v446z M45.999 68c0 12 6.33496 18.002 19.002 18.002h336c6.66699 0 14 0.333008 22 1s15.667 2.16699 23 4.5s13.5 6 18.5 11s7.5 11.833 7.5 20.5v609c0 5.33301 1.66699 9.83301 5 13.5s7.66602 5.5 12.999 5.5h50c5.33301 0 9.66602 -1.83301 12.999 -5.5s5 -8.16699 5 -13.5 v-622c2 -5.33301 6.16699 -9.5 12.5 -12.5s13.5 -5.33301 21.5 -7s16 -2.83398 24 -3.50098s14.667 -1 20 -1h15v-86h-12c-20 0 -41.333 2.16699 -64 6.5s-42 13.166 -58 26.499c-17.333 -14 -37.5 -23 -60.5 -27s-43.833 -6 -62.5 -6h-329c-12.667 0 -19 5.66699 -19 17v51 zM155.001 736.002c-12 0 -18.001 4 -18.001 12v17c0 6.66699 6 10 18 10h17c-6 7.33301 -10.333 16.166 -13 26.499s-4 20.5 -4 30.5c0 28 8.16699 48.5 24.5 61.5s39.5 19.5 69.5 19.5c5.33301 0 11.333 -0.333008 18 -1s13.334 -1.66699 20.001 -3 c7.33301 -2.66699 11 -6.66699 11 -12v-14c0 -7.33301 -4.33301 -11 -13 -11c-1.33301 0 -6 0.166992 -14 0.5s-13.667 0.5 -17 0.5c-35.333 0 -53 -15 -53 -45c0 -14 2.33301 -25.5 7 -34.5s9.66699 -14.833 15 -17.5h67c11.333 0 17 -4 17 -12v-16 c0 -5.33301 -1.5 -8.66602 -4.5 -9.99902s-7.16699 -2 -12.5 -2h-135z"/>
    <glyph glyph-name="LamAlefHamzaBelowSep" unicode="ﻟﺈ" horiz-adv-x="644" arabic-form="isolated" d="M180 671c0 12.667 6.33301 19 19 19h48c11.333 0 17 -6.33301 17 -19v-476c0 -12.667 -6 -19 -18 -19h-47c-12.667 0 -19 6.33301 -19 19v476zM46 68c0 12 6.33398 18.002 19.001 18.002h362c19.333 0 31.666 1.66699 36.999 5s8 13.666 8 30.999v610 c0 5.33301 1.83301 10 5.5 14s8.16699 6 13.5 6h50c5.33301 0 9.5 -2 12.5 -6s4.5 -8.66699 4.5 -14v-577c0 -27.333 -0.333008 -50 -1 -68s-1.66699 -34 -3 -48c-1.33301 -6.66699 -3.33301 -12.334 -6 -17.001s-8 -8.66699 -16 -12c-5.33301 -2 -13 -3.5 -23 -4.5 s-21.333 -2 -34 -3s-25.667 -1.66699 -39 -2s-26.333 -0.5 -39 -0.5h-332c-12.667 0 -19 5.66699 -19 17v51zM149.001 -240.998c-12 0 -18.001 4 -18.001 12v17c0 6.66699 6 10 18 10h17c-6 7.33301 -10.333 16.166 -13 26.499s-4 20.5 -4 30.5c0 28 8.16699 48.5 24.5 61.5 s39.5 19.5 69.5 19.5c5.33301 0 11.333 -0.333008 18 -1s13.334 -1.66699 20.001 -3c7.33301 -2.66699 11 -6.66699 11 -12v-14c0 -7.33301 -4.33301 -11 -13 -11c-1.33301 0 -6 0.166992 -14 0.5s-13.667 0.5 -17 0.5c-35.333 0 -53 -15 -53 -45 c0 -14 2.33301 -25.5 7 -34.5s9.66699 -14.833 15 -17.5h67c11.333 0 17 -4 17 -12v-16c0 -5.33301 -1.5 -8.66602 -4.5 -9.99902s-7.16699 -2 -12.5 -2h-135z"/>
    <glyph glyph-name="LamAlefHamzaBelowFin" unicode="ﻠﺈ" horiz-adv-x="651" arabic-form="final" d="M180 671c0 5.33301 1.66602 9.83301 4.99902 13.5s7.66602 5.5 12.999 5.5h49c11.333 0 17 -6.33301 17 -19v-476c0 -5.33301 -1.66699 -9.83301 -5 -13.5s-7.66602 -5.5 -12.999 -5.5h-48c-5.33301 0 -9.66602 1.83301 -12.999 5.5s-5 8.16699 -5 13.5v476zM45.999 68 c0 12 6.33496 18.002 19.002 18.002h336c6.66699 0 14 0.333008 22 1s15.667 2.16699 23 4.5s13.5 6 18.5 11s7.5 11.833 7.5 20.5v609c0 5.33301 1.66699 9.83301 5 13.5s7.66602 5.5 12.999 5.5h50c5.33301 0 9.66602 -1.83301 12.999 -5.5s5 -8.16699 5 -13.5v-622 c2 -5.33301 6.16699 -9.5 12.5 -12.5s13.5 -5.33301 21.5 -7s16 -2.83398 24 -3.50098s14.667 -1 20 -1h15v-86h-12c-20 0 -41.333 2.16699 -64 6.5s-42 13.166 -58 26.499c-17.333 -14 -37.5 -23 -60.5 -27s-43.833 -6 -62.5 -6h-329c-12.667 0 -19 5.66699 -19 17v51z M149.001 -240.998c-12 0 -18.001 4 -18.001 12v17c0 6.66699 6 10 18 10h17c-6 7.33301 -10.333 16.166 -13 26.499s-4 20.5 -4 30.5c0 28 8.16699 48.5 24.5 61.5s39.5 19.5 69.5 19.5c5.33301 0 11.333 -0.333008 18 -1s13.334 -1.66699 20.001 -3 c7.33301 -2.66699 11 -6.66699 11 -12v-14c0 -7.33301 -4.33301 -11 -13 -11c-1.33301 0 -6 0.166992 -14 0.5s-13.667 0.5 -17 0.5c-35.333 0 -53 -15 -53 -45c0 -14 2.33301 -25.5 7 -34.5s9.66699 -14.833 15 -17.5h67c11.333 0 17 -4 17 -12v-16 c0 -5.33301 -1.5 -8.66602 -4.5 -9.99902s-7.16699 -2 -12.5 -2h-135z"/>
    <glyph glyph-name="LamAlefSep" unicode="ﻟﺎ" horiz-adv-x="644" arabic-form="isolated" d="M180 671c0 12.667 6.33301 19 19 19h48c11.333 0 17 -6.33301 17 -19v-476c0 -12.667 -6 -19 -18 -19h-47c-12.667 0 -19 6.33301 -19 19v476zM46 68c0 12 6.33398 18.002 19.001 18.002h362c19.333 0 31.666 1.66699 36.999 5s8 13.666 8 30.999v610 c0 5.33301 1.83301 10 5.5 14s8.16699 6 13.5 6h50c5.33301 0 9.5 -2 12.5 -6s4.5 -8.66699 4.5 -14v-577c0 -27.333 -0.333008 -50 -1 -68s-1.66699 -34 -3 -48c-1.33301 -6.66699 -3.33301 -12.334 -6 -17.001s-8 -8.66699 -16 -12c-5.33301 -2 -13 -3.5 -23 -4.5 s-21.333 -2 -34 -3s-25.667 -1.66699 -39 -2s-26.333 -0.5 -39 -0.5h-332c-12.667 0 -19 5.66699 -19 17v51z"/>
    <glyph glyph-name="LamAlefFin" unicode="ﻠﺎ" horiz-adv-x="651" arabic-form="final" d="M180 671c0 5.33301 1.66602 9.83301 4.99902 13.5s7.66602 5.5 12.999 5.5h49c11.333 0 17 -6.33301 17 -19v-476c0 -5.33301 -1.66699 -9.83301 -5 -13.5s-7.66602 -5.5 -12.999 -5.5h-48c-5.33301 0 -9.66602 1.83301 -12.999 5.5s-5 8.16699 -5 13.5v476zM45.999 68 c0 12 6.33496 18.002 19.002 18.002h336c6.66699 0 14 0.333008 22 1s15.667 2.16699 23 4.5s13.5 6 18.5 11s7.5 11.833 7.5 20.5v609c0 5.33301 1.66699 9.83301 5 13.5s7.66602 5.5 12.999 5.5h50c5.33301 0 9.66602 -1.83301 12.999 -5.5s5 -8.16699 5 -13.5v-622 c2 -5.33301 6.16699 -9.5 12.5 -12.5s13.5 -5.33301 21.5 -7s16 -2.83398 24 -3.50098s14.667 -1 20 -1h15v-86h-12c-20 0 -41.333 2.16699 -64 6.5s-42 13.166 -58 26.499c-17.333 -14 -37.5 -23 -60.5 -27s-43.833 -6 -62.5 -6h-329c-12.667 0 -19 5.66699 -19 17v51z"/>
    <glyph glyph-name="LamAlefWaslaSep" unicode="ﻟﭑ" horiz-adv-x="644" d="M180 641c0 5.33301 1.83301 10 5.5 14s8.16699 6 13.5 6h48c5.33301 0 9.5 -2 12.5 -6s4.5 -8.66699 4.5 -14v-446c0 -12.667 -6 -19 -18 -19h-47c-12.667 0 -19 6.33301 -19 19v446zM46 68c0 12 6.33398 18.002 19.001 18.002h361c19.333 0 31.833 1.66699 37.5 5 s8.5 13.666 8.5 30.999v610c0 5.33301 1.66699 10 5 14s7.66602 6 12.999 6h51c5.33301 0 9.5 -2 12.5 -6s4.5 -8.66699 4.5 -14v-577c0 -27.333 -0.333008 -50 -1 -68s-1.66699 -34 -3 -48c-1.33301 -6.66699 -3.33301 -12.334 -6 -17.001s-8 -8.66699 -16 -12 c-5.33301 -2 -13 -3.5 -23 -4.5s-21.333 -2 -34 -3s-25.667 -1.66699 -39 -2s-26.333 -0.5 -39 -0.5h-332c-12.667 0 -19 5.66699 -19 17v51zM273.001 880.002c25.333 0 44.5 -7.16699 57.5 -21.5s19.5 -31.166 19.5 -50.499c0 -48.667 -29 -73 -87 -73h-150 c-12.667 0 -19 3.66699 -19 11v15c0 5.33301 1.66699 8.66602 5 9.99902s8 2 14 2h56c10.667 41.333 24.5 69.5 41.5 84.5s37.833 22.5 62.5 22.5zM261.001 773.002c17.333 0 29.5 3 36.5 9s10.5 14.667 10.5 26c0 10 -3.5 18 -10.5 24s-15.167 9 -24.5 9 c-12 0 -23.167 -4.33301 -33.5 -13s-19.5 -27 -27.5 -55h49z"/>
    <glyph glyph-name="LamAlefWaslaFin" unicode="ﻠﭑ" horiz-adv-x="651" d="M180 641c0 5.33301 1.66602 10 4.99902 14s7.66602 6 12.999 6h49c5.33301 0 9.5 -2 12.5 -6s4.5 -8.66699 4.5 -14v-446c0 -5.33301 -1.66699 -9.83301 -5 -13.5s-7.66602 -5.5 -12.999 -5.5h-48c-5.33301 0 -9.66602 1.83301 -12.999 5.5s-5 8.16699 -5 13.5v446z M45.999 68c0 12 6.33496 18.002 19.002 18.002h336c6.66699 0 14 0.333008 22 1s15.667 2.16699 23 4.5s13.5 6 18.5 11s7.5 11.833 7.5 20.5v609c0 5.33301 1.66699 9.83301 5 13.5s7.66602 5.5 12.999 5.5h50c5.33301 0 9.66602 -1.83301 12.999 -5.5s5 -8.16699 5 -13.5 v-622c2 -5.33301 6.16699 -9.5 12.5 -12.5s13.5 -5.33301 21.5 -7s16 -2.83398 24 -3.50098s14.667 -1 20 -1h15v-86h-12c-20 0 -41.333 2.16699 -64 6.5s-42 13.166 -58 26.499c-17.333 -14 -37.5 -23 -60.5 -27s-43.833 -6 -62.5 -6h-329c-12.667 0 -19 5.66699 -19 17v51 zM273.001 880.002c25.333 0 44.5 -7.16699 57.5 -21.5s19.5 -31.166 19.5 -50.499c0 -48.667 -29 -73 -87 -73h-150c-12.667 0 -19 3.66699 -19 11v15c0 5.33301 1.66699 8.66602 5 9.99902s8 2 14 2h56c10.667 41.333 24.5 69.5 41.5 84.5s37.833 22.5 62.5 22.5z M261.001 773.002c17.333 0 29.5 3 36.5 9s10.5 14.667 10.5 26c0 10 -3.5 18 -10.5 24s-15.167 9 -24.5 9c-12 0 -23.167 -4.33301 -33.5 -13s-19.5 -27 -27.5 -55h49z"/>
    <glyph glyph-name="Llah" unicode="ﻟﻠﻪ" horiz-adv-x="1131" d="M62 242c0 39.333 6.33398 73.0039 19.001 101.004s30.5 50.833 53.5 68.5s50.333 30.667 82 39s66.5 12.5 104.5 12.5c8.66699 0 18.667 -0.333008 30 -1s22.5 -1.66699 33.5 -3s21.5 -2.83301 31.5 -4.5s18.667 -3.5 26 -5.5c6.66699 -1.33301 10.834 -3.5 12.501 -6.5 s2.5 -7.16699 2.5 -12.5v-281c0 -26.667 6.33301 -43.834 19 -51.501s29.667 -11.5 51 -11.5h70c6 0 13.167 0.333008 21.5 1s16 2.16699 23 4.5s13 6 18 11s7.5 11.833 7.5 20.5v449c0 5.33301 1.83301 10 5.5 14s8.16699 6 13.5 6h49c5.33301 0 9.66602 -2 12.999 -6 s5 -8.66699 5 -14v-462c2 -5.33301 6.16699 -9.5 12.5 -12.5s13.5 -5.33301 21.5 -7s16 -2.83398 24 -3.50098s14.667 -1 20 -1h89c20.667 0 33.167 1.66699 37.5 5s6.5 13.666 6.5 30.999v610c0 12.667 6.33301 19 19 19h49c12 0 18 -6.33301 18 -19v-577v-27.5 c0 -10.333 -0.166992 -20.833 -0.5 -31.5s-0.833008 -20 -1.5 -28s-1.66699 -17.667 -3 -29c-1.33301 -6.66699 -3.33301 -12.334 -6 -17.001s-8 -8.66699 -16 -12c-5.33301 -2 -13 -3.66699 -23 -5s-21 -2.33301 -33 -3s-24.5 -1.16699 -37.5 -1.5s-25.167 -0.5 -36.5 -0.5 h-59c-20.667 0 -42.834 2.16699 -66.501 6.5s-43.167 13.166 -58.5 26.499c-16.667 -13.333 -36.5 -22.166 -59.5 -26.499s-44.167 -6.5 -63.5 -6.5h-70c-30 -0 -55.167 4.33301 -75.5 13s-35.833 23.667 -46.5 45c-11.333 -14.667 -28.833 -25.167 -52.5 -31.5 s-49.5 -9.5 -77.5 -9.5h-9c-62.667 0 -110.5 17 -143.5 51s-49.5 83.333 -49.5 148v26zM146.001 227.004c0 -40 8.83105 -71.166 26.498 -93.499s48.5 -33.5 92.5 -33.5h19c10 0 20.333 0.666992 31 2s20.334 4 29.001 8s15.667 9.33301 21 16s8 15.667 8 27v227 c-13.333 1.33301 -25 2.33301 -35 3s-19.333 1 -28 1c-24 0 -46 -2 -66 -6s-37.167 -11.167 -51.5 -21.5s-25.666 -24.333 -33.999 -42s-12.5 -39.834 -12.5 -66.501v-21zM653.999 650.005c-23.333 0 -39.1689 6.83301 -47.502 20.5s-12.5 31.167 -12.5 52.5v15.5 c0 5 0.333008 10.5 1 16.5c1.33301 9.33301 6 14 14 14h14c3.33301 0 6.33301 -1.33301 9 -4s3.66699 -6 3 -10c-0.666992 -7.33301 -1 -13.5 -1 -18.5v-15.5c0 -22.667 8.66699 -34 26 -34h4c4 0 9.5 1.5 16.5 4.5s10.5 10.5 10.5 22.5v39c0 9.33301 4.33301 14 13 14h13 c8.66699 0 13 -4.66699 13 -14v-39c0 -12 3.5 -19.5 10.5 -22.5s12.5 -4.5 16.5 -4.5h4c7.33301 0 13.5 2.66699 18.5 8s7.5 14.333 7.5 27v15.5c0 5 -0.333008 10.833 -1 17.5c-0.666992 4 0.333008 7.5 3 10.5s6 4.5 10 4.5h13c8 0 12.667 -5 14 -15 c0.666992 -6.66699 1 -12.167 1 -16.5v-15.5c0 -21.333 -4.83301 -38.833 -14.5 -52.5s-26.167 -20.5 -49.5 -20.5h-5c-8.66699 0 -17.167 1.66699 -25.5 5s-15.166 8.66602 -20.499 15.999h-2c-5.33301 -7.33301 -12.666 -12.666 -21.999 -15.999s-19 -5 -29 -5h-5z M688.996 914.005c0 3.33301 1.33301 6.5 4 9.5s5.66699 4.5 9 4.5h17c4 0 7.16699 -1.5 9.5 -4.5s3.5 -6.16699 3.5 -9.5v-93c0 -4 -1.16699 -7.5 -3.5 -10.5s-5.5 -4.5 -9.5 -4.5h-17c-4 0 -7.16699 1.5 -9.5 4.5s-3.5 6.5 -3.5 10.5v93z"/>
    <glyph glyph-name="HehGoalHamzaAboveFin" unicode="ۂ" horiz-adv-x="567" d="M196 441c-12 0 -18.001 4 -18.001 12v17c0 6.66699 6 10 18 10h17c-6 7.33301 -10.333 16.166 -13 26.499s-4 20.5 -4 30.5c0 28 8.16699 48.5 24.5 61.5s39.5 19.5 69.5 19.5c5.33301 0 11.333 -0.333008 18 -1s13.334 -1.66699 20.001 -3 c7.33301 -2.66699 11 -6.66699 11 -12v-14c0 -7.33301 -4.33301 -11 -13 -11c-1.33301 0 -6 0.166992 -14 0.5s-13.667 0.5 -17 0.5c-35.333 0 -53 -15 -53 -45c0 -14 2.33301 -25.5 7 -34.5s9.66699 -14.833 15 -17.5h67c11.333 0 17 -4 17 -12v-16 c0 -5.33301 -1.5 -8.66602 -4.5 -9.99902s-7.16699 -2 -12.5 -2h-135zM335.999 328c25.333 0 48.834 -1.00098 70.501 -3.00098s40.167 -4.66699 55.5 -8c5.33301 -1.33301 10.166 -3.33301 14.499 -6s6.5 -7.66699 6.5 -15v-173c0 -16 3.33301 -26.167 10 -30.5 s20.667 -6.5 42 -6.5h32v-86h-52c-42.667 0 -72.667 7.5 -90 22.5s-26 42.167 -26 81.5v136c-5.33301 1.33301 -13.333 2.5 -24 3.5s-24 1.5 -40 1.5c-37.333 0 -68.333 -4.5 -93 -13.5s-44.167 -23.333 -58.5 -43s-24.333 -45.334 -30 -77.001s-8.5 -70.167 -8.5 -115.5 v-61c0 -5.33301 -1.5 -9.66602 -4.5 -12.999s-7.16699 -5 -12.5 -5h-48c-12 0 -18 6.33301 -18 19c0 2 -0.166992 6.66699 -0.5 14s-0.5 15.333 -0.5 24v24v14c0 56 5.33301 103.833 16 143.5s27.167 72.334 49.5 98.001s50.833 44.5 85.5 56.5s76 18 124 18z"/>
    <glyph glyph-name="TehMarbutaGoalFin" unicode="ۃ" horiz-adv-x="567" d="M146 525c0 6.66699 2.16699 12 6.5 16s9.83301 6 16.5 6h39c6.66699 0 12.167 -2 16.5 -6s6.5 -9.33301 6.5 -16v-54c0 -6 -2.33301 -11 -7 -15s-10 -6 -16 -6h-39c-6.66699 0 -12.167 2 -16.5 6s-6.5 9 -6.5 15v54zM309 525c0 6.66699 2.5 12 7.5 16s10.5 6 16.5 6h39 c6 0 11.333 -2 16 -6s7 -9.33301 7 -16v-54c0 -6 -2.33301 -11 -7 -15s-10 -6 -16 -6h-39c-6 0 -11.5 2 -16.5 6s-7.5 9 -7.5 15v54zM336 328c25.333 0 48.834 -1.00098 70.501 -3.00098s40.167 -4.66699 55.5 -8c5.33301 -1.33301 10.166 -3.33301 14.499 -6 s6.5 -7.66699 6.5 -15v-173c0 -16 3.33301 -26.167 10 -30.5s20.667 -6.5 42 -6.5h32v-86h-52c-42.667 0 -72.667 7.5 -90 22.5s-26 42.167 -26 81.5v136c-5.33301 1.33301 -13.333 2.5 -24 3.5s-24 1.5 -40 1.5c-37.333 0 -68.333 -4.5 -93 -13.5 s-44.167 -23.333 -58.5 -43s-24.333 -45.334 -30 -77.001s-8.5 -70.167 -8.5 -115.5v-61c0 -5.33301 -1.5 -9.66602 -4.5 -12.999s-7.16699 -5 -12.5 -5h-48c-12 0 -18 6.33301 -18 19c0 2 -0.166992 6.66699 -0.5 14s-0.5 15.333 -0.5 24v24v14 c0 56 5.33301 103.833 16 143.5s27.167 72.334 49.5 98.001s50.833 44.5 85.5 56.5s76 18 124 18z"/>
    <glyph glyph-name="AlefWaslaSep" unicode="ٱ" horiz-adv-x="266" arabic-form="isolated" d="M90 703c0 5.33301 1.83301 9.83301 5.5 13.5s8.16699 5.5 13.5 5.5h49c5.33301 0 9.83301 -1.83301 13.5 -5.5s5.5 -8.16699 5.5 -13.5v-683c0 -5.33301 -1.83301 -10 -5.5 -14s-8.16699 -6 -13.5 -6h-49c-5.33301 0 -9.83301 2 -13.5 6s-5.5 8.66699 -5.5 14v683z M185 941c25.333 0 44.5 -7.16699 57.5 -21.5s19.5 -31.166 19.5 -50.499c0 -48.667 -29 -73 -87 -73h-150c-12.667 0 -19 3.66699 -19 11v15c0 5.33301 1.66699 8.66602 5 9.99902s8 2 14 2h56c10.667 41.333 24.5 69.5 41.5 84.5s37.833 22.5 62.5 22.5zM173 834 c17.333 0 29.5 3 36.5 9s10.5 14.667 10.5 26c0 10 -3.5 18 -10.5 24s-15.167 9 -24.5 9c-12 0 -23.167 -4.33301 -33.5 -13s-19.5 -27 -27.5 -55h49z"/>
    <glyph glyph-name="AlefWaslaFin" unicode="ٱ" horiz-adv-x="268" arabic-form="final" d="M90 703c0 5.33301 1.83398 9.83203 5.50098 13.499s8.16699 5.5 13.5 5.5h49c5.33301 0 9.66602 -1.83301 12.999 -5.5s5 -8.16699 5 -13.5v-558c0 -13.333 1.5 -23.833 4.5 -31.5s7.33301 -13.5 13 -17.5s12.667 -6.66699 21 -8s17.833 -2 28.5 -2h25v-86h-47 c-21.333 0 -40 1.83301 -56 5.5s-29.667 10.334 -41 20.001s-19.833 22.5 -25.5 38.5s-8.5 36.667 -8.5 62v577zM179.001 940.999c25.333 0 44.5 -7.16699 57.5 -21.5s19.5 -31.166 19.5 -50.499c0 -48.667 -29 -73 -87 -73h-150c-12.667 0 -19 3.66699 -19 11v15 c0 5.33301 1.66699 8.66602 5 9.99902s8 2 14 2h56c10.667 41.333 24.5 69.5 41.5 84.5s37.833 22.5 62.5 22.5zM167.001 833.999c17.333 0 29.5 3 36.5 9s10.5 14.667 10.5 26c0 10 -3.5 18 -10.5 24s-15.167 9 -24.5 9c-12 0 -23.167 -4.33301 -33.5 -13 s-19.5 -27 -27.5 -55h49z"/>
    <glyph glyph-name="PehSep" unicode="پ" horiz-adv-x="891" arabic-form="isolated" d="M310 -114c0 6 2.16699 11 6.5 15s9.83301 6 16.5 6h39c6 0 11.333 -2 16 -6s7 -9 7 -15v-50c0 -7.33301 -2.33301 -12.833 -7 -16.5s-10 -5.5 -16 -5.5h-39c-6.66699 0 -12.167 1.83301 -16.5 5.5s-6.5 9.16699 -6.5 16.5v50zM473 -114c0 6 2.50098 11 7.50098 15 s10.5 6 16.5 6h39c6 0 11.333 -2 16 -6s7 -9 7 -15v-50c0 -7.33301 -2.33301 -12.833 -7 -16.5s-10 -5.5 -16 -5.5h-39c-6.66699 0 -12.334 1.83301 -17.001 5.5s-7 9.16699 -7 16.5v50zM392.001 -242c0 6 2.33398 11 7.00098 15s10 6 16 6h37c6.66699 0 12.167 -2 16.5 -6 s6.5 -9 6.5 -15v-45c0 -6.66699 -2.33301 -12 -7 -16s-10.334 -6 -17.001 -6h-37c-6 0 -11.167 2 -15.5 6s-6.5 9.33301 -6.5 16v45zM683.002 86c18.667 0 30.665 1.66602 35.998 4.99902s8 13.666 8 30.999v66v62c0 20.667 -0.166992 41.834 -0.5 63.501 s-0.833008 45.5 -1.5 71.5c0 5.33301 1.66699 9.83301 5 13.5s7.66602 5.5 12.999 5.5h47c6 0 10.667 -1.83301 14 -5.5s5 -8.16699 5 -13.5c0.666992 -22.667 1.16699 -41.667 1.5 -57s0.5 -29.666 0.5 -42.999v-41.5v-51.5c0 -32 -0.166992 -61.667 -0.5 -89 s-1.5 -48.666 -3.5 -63.999c-1.33301 -6.66699 -3.5 -12.334 -6.5 -17.001s-8.5 -8.66699 -16.5 -12c-5.33301 -2 -14.166 -3.5 -26.499 -4.5s-26.666 -2 -42.999 -3s-34 -1.66699 -53 -2s-37.833 -0.5 -56.5 -0.5h-234c-64 0 -116.5 6.16699 -157.5 18.5s-73.333 30 -97 53 s-40 51 -49 84s-13.5 69.833 -13.5 110.5c0 14 0.5 28.5 1.5 43.5s3.16699 32.167 6.5 51.5c2 12.667 8.66699 19 20 19h42c11.333 0 16.333 -6.66699 15 -20c-1.33301 -15.333 -2.33301 -28.333 -3 -39s-1 -21.667 -1 -33c0 -30 2.66699 -57.333 8 -82s16.5 -46 33.5 -64 s41.333 -31.833 73 -41.5s73.834 -14.5 126.501 -14.5h307z"/>
    <glyph glyph-name="PehFin" unicode="پ" horiz-adv-x="905" arabic-form="final" d="M658 86c6 0 13.166 0.333984 21.499 1.00098s16 2.16699 23 4.5s13 6 18 11s7.5 11.833 7.5 20.5v262c0 5.33301 1.83301 9.83301 5.5 13.5s8.16699 5.5 13.5 5.5h47c5.33301 0 9.66602 -1.83301 12.999 -5.5s5 -8.16699 5 -13.5v-275 c2 -5.33301 6.16699 -9.5 12.5 -12.5s13.333 -5.33301 21 -7s15.5 -2.83398 23.5 -3.50098s14.667 -1 20 -1h16v-86h-11c-9.33301 -0 -19.5 0.333008 -30.5 1s-22.167 2.33398 -33.5 5.00098s-22.333 6 -33 10s-19.667 9.66699 -27 17 c-17.333 -14.667 -39.166 -23.834 -65.499 -27.501s-53.5 -5.5 -81.5 -5.5h-252c-64 0 -116.5 6.16699 -157.5 18.5s-73.333 30 -97 53s-40 51 -49 84s-13.5 69.833 -13.5 110.5c0 14 0.5 28.5 1.5 43.5s3.16699 32.167 6.5 51.5c2 12.667 8.66699 19 20 19h42 c11.333 0 16.333 -6.66699 15 -20c-1.33301 -15.333 -2.33301 -28.333 -3 -39s-1 -21.667 -1 -33c0 -30 2.66699 -57.333 8 -82s16.5 -46 33.5 -64s41.333 -31.833 73 -41.5s73.834 -14.5 126.501 -14.5h282zM310.999 -113.999c0 6 2.16699 11 6.5 15s9.83301 6 16.5 6h39 c6 0 11.333 -2 16 -6s7 -9 7 -15v-50c0 -7.33301 -2.33301 -12.833 -7 -16.5s-10 -5.5 -16 -5.5h-39c-6.66699 0 -12.167 1.83301 -16.5 5.5s-6.5 9.16699 -6.5 16.5v50zM473.999 -113.999c0 6 2.50098 11 7.50098 15s10.5 6 16.5 6h39c6 0 11.333 -2 16 -6s7 -9 7 -15v-50 c0 -7.33301 -2.33301 -12.833 -7 -16.5s-10 -5.5 -16 -5.5h-39c-6.66699 0 -12.334 1.83301 -17.001 5.5s-7 9.16699 -7 16.5v50zM393 -241.999c0 6 2.33398 11 7.00098 15s10 6 16 6h37c6.66699 0 12.167 -2 16.5 -6s6.5 -9 6.5 -15v-45c0 -6.66699 -2.33301 -12 -7 -16 s-10.334 -6 -17.001 -6h-37c-6 0 -11.167 2 -15.5 6s-6.5 9.33301 -6.5 16v45z"/>
    <glyph glyph-name="PehIni" unicode="پ" horiz-adv-x="275" arabic-form="initial" d="M-40 73c0 4 3.33301 7.16797 10 9.50098s14.667 3.5 24 3.5h70c19.333 0 31.666 1.66699 36.999 5s8 13.666 8 30.999v66v62c0 20.667 -0.166992 42 -0.5 64s-0.833008 46 -1.5 72c0 5.33301 1.5 9.83301 4.5 13.5s7.16699 5.5 12.5 5.5h48c6 0 10.667 -1.83301 14 -5.5 s5 -8.16699 5 -13.5c0.666992 -22.667 1.16699 -41.667 1.5 -57s0.5 -29.833 0.5 -43.5v-42v-51.5c0 -32 -0.166992 -61.667 -0.5 -89s-1.5 -48.666 -3.5 -63.999c-1.33301 -6.66699 -3.5 -12.334 -6.5 -17.001s-8.5 -8.66699 -16.5 -12 c-5.33301 -2 -12.666 -3.5 -21.999 -4.5s-20 -2 -32 -3s-24.333 -1.66699 -37 -2s-24.667 -0.5 -36 -0.5h-45c-9.33301 0 -17.333 1.16699 -24 3.5s-10 5.83301 -10 10.5v59zM-36 -113.999c0 6 2.16699 11 6.5 15s9.83301 6 16.5 6h39c6 0 11.333 -2 16 -6s7 -9 7 -15v-50 c0 -7.33301 -2.33301 -12.833 -7 -16.5s-10 -5.5 -16 -5.5h-39c-6.66699 0 -12.167 1.83301 -16.5 5.5s-6.5 9.16699 -6.5 16.5v50zM127 -113.999c0 6 2.50098 11 7.50098 15s10.5 6 16.5 6h39c6 0 11.333 -2 16 -6s7 -9 7 -15v-50c0 -7.33301 -2.33301 -12.833 -7 -16.5 s-10 -5.5 -16 -5.5h-39c-6.66699 0 -12.334 1.83301 -17.001 5.5s-7 9.16699 -7 16.5v50zM46.001 -241.999c0 6 2.33398 11 7.00098 15s10 6 16 6h37c6.66699 0 12.167 -2 16.5 -6s6.5 -9 6.5 -15v-45c0 -6.66699 -2.33301 -12 -7 -16s-10.334 -6 -17.001 -6h-37 c-6 0 -11.167 2 -15.5 6s-6.5 9.33301 -6.5 16v45z"/>
    <glyph glyph-name="PehMed" unicode="پ" horiz-adv-x="286" arabic-form="medial" d="M-40 73c0 4 3.33398 7.16797 10.001 9.50098s14.667 3.5 24 3.5h45c6.66699 0 14 0.333008 22 1s15.667 2.16699 23 4.5s13.5 6 18.5 11s7.5 11.833 7.5 20.5v262c0 5.33301 1.83301 9.83301 5.5 13.5s8.16699 5.5 13.5 5.5h46c5.33301 0 9.83301 -1.83301 13.5 -5.5 s5.5 -8.16699 5.5 -13.5v-275c2 -5.33301 6.16699 -9.5 12.5 -12.5s13.333 -5.33301 21 -7s15.5 -2.83398 23.5 -3.50098s15 -1 21 -1h14v-86h-12c-20.667 0 -42.834 2.16699 -66.501 6.5s-43.167 13.166 -58.5 26.499c-16.667 -13.333 -36.5 -22.166 -59.5 -26.499 s-43.833 -6.5 -62.5 -6.5h-33c-9.33301 0 -17.333 1.16699 -24 3.5s-10 5.83301 -10 10.5v59zM22.001 -113.999c0 6 2.16699 11 6.5 15s9.83301 6 16.5 6h39c6 0 11.333 -2 16 -6s7 -9 7 -15v-50c0 -7.33301 -2.33301 -12.833 -7 -16.5s-10 -5.5 -16 -5.5h-39 c-6.66699 0 -12.167 1.83301 -16.5 5.5s-6.5 9.16699 -6.5 16.5v50zM185.001 -113.999c0 6 2.50098 11 7.50098 15s10.5 6 16.5 6h39c6 0 11.333 -2 16 -6s7 -9 7 -15v-50c0 -7.33301 -2.33301 -12.833 -7 -16.5s-10 -5.5 -16 -5.5h-39 c-6.66699 0 -12.334 1.83301 -17.001 5.5s-7 9.16699 -7 16.5v50zM104.002 -241.999c0 6 2.33398 11 7.00098 15s10 6 16 6h37c6.66699 0 12.167 -2 16.5 -6s6.5 -9 6.5 -15v-45c0 -6.66699 -2.33301 -12 -7 -16s-10.334 -6 -17.001 -6h-37c-6 0 -11.167 2 -15.5 6 s-6.5 9.33301 -6.5 16v45z"/>
    <glyph glyph-name="TtehSep" unicode="ٹ" horiz-adv-x="891" arabic-form="isolated" d="M510 512c2.66699 0 4.00098 2 4.00098 6v19c0 17.333 -5.5 29.5 -16.5 36.5s-28.167 10.5 -51.5 10.5c-4.66699 0 -13.334 -0.333008 -26.001 -1s-25.667 -1.66699 -39 -3v-68h129zM300.001 500c0 5.33301 1.66602 8.66895 4.99902 10.002s7.66602 2 12.999 2h19v176 c0 8.66699 4.33301 13 13 13h17c9.33301 0 14 -4.33301 14 -13v-69c11.333 2 24 3.66699 38 5s24.667 2 32 2c14 0 27.5 -1.5 40.5 -4.5s24.333 -7.83301 34 -14.5s17.5 -15.5 23.5 -26.5s9 -24.5 9 -40.5v-13c0 -6 -0.166992 -13.333 -0.5 -22 s-1.16602 -16.334 -2.49902 -23.001c-1.33301 -6 -5 -9 -11 -9c-10 -0.666992 -22.167 -1 -36.5 -1h-32.5h-157c-5.33301 0 -9.66602 0.666992 -12.999 2s-5 4.66602 -5 9.99902v16zM683 86.0029c18.667 0 30.665 1.66602 35.998 4.99902s8 13.666 8 30.999v66v62 c0 20.667 -0.166992 41.834 -0.5 63.501s-0.833008 45.5 -1.5 71.5c0 5.33301 1.66699 9.83301 5 13.5s7.66602 5.5 12.999 5.5h47c6 0 10.667 -1.83301 14 -5.5s5 -8.16699 5 -13.5c0.666992 -22.667 1.16699 -41.667 1.5 -57s0.5 -29.666 0.5 -42.999v-41.5v-51.5 c0 -32 -0.166992 -61.667 -0.5 -89s-1.5 -48.666 -3.5 -63.999c-1.33301 -6.66699 -3.5 -12.334 -6.5 -17.001s-8.5 -8.66699 -16.5 -12c-5.33301 -2 -14.166 -3.5 -26.499 -4.5s-26.666 -2 -42.999 -3s-34 -1.66699 -53 -2s-37.833 -0.5 -56.5 -0.5h-234 c-64 0 -116.5 6.16699 -157.5 18.5s-73.333 30 -97 53s-40 51 -49 84s-13.5 69.833 -13.5 110.5c0 14 0.5 28.5 1.5 43.5s3.16699 32.167 6.5 51.5c2 12.667 8.66699 19 20 19h42c11.333 0 16.333 -6.66699 15 -20c-1.33301 -15.333 -2.33301 -28.333 -3 -39 s-1 -21.667 -1 -33c0 -30 2.66699 -57.333 8 -82s16.5 -46 33.5 -64s41.333 -31.833 73 -41.5s73.834 -14.5 126.501 -14.5h307z"/>
    <glyph glyph-name="TtehFin" unicode="ٹ" horiz-adv-x="905" arabic-form="final" d="M510 512c2.66699 0 4.00098 2 4.00098 6v19c0 17.333 -5.5 29.5 -16.5 36.5s-28.167 10.5 -51.5 10.5c-4.66699 0 -13.334 -0.333008 -26.001 -1s-25.667 -1.66699 -39 -3v-68h129zM300.001 500c0 5.33301 1.66602 8.66895 4.99902 10.002s7.66602 2 12.999 2h19v176 c0 8.66699 4.33301 13 13 13h17c9.33301 0 14 -4.33301 14 -13v-69c11.333 2 24 3.66699 38 5s24.667 2 32 2c14 0 27.5 -1.5 40.5 -4.5s24.333 -7.83301 34 -14.5s17.5 -15.5 23.5 -26.5s9 -24.5 9 -40.5v-13c0 -6 -0.166992 -13.333 -0.5 -22 s-1.16602 -16.334 -2.49902 -23.001c-1.33301 -6 -5 -9 -11 -9c-10 -0.666992 -22.167 -1 -36.5 -1h-32.5h-157c-5.33301 0 -9.66602 0.666992 -12.999 2s-5 4.66602 -5 9.99902v16zM658 86.0029c6 0 13.166 0.333984 21.499 1.00098s16 2.16699 23 4.5s13 6 18 11 s7.5 11.833 7.5 20.5v262c0 5.33301 1.83301 9.83301 5.5 13.5s8.16699 5.5 13.5 5.5h47c5.33301 0 9.66602 -1.83301 12.999 -5.5s5 -8.16699 5 -13.5v-275c2 -5.33301 6.16699 -9.5 12.5 -12.5s13.333 -5.33301 21 -7s15.5 -2.83398 23.5 -3.50098s14.667 -1 20 -1h16v-86 h-11c-9.33301 0 -19.5 0.333008 -30.5 1s-22.167 2.33398 -33.5 5.00098s-22.333 6 -33 10s-19.667 9.66699 -27 17c-17.333 -14.667 -39.166 -23.834 -65.499 -27.501s-53.5 -5.5 -81.5 -5.5h-252c-64 0 -116.5 6.16699 -157.5 18.5s-73.333 30 -97 53s-40 51 -49 84 s-13.5 69.833 -13.5 110.5c0 14 0.5 28.5 1.5 43.5s3.16699 32.167 6.5 51.5c2 12.667 8.66699 19 20 19h42c11.333 0 16.333 -6.66699 15 -20c-1.33301 -15.333 -2.33301 -28.333 -3 -39s-1 -21.667 -1 -33c0 -30 2.66699 -57.333 8 -82s16.5 -46 33.5 -64 s41.333 -31.833 73 -41.5s73.834 -14.5 126.501 -14.5h282z"/>
    <glyph glyph-name="TtehIni" unicode="ٹ" horiz-adv-x="275" arabic-form="initial" d="M222 568c2.66699 0 4.00098 2 4.00098 6v19c0 17.333 -5.5 29.5 -16.5 36.5s-28.167 10.5 -51.5 10.5c-4.66699 0 -13.334 -0.333008 -26.001 -1s-25.667 -1.66699 -39 -3v-68h129zM12.001 556c0 5.33301 1.66602 8.66895 4.99902 10.002s7.66602 2 12.999 2h19v176 c0 8.66699 4.33301 13 13 13h17c9.33301 0 14 -4.33301 14 -13v-69c11.333 2 24 3.66699 38 5s24.667 2 32 2c14 0 27.5 -1.5 40.5 -4.5s24.333 -7.83301 34 -14.5s17.5 -15.5 23.5 -26.5s9 -24.5 9 -40.5v-13c0 -6 -0.166992 -13.333 -0.5 -22 s-1.16602 -16.334 -2.49902 -23.001c-1.33301 -6 -5 -9 -11 -9c-10 -0.666992 -22.167 -1 -36.5 -1h-32.5h-157c-5.33301 0 -9.66602 0.666992 -12.999 2s-5 4.66602 -5 9.99902v16zM-40 73.0029c0 4 3.33301 7.16797 10 9.50098s14.667 3.5 24 3.5h70 c19.333 0 31.666 1.66699 36.999 5s8 13.666 8 30.999v66v62c0 20.667 -0.166992 42 -0.5 64s-0.833008 46 -1.5 72c0 5.33301 1.5 9.83301 4.5 13.5s7.16699 5.5 12.5 5.5h48c6 0 10.667 -1.83301 14 -5.5s5 -8.16699 5 -13.5c0.666992 -22.667 1.16699 -41.667 1.5 -57 s0.5 -29.833 0.5 -43.5v-42v-51.5c0 -32 -0.166992 -61.667 -0.5 -89s-1.5 -48.666 -3.5 -63.999c-1.33301 -6.66699 -3.5 -12.334 -6.5 -17.001s-8.5 -8.66699 -16.5 -12c-5.33301 -2 -12.666 -3.5 -21.999 -4.5s-20 -2 -32 -3s-24.333 -1.66699 -37 -2 s-24.667 -0.5 -36 -0.5h-45c-9.33301 0 -17.333 1.16699 -24 3.5s-10 5.83301 -10 10.5v59z"/>
    <glyph glyph-name="TtehMed" unicode="ٹ" horiz-adv-x="286" arabic-form="medial" d="M-40 73c0 4 3.33398 7.16797 10.001 9.50098s14.667 3.5 24 3.5h45c6.66699 0 14 0.333008 22 1s15.667 2.16699 23 4.5s13.5 6 18.5 11s7.5 11.833 7.5 20.5v262c0 5.33301 1.83301 9.83301 5.5 13.5s8.16699 5.5 13.5 5.5h46c5.33301 0 9.83301 -1.83301 13.5 -5.5 s5.5 -8.16699 5.5 -13.5v-275c2 -5.33301 6.16699 -9.5 12.5 -12.5s13.333 -5.33301 21 -7s15.5 -2.83398 23.5 -3.50098s15 -1 21 -1h14v-86h-12c-20.667 0 -42.834 2.16699 -66.501 6.5s-43.167 13.166 -58.5 26.499c-16.667 -13.333 -36.5 -22.166 -59.5 -26.499 s-43.833 -6.5 -62.5 -6.5h-33c-9.33301 0 -17.333 1.16699 -24 3.5s-10 5.83301 -10 10.5v59zM227.001 568.001c2.66699 0 4.00098 2 4.00098 6v19c0 17.333 -5.5 29.5 -16.5 36.5s-28.167 10.5 -51.5 10.5c-4.66699 0 -13.334 -0.333008 -26.001 -1 s-25.667 -1.66699 -39 -3v-68h129zM17.002 556.001c0 5.33301 1.66602 8.66895 4.99902 10.002s7.66602 2 12.999 2h19v176c0 8.66699 4.33301 13 13 13h17c9.33301 0 14 -4.33301 14 -13v-69c11.333 2 24 3.66699 38 5s24.667 2 32 2c14 0 27.5 -1.5 40.5 -4.5 s24.333 -7.83301 34 -14.5s17.5 -15.5 23.5 -26.5s9 -24.5 9 -40.5v-13c0 -6 -0.166992 -13.333 -0.5 -22s-1.16602 -16.334 -2.49902 -23.001c-1.33301 -6 -5 -9 -11 -9c-10 -0.666992 -22.167 -1 -36.5 -1h-32.5h-157c-5.33301 0 -9.66602 0.666992 -12.999 2 s-5 4.66602 -5 9.99902v16z"/>
    <glyph glyph-name="VehSep" unicode="ڤ" horiz-adv-x="1023" arabic-form="isolated" d="M635 642c0 6.66699 2.16699 12.167 6.5 16.5s9.83301 6.5 16.5 6.5h39c6.66699 0 12.167 -2.16699 16.5 -6.5s6.5 -9.83301 6.5 -16.5v-50c0 -6 -2.33301 -11 -7 -15s-10 -6 -16 -6h-39c-6.66699 0 -12.167 2 -16.5 6s-6.5 9 -6.5 15v50zM798 642 c0 6.66699 2.5 12.167 7.5 16.5s10.5 6.5 16.5 6.5h39c6 0 11.333 -2.16699 16 -6.5s7 -9.83301 7 -16.5v-50c0 -6 -2.33301 -11 -7 -15s-10 -6 -16 -6h-39c-6 0 -11.5 2 -16.5 6s-7.5 9 -7.5 15v50zM719 766c0 6 2.33301 11 7 15s10 6 16 6h37c6 0 11.333 -2 16 -6 s7 -9 7 -15v-45c0 -6.66699 -2.5 -11.834 -7.5 -15.501s-10.5 -5.5 -16.5 -5.5h-37c-6 0 -11.167 1.83301 -15.5 5.5s-6.5 8.83398 -6.5 15.501v45zM593 86c-13.333 14.667 -24.335 34.1641 -33.002 58.4971s-13 53.5 -13 87.5v22c0 66 20.667 117.667 62 155s98 56 170 56 c27.333 0 54.333 -1.16699 81 -3.5s49.334 -6.16602 68.001 -11.499c6 -1.33301 10 -3.33301 12 -6s3 -6.66699 3 -12v-262v-36.5c0 -13 -0.166992 -26 -0.5 -39l-1 -37.5c-0.333008 -12 -0.833008 -23 -1.5 -33c-0.666992 -11.333 -8.33398 -17.666 -23.001 -18.999 c-28 -2.66699 -55.167 -4.16699 -81.5 -4.5s-52.166 -0.5 -77.499 -0.5h-385c-62 0 -113.5 5.83301 -154.5 17.5s-73.667 28.834 -98 51.501s-41.333 50.5 -51 83.5s-14.5 70.833 -14.5 113.5c0 14 0.5 28.333 1.5 43s3.5 31.667 7.5 51 c1.33301 7.33301 3.33301 12.5 6 15.5s7 4.5 13 4.5h42c12 0 17 -6.66699 15 -20c-1.33301 -15.333 -2.16602 -28.333 -2.49902 -39s-0.5 -21.667 -0.5 -33c0 -32 3 -60.5 9 -85.5s17.833 -46.167 35.5 -63.5s42.167 -30.5 73.5 -39.5s72.333 -13.5 123 -13.5h215z M630.998 228.997c0 -46.667 10.501 -82.5 31.501 -107.5s54.167 -37.5 99.5 -37.5c15.333 0 31.666 0.166992 48.999 0.5s33.333 1.16602 48 2.49902v294c-13.333 2 -26.833 3.33301 -40.5 4s-29.167 1 -46.5 1c-46 0 -81 -11.667 -105 -35s-36 -56.666 -36 -99.999v-22z "/>
    <glyph glyph-name="VehFin" unicode="ڤ" horiz-adv-x="1029" arabic-form="final" d="M594 86c-13.333 14.667 -24.502 34.165 -33.502 58.498s-13.5 53.5 -13.5 87.5v21c0 66 20.667 117.833 62 155.5s98 56.5 170 56.5c27.333 0 54.333 -1.16699 81 -3.5s49.334 -6.16602 68.001 -11.499c6 -1.33301 10 -3.33301 12 -6s3 -6.66699 3 -12v-346h86v-86h-649 c-64 0 -117 5.83301 -159 17.5s-75.167 28.834 -99.5 51.501s-41.5 50.5 -51.5 83.5s-15 70.833 -15 113.5c0 14 0.5 28.5 1.5 43.5s3.5 31.833 7.5 50.5c2 13.333 8.33301 20 19 20h42c12 0 17 -6.66699 15 -20c-1.33301 -15.333 -2.16602 -28.333 -2.49902 -39 s-0.5 -21.667 -0.5 -33c0 -32 3 -60.5 9 -85.5s18 -46.167 36 -63.5s43.167 -30.5 75.5 -39.5s74.833 -13.5 127.5 -13.5h209zM858.998 83.998v296.999c-13.333 2 -26.833 3.33301 -40.5 4s-29.167 1 -46.5 1c-46 0 -81 -11.167 -105 -33.5s-36 -56.166 -36 -101.499v-21 c0 -47.333 10.5 -83.5 31.5 -108.5s54.167 -37.5 99.5 -37.5h97zM634.998 641.997c0 6.66699 2.16699 12.167 6.5 16.5s9.83301 6.5 16.5 6.5h39c6.66699 0 12.167 -2.16699 16.5 -6.5s6.5 -9.83301 6.5 -16.5v-50c0 -6 -2.33301 -11 -7 -15s-10 -6 -16 -6h-39 c-6.66699 0 -12.167 2 -16.5 6s-6.5 9 -6.5 15v50zM797.998 641.997c0 6.66699 2.5 12.167 7.5 16.5s10.5 6.5 16.5 6.5h39c6 0 11.333 -2.16699 16 -6.5s7 -9.83301 7 -16.5v-50c0 -6 -2.33301 -11 -7 -15s-10 -6 -16 -6h-39c-6 0 -11.5 2 -16.5 6s-7.5 9 -7.5 15v50z M718.998 765.997c0 6 2.33301 11 7 15s10 6 16 6h37c6 0 11.333 -2 16 -6s7 -9 7 -15v-45c0 -6.66699 -2.5 -11.834 -7.5 -15.501s-10.5 -5.5 -16.5 -5.5h-37c-6 0 -11.167 1.83301 -15.5 5.5s-6.5 8.83398 -6.5 15.501v45z"/>
    <glyph glyph-name="VehIni" unicode="ڤ" horiz-adv-x="548" arabic-form="initial" d="M156 226c0 -46 10.5 -81.167 31.5 -105.5s53.833 -36.5 98.5 -36.5c15.333 0 32 0.166992 50 0.5s34 1.16602 48 2.49902v294c-13.333 2 -27 3.33301 -41 4s-29.667 1 -47 1c-46 0 -80.833 -11.667 -104.5 -35s-35.5 -57.666 -35.5 -102.999v-22zM-40 73 c0 4 3.33496 7.16504 10.002 9.49805s14.667 3.5 24 3.5h122c-12.667 14 -23.167 32.333 -31.5 55s-12.5 51 -12.5 85v24c0 67.333 20.5 120 61.5 158s97.5 57 169.5 57c28 0 55.333 -1.16699 82 -3.5s49 -6.16602 67 -11.499c6.66699 -1.33301 11 -3.33301 13 -6 s3 -6.66699 3 -12v-262v-36.5c0 -13 -0.166992 -26 -0.5 -39s-0.833008 -25.5 -1.5 -37.5s-1.33398 -23 -2.00098 -33c-0.666992 -11.333 -8 -17.666 -22 -18.999c-28 -2.66699 -54.833 -4.16699 -80.5 -4.5s-51.834 -0.5 -78.501 -0.5h-289 c-9.33301 0 -17.333 1.16699 -24 3.5s-10 5.83301 -10 10.5v59zM159.002 641.998c0 6.66699 2.16699 12.167 6.5 16.5s9.83301 6.5 16.5 6.5h39c6.66699 0 12.167 -2.16699 16.5 -6.5s6.5 -9.83301 6.5 -16.5v-50c0 -6 -2.33301 -11 -7 -15s-10 -6 -16 -6h-39 c-6.66699 0 -12.167 2 -16.5 6s-6.5 9 -6.5 15v50zM322.002 641.998c0 6.66699 2.5 12.167 7.5 16.5s10.5 6.5 16.5 6.5h39c6 0 11.333 -2.16699 16 -6.5s7 -9.83301 7 -16.5v-50c0 -6 -2.33301 -11 -7 -15s-10 -6 -16 -6h-39c-6 0 -11.5 2 -16.5 6s-7.5 9 -7.5 15v50z M243.002 765.998c0 6 2.33301 11 7 15s10 6 16 6h37c6 0 11.333 -2 16 -6s7 -9 7 -15v-45c0 -6.66699 -2.5 -11.834 -7.5 -15.501s-10.5 -5.5 -16.5 -5.5h-37c-6 0 -11.167 1.83301 -15.5 5.5s-6.5 8.83398 -6.5 15.501v45z"/>
    <glyph glyph-name="VehMed" unicode="ڤ" horiz-adv-x="554" arabic-form="medial" d="M163 642c0 6.66699 2.16699 12.167 6.5 16.5s9.83301 6.5 16.5 6.5h39c6.66699 0 12.167 -2.16699 16.5 -6.5s6.5 -9.83301 6.5 -16.5v-50c0 -6 -2.33301 -11 -7 -15s-10 -6 -16 -6h-39c-6.66699 0 -12.167 2 -16.5 6s-6.5 9 -6.5 15v50zM326 642 c0 6.66699 2.5 12.167 7.5 16.5s10.5 6.5 16.5 6.5h39c6 0 11.333 -2.16699 16 -6.5s7 -9.83301 7 -16.5v-50c0 -6 -2.33301 -11 -7 -15s-10 -6 -16 -6h-39c-6 0 -11.5 2 -16.5 6s-7.5 9 -7.5 15v50zM247 766c0 6 2.33301 11 7 15s10 6 16 6h37c6 0 11.333 -2 16 -6 s7 -9 7 -15v-45c0 -6.66699 -2.5 -11.834 -7.5 -15.501s-10.5 -5.5 -16.5 -5.5h-37c-6 0 -11.167 1.83301 -15.5 5.5s-6.5 8.83398 -6.5 15.501v45zM-40 73c0 4 3.33301 7.16699 10 9.5s14.667 3.5 24 3.5h132c-17.333 14 -30.666 32.667 -39.999 56s-14 51.666 -14 84.999 v24c0 68 20.5 120.667 61.5 158s97.833 56 170.5 56c27.333 0 54.166 -1.16699 80.499 -3.5s48.833 -6.16602 67.5 -11.499c6.66699 -1.33301 11 -3.33301 13 -6s3 -6.66699 3 -12v-346h86v-86h-560c-9.33301 0 -17.333 1.16699 -24 3.5s-10 5.83301 -10 10.5v59zM384 84 v297c-13.333 2 -26.833 3.33301 -40.5 4s-29.167 1 -46.5 1c-46 0 -81 -11.5 -105 -34.5s-36 -57.5 -36 -103.5v-21c0 -46 10.5 -81.333 31.5 -106s53.833 -37 98.5 -37h98z"/>
    <glyph glyph-name="TchehSep" unicode="چ" horiz-adv-x="625" arabic-form="isolated" d="M56 -24c0 12.667 0.667969 27.666 2.00098 44.999s3.33301 31 6 41c1.33301 6.66699 3.33301 11.667 6 15s7.66699 5.33301 15 6c4 0.666992 9.66699 1.16699 17 1.5s15.333 0.5 24 0.5h27h25h309l-38 88l-22 52c-11.333 25.333 -23.666 47.5 -36.999 66.5 s-28.833 34.667 -46.5 47s-38.334 21.666 -62.001 27.999s-51.167 9.5 -82.5 9.5c-8 0 -18.167 -0.5 -30.5 -1.5s-25.5 -2.16699 -39.5 -3.5c-14.667 -2 -22 2.66699 -22 14v41c0 5.33301 1.33301 9.5 4 12.5s7.66699 5.16699 15 6.5c14 3.33301 28.667 5.66602 44 6.99902 s29.333 2 42 2c34.667 0 66.834 -3.16699 96.501 -9.5s57.334 -18.166 83.001 -35.499s49.167 -41 70.5 -71s41.666 -68.333 60.999 -115l10 -24l9 -23.5l12.5 -32l12.5 -31l9 -21.5c2 -4.66699 3.5 -9.16699 4.5 -13.5s1.5 -10.166 1.5 -17.499v-36 c0 -16 -9.66699 -24 -29 -24h-335h-41c-16.667 0 -30.334 -0.333008 -41.001 -1c-0.666992 -6 -1 -13 -1 -21v-18c0 -88.667 33.333 -136 100 -142c7.33301 -0.666992 13.333 -2 18 -4s7 -7.66699 7 -17v-38c0 -7.33301 -2.16699 -12.166 -6.5 -14.499 s-10.833 -3.5 -19.5 -3.5c-22.667 0 -44.834 3.33301 -66.501 10s-41.167 19 -58.5 37c-19.333 19.333 -33 45 -41 77s-12 69 -12 111zM261.001 -76.001c0 6 2.16699 11 6.5 15s9.16602 6 14.499 6h36c6 0 11.333 -2 16 -6s7 -9 7 -15v-43 c0 -6.66699 -2.33301 -11.834 -7 -15.501s-10 -5.5 -16 -5.5h-36c-5.33301 0 -10.166 1.83301 -14.499 5.5s-6.5 8.83398 -6.5 15.501v43zM413.001 -76.001c0 6 2.16699 11 6.5 15s9.5 6 15.5 6h37c5.33301 0 10.166 -2 14.499 -6s6.5 -9 6.5 -15v-43 c0 -6.66699 -2.16699 -11.834 -6.5 -15.501s-9.16602 -5.5 -14.499 -5.5h-37c-6 0 -11.167 1.83301 -15.5 5.5s-6.5 8.83398 -6.5 15.501v43zM336.001 -193.001c0 5.33301 2.33301 10 7 14s9.66699 6 15 6h37c5.33301 0 10.166 -2 14.499 -6s6.5 -8.66699 6.5 -14v-40 c0 -5.33301 -2.16699 -10 -6.5 -14s-9.16602 -6 -14.499 -6h-37c-6 0 -11.167 2 -15.5 6s-6.5 8.66699 -6.5 14v40z"/>
    <glyph glyph-name="TchehFin" unicode="چ" horiz-adv-x="601" arabic-form="final" d="M56 -24c0 12.667 0.668945 27.666 2.00195 44.999s3.33301 31 6 41c1.33301 6.66699 3.33301 11.667 6 15s7.66699 5.33301 15 6c4 0.666992 9.66699 1.16699 17 1.5s15.333 0.5 24 0.5h27h25h308l-38 88l-22 52c-11.333 25.333 -23.5 47.5 -36.5 66.5 s-28.333 34.667 -46 47s-38.334 21.666 -62.001 27.999s-51.167 9.5 -82.5 9.5c-8 0 -18.167 -0.5 -30.5 -1.5s-25.5 -2.16699 -39.5 -3.5c-14.667 -2 -22 2.66699 -22 14v41c0 5.33301 1.33301 9.5 4 12.5s7.66699 5.16699 15 6.5c14 3.33301 28.667 5.66602 44 6.99902 s29.333 2 42 2c34.667 0 66.834 -3.33301 96.501 -10s57.167 -18.5 82.5 -35.5s48.833 -40.333 70.5 -70s41.834 -67.5 60.501 -113.5l11 -27l40 -100c2.66699 -5.33301 5.16699 -8.66602 7.5 -9.99902s6.16602 -2 11.499 -2h9v-86h-383h-41 c-16.667 0 -30.334 -0.333008 -41.001 -1c-0.666992 -6 -1 -13 -1 -21v-18c0 -88.667 33.333 -136 100 -142c7.33301 -0.666992 13.333 -2 18 -4s7 -7.66699 7 -17v-38c0 -7.33301 -2.16699 -12.166 -6.5 -14.499s-10.833 -3.5 -19.5 -3.5 c-22.667 0 -44.834 3.33301 -66.501 10s-41.167 19 -58.5 37c-19.333 19.333 -33 44.833 -41 76.5s-12 68.834 -12 111.501zM413.002 -76.001c0 6 2.16699 11 6.5 15s9.5 6 15.5 6h37c5.33301 0 10.166 -2 14.499 -6s6.5 -9 6.5 -15v-43 c0 -6.66699 -2.16699 -11.834 -6.5 -15.501s-9.16602 -5.5 -14.499 -5.5h-37c-6 0 -11.167 1.83301 -15.5 5.5s-6.5 8.83398 -6.5 15.501v43zM261.002 -76.001c0 6 2.16699 11 6.5 15s9.16602 6 14.499 6h36c6 0 11.333 -2 16 -6s7 -9 7 -15v-43 c0 -6.66699 -2.33301 -11.834 -7 -15.501s-10 -5.5 -16 -5.5h-36c-5.33301 0 -10.166 1.83301 -14.499 5.5s-6.5 8.83398 -6.5 15.501v43zM336.002 -193.001c0 5.33301 2.33301 10 7 14s9.66699 6 15 6h37c5.33301 0 10.166 -2 14.499 -6s6.5 -8.66699 6.5 -14v-40 c0 -5.33301 -2.16699 -10 -6.5 -14s-9.16602 -6 -14.499 -6h-37c-6 0 -11.167 2 -15.5 6s-6.5 8.66699 -6.5 14v40z"/>
    <glyph glyph-name="TchehIni" unicode="چ" horiz-adv-x="595" arabic-form="initial" d="M-40 73c0 4 3.33496 7.16797 10.002 9.50098s14.667 3.5 24 3.5h464l-36 86l-23 53c-22 50.667 -51.167 88.5 -87.5 113.5s-85.833 37.5 -148.5 37.5c-2.66699 0 -6.83398 -0.166992 -12.501 -0.5s-12 -0.833008 -19 -1.5s-14 -1.16699 -21 -1.5 s-13.167 -0.833008 -18.5 -1.5c-14.667 -1.33301 -22 3.33398 -22 14.001v41c0 5.33301 1.33301 9.5 4 12.5s7.66699 5.16699 15 6.5c14.667 3.33301 31.167 5.66602 49.5 6.99902s33.5 2 45.5 2c33.333 0 64.666 -3.16699 93.999 -9.5s57 -18 83 -35s50 -40.333 72 -70 s42.667 -67.834 62 -114.501l10 -26l42 -107c1.33301 -4.66699 2.5 -9.33398 3.5 -14.001s1.5 -10.667 1.5 -18v-36c0 -7.33301 -2 -13.166 -6 -17.499s-11.667 -6.5 -23 -6.5h-529c-10 0 -18.167 1.5 -24.5 4.5s-9.5 6.16699 -9.5 9.5v59zM137.002 -113.999 c0 6 2.16699 11 6.5 15s9.83301 6 16.5 6h39c6 0 11.333 -2 16 -6s7 -9 7 -15v-50c0 -7.33301 -2.33301 -12.833 -7 -16.5s-10 -5.5 -16 -5.5h-39c-6.66699 0 -12.167 1.83301 -16.5 5.5s-6.5 9.16699 -6.5 16.5v50zM300.002 -113.999c0 6 2.50098 11 7.50098 15 s10.5 6 16.5 6h39c6 0 11.333 -2 16 -6s7 -9 7 -15v-50c0 -7.33301 -2.33301 -12.833 -7 -16.5s-10 -5.5 -16 -5.5h-39c-6.66699 0 -12.334 1.83301 -17.001 5.5s-7 9.16699 -7 16.5v50zM219.003 -241.999c0 6 2.33398 11 7.00098 15s10 6 16 6h37 c6.66699 0 12.167 -2 16.5 -6s6.5 -9 6.5 -15v-45c0 -6.66699 -2.33301 -12 -7 -16s-10.334 -6 -17.001 -6h-37c-6 0 -11.167 2 -15.5 6s-6.5 9.33301 -6.5 16v45z"/>
    <glyph glyph-name="TchehMed" unicode="چ" horiz-adv-x="572" arabic-form="medial" d="M-6 0c-10.667 0 -19.001 1.5 -25.001 4.5s-9 6.16699 -9 9.5v59c0 4 3.33301 7.16699 10 9.5s14.667 3.5 24 3.5h464l-36 86l-23 53c-22 51.333 -51.167 89.333 -87.5 114s-85.833 37 -148.5 37c-5.33301 0 -15.666 -0.5 -30.999 -1.5s-28.666 -2.16699 -39.999 -3.5 c-14.667 -1.33301 -22 3.33398 -22 14.001v41c0 5.33301 1.33301 9.5 4 12.5s7.66699 5.16699 15 6.5c14 3.33301 29.5 5.66602 46.5 6.99902s33.167 2 48.5 2c33.333 0 64.666 -3.16699 93.999 -9.5s57 -18 83 -35s50 -40.333 72 -70s42.667 -67.834 62 -114.501l11 -26 l40 -101c3.33301 -5.33301 6 -8.66602 8 -9.99902s5.66699 -2 11 -2h7v-86h-578zM136.999 -114c0 6 2.16699 11 6.5 15s9.83301 6 16.5 6h39c6 0 11.333 -2 16 -6s7 -9 7 -15v-50c0 -7.33301 -2.33301 -12.833 -7 -16.5s-10 -5.5 -16 -5.5h-39 c-6.66699 0 -12.167 1.83301 -16.5 5.5s-6.5 9.16699 -6.5 16.5v50zM299.999 -114c0 6 2.50098 11 7.50098 15s10.5 6 16.5 6h39c6 0 11.333 -2 16 -6s7 -9 7 -15v-50c0 -7.33301 -2.33301 -12.833 -7 -16.5s-10 -5.5 -16 -5.5h-39c-6.66699 0 -12.334 1.83301 -17.001 5.5 s-7 9.16699 -7 16.5v50zM219 -242c0 6 2.33398 11 7.00098 15s10 6 16 6h37c6.66699 0 12.167 -2 16.5 -6s6.5 -9 6.5 -15v-45c0 -6.66699 -2.33301 -12 -7 -16s-10.334 -6 -17.001 -6h-37c-6 0 -11.167 2 -15.5 6s-6.5 9.33301 -6.5 16v45z"/>
    <glyph glyph-name="DdalSep" unicode="ڈ" horiz-adv-x="485" arabic-form="isolated" d="M46 68c0 5.33301 1.99805 9.66602 5.99805 12.999s8.66699 5 14 5h273l-1 123c-1.33301 58.667 -16.166 102.334 -44.499 131.001s-74.166 43 -137.499 43c-7.33301 0 -17.666 -0.166992 -30.999 -0.5s-25 -1.16602 -35 -2.49902 c-13.333 -1.33301 -20 3.33398 -20 14.001v41c0 5.33301 1.5 9.66602 4.5 12.999s8.16699 5.33301 15.5 6c17.333 2.66699 33.833 4.33398 49.5 5.00098s27.167 1 34.5 1c45.333 0 83.5 -6 114.5 -18s56.167 -29 75.5 -51s33.333 -48 42 -78s13.667 -63 15 -99 c0 -2.66699 0.166992 -9.33398 0.5 -20.001s0.666016 -22.334 0.999023 -35.001s0.5 -24.667 0.5 -36v-23v-17.5c0 -7 -0.166992 -14.333 -0.5 -22l-1 -22.5c-0.333008 -7.33301 -0.833008 -13.333 -1.5 -18c0 -13.333 -7.33301 -20 -22 -20h-332 c-5.33301 0 -10 1.5 -14 4.5s-6 7.16699 -6 12.5v51zM297.998 617c2.66699 0 4.00098 2 4.00098 6v19c0 17.333 -5.5 29.5 -16.5 36.5s-28.167 10.5 -51.5 10.5c-4.66699 0 -13.334 -0.333008 -26.001 -1s-25.667 -1.66699 -39 -3v-68h129zM87.999 605 c0 5.33301 1.66602 8.66895 4.99902 10.002s7.66602 2 12.999 2h19v176c0 8.66699 4.33301 13 13 13h17c9.33301 0 14 -4.33301 14 -13v-69c11.333 2 24 3.66699 38 5s24.667 2 32 2c14 0 27.5 -1.5 40.5 -4.5s24.333 -7.83301 34 -14.5s17.5 -15.5 23.5 -26.5 s9 -24.5 9 -40.5v-13c0 -6 -0.166992 -13.333 -0.5 -22s-1.16602 -16.334 -2.49902 -23.001c-1.33301 -6 -5 -9 -11 -9c-10 -0.666992 -22.167 -1 -36.5 -1h-32.5h-157c-5.33301 0 -9.66602 0.666992 -12.999 2s-5 4.66602 -5 9.99902v16z"/>
    <glyph glyph-name="DdalFin" unicode="ڈ" horiz-adv-x="489" arabic-form="final" d="M298 617c2.66699 0 4.00098 2 4.00098 6v19c0 17.333 -5.5 29.5 -16.5 36.5s-28.167 10.5 -51.5 10.5c-4.66699 0 -13.334 -0.333008 -26.001 -1s-25.667 -1.66699 -39 -3v-68h129zM88.001 605c0 5.33301 1.66602 8.66895 4.99902 10.002s7.66602 2 12.999 2h19v176 c0 8.66699 4.33301 13 13 13h17c9.33301 0 14 -4.33301 14 -13v-69c11.333 2 24 3.66699 38 5s24.667 2 32 2c14 0 27.5 -1.5 40.5 -4.5s24.333 -7.83301 34 -14.5s17.5 -15.5 23.5 -26.5s9 -24.5 9 -40.5v-13c0 -6 -0.166992 -13.333 -0.5 -22 s-1.16602 -16.334 -2.49902 -23.001c-1.33301 -6 -5 -9 -11 -9c-10 -0.666992 -22.167 -1 -36.5 -1h-32.5h-157c-5.33301 0 -9.66602 0.666992 -12.999 2s-5 4.66602 -5 9.99902v16zM46 68.0029c0 5.33301 2.00098 9.66406 6.00098 12.9971s8.66699 5 14 5h273l-1 123 c-1.33301 58.667 -16 102.334 -44 131.001s-73.667 43 -137 43c-7.33301 0 -17.833 -0.166992 -31.5 -0.5s-25.5 -1.16602 -35.5 -2.49902c-13.333 -1.33301 -20 3.33398 -20 14.001v41c0 5.33301 1.5 9.66602 4.5 12.999s8.16699 5.33301 15.5 6 c17.333 2.66699 33.833 4.33398 49.5 5.00098s27.167 1 34.5 1c44.667 0 82.667 -6 114 -18s56.666 -29 75.999 -51s33.5 -48 42.5 -78s14.167 -63 15.5 -99l1 -128h66v-86h-423c-5.33301 0 -10 1.5 -14 4.5s-6 7.16699 -6 12.5v51z"/>
    <glyph glyph-name="JehSep" unicode="ژ" horiz-adv-x="277" arabic-form="isolated" d="M29 605c0 6.66699 2.16699 12.167 6.5 16.5s9.83301 6.5 16.5 6.5h39c6.66699 0 12.167 -2.16699 16.5 -6.5s6.5 -9.83301 6.5 -16.5v-50c0 -6 -2.33301 -11 -7 -15s-10 -6 -16 -6h-39c-6.66699 0 -12.167 2 -16.5 6s-6.5 9 -6.5 15v50zM192 605 c0 6.66699 2.5 12.167 7.5 16.5s10.5 6.5 16.5 6.5h39c6 0 11.333 -2.16699 16 -6.5s7 -9.83301 7 -16.5v-50c0 -6 -2.33301 -11 -7 -15s-10 -6 -16 -6h-39c-6 0 -11.5 2 -16.5 6s-7.5 9 -7.5 15v50zM113 729c0 6 2.33301 11 7 15s10 6 16 6h37c6 0 11.333 -2 16 -6 s7 -9 7 -15v-45c0 -6.66699 -2.5 -11.834 -7.5 -15.501s-10.5 -5.5 -16.5 -5.5h-37c-6 0 -11.167 1.83301 -15.5 5.5s-6.5 8.83398 -6.5 15.501v45zM-36 -170c0 9.33301 5.66895 14 17.002 14h21c22 0 40 1 54 3s25.333 6.33301 34 13s14.667 16.5 18 29.5s5 30.5 5 52.5 v443c0 5.33301 1.66699 9.83301 5 13.5s7.66602 5.5 12.999 5.5h49c4.66699 0 8.66699 -1.83301 12 -5.5s5 -8.16699 5 -13.5v-437c0 -22.667 -1.16699 -44 -3.5 -64s-7.83301 -38 -16.5 -54c-13.333 -23.333 -31.833 -39.666 -55.5 -48.999s-54.834 -14 -93.501 -14 c-3.33301 0 -10.5 0.333008 -21.5 1s-19.833 1.66699 -26.5 3s-11 3.16602 -13 5.49902s-3 5.83301 -3 10.5v43z"/>
    <glyph glyph-name="JehFin" unicode="ژ" horiz-adv-x="289" arabic-form="final" d="M29 605c0 6.66699 2.16699 12.167 6.5 16.5s9.83301 6.5 16.5 6.5h39c6.66699 0 12.167 -2.16699 16.5 -6.5s6.5 -9.83301 6.5 -16.5v-50c0 -6 -2.33301 -11 -7 -15s-10 -6 -16 -6h-39c-6.66699 0 -12.167 2 -16.5 6s-6.5 9 -6.5 15v50zM192 605 c0 6.66699 2.5 12.167 7.5 16.5s10.5 6.5 16.5 6.5h39c6 0 11.333 -2.16699 16 -6.5s7 -9.83301 7 -16.5v-50c0 -6 -2.33301 -11 -7 -15s-10 -6 -16 -6h-39c-6 0 -11.5 2 -16.5 6s-7.5 9 -7.5 15v50zM113 729c0 6 2.33301 11 7 15s10 6 16 6h37c6 0 11.333 -2 16 -6 s7 -9 7 -15v-45c0 -6.66699 -2.5 -11.834 -7.5 -15.501s-10.5 -5.5 -16.5 -5.5h-37c-6 0 -11.167 1.83301 -15.5 5.5s-6.5 8.83398 -6.5 15.501v45zM-36 -170c0 9.33301 5.66895 14 17.002 14h21c22 0 40 1 54 3s25.333 6.33301 34 13s14.667 16.5 18 29.5s5 30.5 5 52.5 v443c0 5.33301 1.66699 9.83301 5 13.5s7.66602 5.5 12.999 5.5h49c4.66699 0 8.66699 -1.83301 12 -5.5s5 -8.16699 5 -13.5v-299h92v-86h-93v-64c0 -21.333 -1.33301 -41 -4 -59s-7.66699 -33.667 -15 -47c-13.333 -23.333 -31.833 -39.666 -55.5 -48.999 s-54.834 -14 -93.501 -14c-3.33301 0 -10.5 0.333008 -21.5 1s-19.833 1.66699 -26.5 3s-11 3.16602 -13 5.49902s-3 5.83301 -3 10.5v43z"/>
    <glyph glyph-name="RrehSep" unicode="ڑ" horiz-adv-x="277" arabic-form="isolated" d="M232 576c2.66699 0 4.00098 2 4.00098 6v19c0 17.333 -5.5 29.5 -16.5 36.5s-28.167 10.5 -51.5 10.5c-4.66699 0 -13.334 -0.333008 -26.001 -1s-25.667 -1.66699 -39 -3v-68h129zM22.001 564c0 5.33301 1.66602 8.66895 4.99902 10.002s7.66602 2 12.999 2h19v176 c0 8.66699 4.33301 13 13 13h17c9.33301 0 14 -4.33301 14 -13v-69c11.333 2 24 3.66699 38 5s24.667 2 32 2c14 0 27.5 -1.5 40.5 -4.5s24.333 -7.83301 34 -14.5s17.5 -15.5 23.5 -26.5s9 -24.5 9 -40.5v-13c0 -6 -0.166992 -13.333 -0.5 -22 s-1.16602 -16.334 -2.49902 -23.001c-1.33301 -6 -5 -9 -11 -9c-10 -0.666992 -22.167 -1 -36.5 -1h-32.5h-157c-5.33301 0 -9.66602 0.666992 -12.999 2s-5 4.66602 -5 9.99902v16zM-36 -169.997c0 9.33301 5.66895 14 17.002 14h21c22 0 40 1 54 3s25.333 6.33301 34 13 s14.667 16.5 18 29.5s5 30.5 5 52.5v443c0 5.33301 1.66699 9.83301 5 13.5s7.66602 5.5 12.999 5.5h49c4.66699 0 8.66699 -1.83301 12 -5.5s5 -8.16699 5 -13.5v-437c0 -22.667 -1.16699 -44 -3.5 -64s-7.83301 -38 -16.5 -54 c-13.333 -23.333 -31.833 -39.666 -55.5 -48.999s-54.834 -14 -93.501 -14c-3.33301 0 -10.5 0.333008 -21.5 1s-19.833 1.66699 -26.5 3s-11 3.16602 -13 5.49902s-3 5.83301 -3 10.5v43z"/>
    <glyph glyph-name="RrehFin" unicode="ڑ" horiz-adv-x="289" arabic-form="final" d="M232 576c2.66699 0 4.00098 2 4.00098 6v19c0 17.333 -5.5 29.5 -16.5 36.5s-28.167 10.5 -51.5 10.5c-4.66699 0 -13.334 -0.333008 -26.001 -1s-25.667 -1.66699 -39 -3v-68h129zM22.001 564c0 5.33301 1.66602 8.66895 4.99902 10.002s7.66602 2 12.999 2h19v176 c0 8.66699 4.33301 13 13 13h17c9.33301 0 14 -4.33301 14 -13v-69c11.333 2 24 3.66699 38 5s24.667 2 32 2c14 0 27.5 -1.5 40.5 -4.5s24.333 -7.83301 34 -14.5s17.5 -15.5 23.5 -26.5s9 -24.5 9 -40.5v-13c0 -6 -0.166992 -13.333 -0.5 -22 s-1.16602 -16.334 -2.49902 -23.001c-1.33301 -6 -5 -9 -11 -9c-10 -0.666992 -22.167 -1 -36.5 -1h-32.5h-157c-5.33301 0 -9.66602 0.666992 -12.999 2s-5 4.66602 -5 9.99902v16zM-36 -169.997c0 9.33301 5.66895 14 17.002 14h21c22 0 40 1 54 3s25.333 6.33301 34 13 s14.667 16.5 18 29.5s5 30.5 5 52.5v443c0 5.33301 1.66699 9.83301 5 13.5s7.66602 5.5 12.999 5.5h49c4.66699 0 8.66699 -1.83301 12 -5.5s5 -8.16699 5 -13.5v-299h92v-86h-93v-64c0 -21.333 -1.33301 -41 -4 -59s-7.66699 -33.667 -15 -47 c-13.333 -23.333 -31.833 -39.666 -55.5 -48.999s-54.834 -14 -93.501 -14c-3.33301 0 -10.5 0.333008 -21.5 1s-19.833 1.66699 -26.5 3s-11 3.16602 -13 5.49902s-3 5.83301 -3 10.5v43z"/>
    <glyph glyph-name="KafFarsiSep" unicode="ک" horiz-adv-x="919" arabic-form="isolated" d="M45 205c0 6.66699 0.335938 14.9961 1.00293 24.9961s2 19.333 4 28c2 13.333 8.33301 20 19 20h42c12 0 17.333 -6.66699 16 -20c-0.666992 -8.66699 -1 -15.667 -1 -21v-12c0 -27.333 3.83301 -50 11.5 -68s19.5 -32.333 35.5 -43s36.667 -18 62 -22 s55.666 -6 90.999 -6h297h29h40c14 0 27.5 0.166992 40.5 0.5s23.167 0.833008 30.5 1.5c0.666992 16 1.16699 32.167 1.5 48.5s0.5 32.5 0.5 48.5c0 36 -5.33301 65.833 -16 89.5s-25.667 42.334 -45 56.001s-42.666 23.167 -69.999 28.5s-57.666 8 -90.999 8 c-20 0 -40 -0.166992 -60 -0.5s-38.333 -0.5 -55 -0.5s-30.834 -0.166992 -42.501 -0.5s-19.5 -0.5 -23.5 -0.5c-11.333 0 -18 5 -20 15c-0.666992 2 -1 5.66699 -1 11v10c0 16 1.33301 31.333 4 46s6.5 29.667 11.5 45s11.333 31.333 19 48s16.834 34.667 27.501 54l74 137 c3.33301 5.33301 7 10 11 14s9.66699 6 17 6h47c5.33301 0 9.16602 -1.16699 11.499 -3.5s3.5 -5.16602 3.5 -8.49902s-1 -7 -3 -11l-94 -178c-11.333 -20.667 -20.833 -41 -28.5 -61s-11.834 -34.333 -12.501 -43c28 1.33301 52.667 2.33301 74 3s37.666 1 48.999 1 c49.333 0 92.5 -4.83301 129.5 -14.5s68 -25 93 -46s43.667 -48.167 56 -81.5s18.5 -73.666 18.5 -120.999v-21c0 -9.33301 -0.166992 -20.666 -0.5 -33.999l-1 -40c-0.333008 -13.333 -1 -26 -2 -38s-1.83301 -21.667 -2.5 -29c-2 -12.667 -9.33301 -19.334 -22 -20.001 c-13.333 -1.33301 -28.166 -2.16602 -44.499 -2.49902s-33.333 -0.833008 -51 -1.5s-35.334 -1 -53.001 -1h-50.5h-308c-48.667 0 -90 3.66699 -124 11s-61.833 19 -83.5 35s-37.334 37 -47.001 63s-14.5 58 -14.5 96z"/>
    <glyph glyph-name="KafFarsiFin" unicode="ک" horiz-adv-x="921" arabic-form="final" d="M45 205c0 6.66699 0.333984 14.998 1.00098 24.998s2 19.333 4 28c2 13.333 8.33301 20 19 20h42c12 0 17.333 -6.66699 16 -20c-0.666992 -8.66699 -1 -15.667 -1 -21v-12c0 -27.333 3.83301 -50 11.5 -68s19.5 -32.333 35.5 -43s36.667 -18 62 -22s55.666 -6 90.999 -6 h437c0.666992 15.333 1.16699 31.666 1.5 48.999s0.5 33.666 0.5 48.999c0 36.667 -5.33301 66.834 -16 90.501s-25.667 42.334 -45 56.001s-42.666 23.167 -69.999 28.5s-57.666 8 -90.999 8c-20 0 -40 -0.166992 -60 -0.5s-38.333 -0.5 -55 -0.5 s-30.834 -0.166992 -42.501 -0.5s-19.5 -0.5 -23.5 -0.5c-11.333 0 -18 5 -20 15c-0.666992 2 -1 5.5 -1 10.5v10.5c0 16 1.33301 31.333 4 46s6.5 29.5 11.5 44.5s11.333 30.833 19 47.5s16.834 34.667 27.501 54l74 138c3.33301 5.33301 7 10 11 14s9.66699 6 17 6h47 c5.33301 0 9.16602 -1.16699 11.499 -3.5s3.5 -5.16602 3.5 -8.49902s-1 -7 -3 -11l-94 -178c-11.333 -21.333 -20.5 -41.666 -27.5 -60.999s-10.833 -33.666 -11.5 -42.999c26.667 1.33301 50.667 2.33301 72 3s37.666 1 48.999 1c46.667 0 88.334 -4.66699 125.001 -14 s67.667 -24 93 -44s44.833 -45.833 58.5 -77.5s20.5 -69.834 20.5 -114.501v-12v-22.5c0 -9 -0.166992 -18.333 -0.5 -28l-1 -28c-0.333008 -9 -0.833008 -16.833 -1.5 -23.5h75v-86h-607c-48.667 0 -90 3.66699 -124 11s-61.833 19 -83.5 35s-37.334 37 -47.001 63 s-14.5 58 -14.5 96z"/>
    <glyph glyph-name="KafFarsiIni" unicode="ک" horiz-adv-x="674" arabic-form="initial" d="M-40 70c0 5.33301 3.33203 9.33008 9.99902 11.9971s14.667 4 24 4h385h29h39.5c13.667 0 26.834 0.166992 39.501 0.5s22.667 0.833008 30 1.5c2 32 3 64.333 3 97c0 36 -5.33301 65.833 -16 89.5s-25.667 42.334 -45 56.001s-42.666 23.167 -69.999 28.5 s-57.666 8 -90.999 8c-20 0 -40.833 -0.166992 -62.5 -0.5s-41.834 -0.5 -60.501 -0.5s-34.667 -0.166992 -48 -0.5s-22 -0.5 -26 -0.5c-11.333 0 -18 5 -20 15c-0.666992 1.33301 -1 4.83301 -1 10.5v10.5c0 16 1.33301 31.333 4 46s6.5 29.667 11.5 45 s11.333 31.333 19 48s16.834 34.667 27.501 54l75 137c3.33301 5.33301 6.83301 10 10.5 14s9.16699 6 16.5 6h47c5.33301 0 9.16602 -1.16699 11.499 -3.5s3.5 -5.16602 3.5 -8.49902s-1 -7 -3 -11l-94 -178c-11.333 -20.667 -20.833 -41 -28.5 -61 s-11.834 -34.333 -12.501 -43c32.667 1.33301 59.667 2.33301 81 3s40.666 1 57.999 1c98.667 0 172.834 -20.833 222.501 -62.5s74.5 -109.834 74.5 -204.501v-17c0 -9.33301 -0.166992 -20.5 -0.5 -33.5l-1 -39.5c-0.333008 -13.333 -1 -26.166 -2 -38.499 s-1.83301 -22.166 -2.5 -29.499c-2 -12.667 -9.33301 -19.334 -22 -20.001c-10.667 -1.33301 -24 -2.16602 -40 -2.49902s-33.167 -0.833008 -51.5 -1.5s-36.833 -1 -55.5 -1h-52h-383c-9.33301 0 -17.333 1.5 -24 4.5s-10 7.16699 -10 12.5v53z"/>
    <glyph glyph-name="KafFarsiMed" unicode="ک" horiz-adv-x="677" arabic-form="medial" d="M-40 70c0 5.33301 3.33301 9.33398 10 12.001s14.667 4 24 4h524c0.666992 15.333 1.16699 31.666 1.5 48.999s0.5 34 0.5 50c0 36 -5.33301 65.833 -16 89.5s-25.667 42.334 -45 56.001s-42.666 23.167 -69.999 28.5s-57.666 8 -90.999 8 c-20 0 -40.833 -0.166992 -62.5 -0.5s-41.834 -0.5 -60.501 -0.5s-34.667 -0.166992 -48 -0.5s-22 -0.5 -26 -0.5c-11.333 0 -18 5 -20 15c-0.666992 1.33301 -1 4.66602 -1 9.99902v11c0 16 1.33301 31.333 4 46s6.5 29.5 11.5 44.5s11.333 30.833 19 47.5 s16.834 34.667 27.501 54l75 138c3.33301 5.33301 6.83301 10 10.5 14s9.16699 6 16.5 6h47c5.33301 0 9.16602 -1.16699 11.499 -3.5s3.5 -5.16602 3.5 -8.49902s-1 -7 -3 -11l-94 -177c-11.333 -21.333 -20.833 -41.833 -28.5 -61.5s-11.834 -34.167 -12.501 -43.5 c32 1.33301 59 2.33301 81 3s41.667 1 59 1c46.667 0 88.334 -4.66699 125.001 -14s67.667 -24 93 -44s44.666 -45.833 57.999 -77.5s20 -69.834 20 -114.501v-12v-22.5c0 -9 -0.166992 -18.333 -0.5 -28l-1 -28c-0.333008 -9 -0.5 -16.833 -0.5 -23.5h75v-86h-683 c-9.33301 0 -17.333 1.5 -24 4.5s-10 7.16699 -10 12.5v53z"/>
    <glyph glyph-name="GafSep" unicode="گ" horiz-adv-x="918" arabic-form="isolated" d="M45 205c0 6.66699 0.333008 14.9932 1 24.9932s2 19.333 4 28c2 13.333 8.33301 20 19 20h42c12 0 17.333 -6.66699 16 -20c-0.666992 -8.66699 -1 -15.667 -1 -21v-12c0 -27.333 3.83301 -50 11.5 -68s19.5 -32.333 35.5 -43s36.667 -18 62 -22s55.666 -6 90.999 -6h295 h29.5h40.5c14 0 27.333 0.166992 40 0.5s22.667 0.833008 30 1.5c2 32 3 64.333 3 97c0 36 -5.33301 65.833 -16 89.5s-25.667 42.334 -45 56.001s-42.666 23.167 -69.999 28.5s-57.666 8 -90.999 8c-20 0 -39.333 -0.166992 -58 -0.5s-35.5 -0.5 -50.5 -0.5 s-27.833 -0.166992 -38.5 -0.5s-18 -0.5 -22 -0.5c-8.66699 0 -14 4 -16 12c-0.666992 3.33301 -1.16699 6.5 -1.5 9.5s-0.5 5.16699 -0.5 6.5c-0.666992 2.66699 -0.833984 5.33398 -0.500977 8.00098s0.833008 5 1.5 7c2 8.66699 9.33301 24.334 22 47.001l148 276 c3.33301 5.33301 7 10 11 14s9.33301 6 16 6h41c5.33301 0 9 -1.16699 11 -3.5s3 -5.16602 3 -8.49902s-1 -7 -3 -11l-94 -177l-32.5 -60.5l-24.5 -44.5c23.333 1.33301 42.666 2.33301 57.999 3s28.333 1 39 1c49.333 0 92.5 -4.83301 129.5 -14.5s68 -25 93 -46 s43.667 -48.167 56 -81.5s18.5 -73.666 18.5 -120.999v-21c0 -9.33301 -0.166992 -20.5 -0.5 -33.5l-1 -39.5c-0.333008 -13.333 -1 -26.166 -2 -38.499s-1.83301 -22.166 -2.5 -29.499c-2 -12.667 -9.66699 -19.334 -23 -20.001 c-13.333 -1.33301 -28.166 -2.16602 -44.499 -2.49902s-33.166 -0.833008 -50.499 -1.5s-35 -1 -53 -1h-51h-306c-48.667 0 -90 3.66699 -124 11s-61.833 19 -83.5 35s-37.334 37 -47.001 63s-14.5 58 -14.5 96zM309 496.993c-1.33301 6.66699 -1.99902 11.333 -1.99902 14 c0 7.33301 2.33301 15.666 7 24.999l106 196c3.33301 5.33301 6.83301 9.83301 10.5 13.5s8.5 5.5 14.5 5.5h18c5.33301 0 9.16602 -1.16699 11.499 -3.5s3.5 -5.16602 3.5 -8.49902s-1 -7 -3 -11l-139 -259c-2.66699 -4.66699 -6 -7 -10 -7c-6 0 -10 3 -12 9z"/>
    <glyph glyph-name="GafFin" unicode="گ" horiz-adv-x="921" arabic-form="final" d="M45 205c0 6.66699 0.334961 14.998 1.00195 24.998s2 19.333 4 28c2 13.333 8.33301 20 19 20h42c12 0 17.333 -6.66699 16 -20c-0.666992 -8.66699 -1 -15.667 -1 -21v-12c0 -27.333 3.83301 -50 11.5 -68s19.5 -32.333 35.5 -43s36.667 -18 62 -22s55.666 -6 90.999 -6 h435c1.33301 15.333 2.16602 31.666 2.49902 48.999s0.5 33.666 0.5 48.999c0 36.667 -5.33301 66.834 -16 90.501s-25.667 42.334 -45 56.001s-42.666 23.167 -69.999 28.5s-57.666 8 -90.999 8c-20 0 -39.333 -0.166992 -58 -0.5s-35.5 -0.5 -50.5 -0.5 s-27.833 -0.166992 -38.5 -0.5s-18 -0.5 -22 -0.5c-8.66699 0 -14 4 -16 12c-0.666992 3.33301 -1.16699 6.5 -1.5 9.5s-0.5 5.16699 -0.5 6.5c-0.666992 2.66699 -0.833984 5.33398 -0.500977 8.00098s0.833008 5 1.5 7c2 8.66699 9.33301 24.334 22 47.001l148 276 c3.33301 5.33301 7 10 11 14s9.33301 6 16 6h41c5.33301 0 9 -1.16699 11 -3.5s3 -5.16602 3 -8.49902s-1 -7 -3 -11l-94 -177l-32.5 -60.5l-24.5 -44.5c23.333 1.33301 42.666 2.33301 57.999 3s28.333 1 39 1c46.667 0 88.334 -4.66699 125.001 -14s67.667 -24 93 -44 s44.833 -45.833 58.5 -77.5s20.5 -69.834 20.5 -114.501v-12v-22.5c0 -9 -0.166992 -18.333 -0.5 -28l-1 -28c-0.333008 -9 -0.5 -16.833 -0.5 -23.5h75v-86h-607c-48.667 0 -90 3.66699 -124 11s-61.833 19 -83.5 35s-37.334 37 -47.001 63s-14.5 58 -14.5 96z M309.002 496.998c-1.33301 6.66699 -1.99902 11.333 -1.99902 14c0 7.33301 2.33301 15.666 7 24.999l106 196c3.33301 5.33301 6.83301 9.83301 10.5 13.5s8.5 5.5 14.5 5.5h18c5.33301 0 9.16602 -1.16699 11.499 -3.5s3.5 -5.16602 3.5 -8.49902s-1 -7 -3 -11l-139 -259 c-2.66699 -4.66699 -6 -7 -10 -7c-6 0 -10 3 -12 9z"/>
    <glyph glyph-name="GafIni" unicode="گ" horiz-adv-x="723" arabic-form="initial" d="M-6 0c-9.33301 0 -17.3379 1.49512 -24.0049 4.49512s-10 7.16699 -10 12.5v53c0 5.33301 3.33301 9.33301 10 12s14.667 4 24 4h432h29.5h40.5c14 0 27.333 0.166992 40 0.5s22.667 0.833008 30 1.5c2 32 3 64.333 3 97c0 36 -5.33301 65.833 -16 89.5 s-25.667 42.334 -45 56.001s-42.666 23.167 -69.999 28.5s-57.666 8 -90.999 8c-20 0 -40.167 -0.166992 -60.5 -0.5s-39.166 -0.5 -56.499 -0.5s-32.166 -0.166992 -44.499 -0.5s-20.5 -0.5 -24.5 -0.5c-8.66699 0 -14 4 -16 12c-0.666992 3.33301 -1.16699 6.5 -1.5 9.5 s-0.5 5.16699 -0.5 6.5v8c0 2.66699 0.333008 5 1 7c1.33301 4.66699 3.83301 10.834 7.5 18.501s8.5 17.167 14.5 28.5l148 276c3.33301 5.33301 7 10 11 14s9.33301 6 16 6h40c5.33301 0 9.16602 -1.16699 11.499 -3.5s3.5 -5.16602 3.5 -8.49902s-1 -7 -3 -11l-94 -177 l-56 -105c25.333 1.33301 48.333 2.33301 69 3s36 1 46 1c98.667 0 172.5 -20.5 221.5 -61.5s73.5 -108.167 73.5 -201.5v-21c0 -9.33301 -0.166992 -20.666 -0.5 -33.999s-0.833008 -26.666 -1.5 -39.999s-1.5 -26 -2.5 -38s-1.83301 -21.667 -2.5 -29 c-2 -12.667 -9.33301 -19.334 -22 -20.001c-13.333 -1.33301 -28.166 -2.16602 -44.499 -2.49902s-33.166 -0.833008 -50.499 -1.5s-34.833 -1 -52.5 -1h-50.5h-432zM96.9951 496.995c-1.33301 6.66699 -1.99902 11.332 -1.99902 13.999c0 8 2.66699 16.333 8 25l105 196 c3.33301 5.33301 6.83301 9.83301 10.5 13.5s8.83398 5.5 15.501 5.5h17c5.33301 0 9.16602 -1.16699 11.499 -3.5s3.5 -5.16602 3.5 -8.49902s-1 -7 -3 -11l-139 -259c-2.66699 -4.66699 -6 -7 -10 -7c-6.66699 0 -10.334 3 -11.001 9z"/>
    <glyph glyph-name="GafMed" unicode="گ" horiz-adv-x="725" arabic-form="medial" d="M-40 70c0 5.33301 3.3291 9.33301 9.99609 12s14.667 4 24 4h572c1.33301 15.333 2.16602 31.666 2.49902 48.999s0.5 34 0.5 50c0 36 -5.33301 65.833 -16 89.5s-25.667 42.334 -45 56.001s-42.666 23.167 -69.999 28.5s-57.666 8 -90.999 8 c-20 0 -40.167 -0.166992 -60.5 -0.5s-39.166 -0.5 -56.499 -0.5s-32.166 -0.166992 -44.499 -0.5s-20.5 -0.5 -24.5 -0.5c-8.66699 0 -14 4 -16 12c-1.33301 3.33301 -2 6.5 -2 9.5s-0.333008 5.16699 -1 6.5v8c0 2.66699 0.333008 5 1 7 c1.33301 4.66699 3.83301 10.667 7.5 18s8.83398 17 15.501 29l148 276c3.33301 5.33301 7 10 11 14s9.33301 6 16 6h40c5.33301 0 9.16602 -1.16699 11.499 -3.5s3.5 -5.16602 3.5 -8.49902s-1 -7 -3 -11l-94 -177l-57 -105c24.667 1.33301 47.667 2.33301 69 3s37 1 47 1 c46.667 0 88.334 -4.66699 125.001 -14s67.5 -24 92.5 -44s44.167 -45.833 57.5 -77.5s20 -69.834 20 -114.501v-12v-22.5c0 -9 -0.166992 -18.333 -0.5 -28l-1 -28c-0.333008 -9 -0.833008 -16.833 -1.5 -23.5h75v-86h-731c-9.33301 0 -17.333 1.5 -24 4.5 s-10 7.16699 -10 12.5v53zM95.9961 497c-1.33301 6.66699 -2.00098 11.332 -2.00098 13.999c0 8 2.66699 16.333 8 25l105 196c3.33301 5.33301 6.83301 9.83301 10.5 13.5s8.83398 5.5 15.501 5.5h18c5.33301 0 9 -1.16699 11 -3.5s3 -5.16602 3 -8.49902s-1 -7 -3 -11 l-139 -259c-2.66699 -4.66699 -6 -7 -10 -7c-5.33301 0 -9 3 -11 9z"/>
    <glyph glyph-name="NoonGhunnaSep" unicode="ں" horiz-adv-x="625" arabic-form="isolated" d="M127 276c10.667 0 15.665 -6.66602 14.998 -19.999c-0.666992 -8 -1.5 -16.5 -2.5 -25.5s-1.83301 -18 -2.5 -27s-1.16699 -17.5 -1.5 -25.5s-0.5 -14.667 -0.5 -20c0 -34.667 2.5 -66.834 7.5 -96.501s15.667 -55.334 32 -77.001s39.666 -38.667 69.999 -51 s70.833 -18.5 121.5 -18.5c17.333 0 33.166 0.333008 47.499 1s29.833 2.66699 46.5 6c0 18 0.166992 34.167 0.5 48.5s0.5 27.833 0.5 40.5v37v39v298c0 5.33301 1.83301 9.83301 5.5 13.5s7.83398 5.5 12.501 5.5h49c4.66699 0 8.66699 -1.83301 12 -5.5 s5 -8.16699 5 -13.5v-379v-32.5c0 -12.333 -0.166992 -25 -0.5 -38l-1 -38c-0.333008 -12.333 -0.833008 -23.166 -1.5 -32.499c0 -6 -1.66699 -10.5 -5 -13.5s-8.66602 -5.5 -15.999 -7.5c-25.333 -5.33301 -51.166 -9.16602 -77.499 -11.499s-52.833 -3.5 -79.5 -3.5 c-58 0 -106.833 6.5 -146.5 19.5s-71.667 32.167 -96 57.5s-41.833 56.5 -52.5 93.5s-16 79.167 -16 126.5c0 6 0.333008 14.5 1 25.5s1.5 22.833 2.5 35.5s2.16699 25.167 3.5 37.5s3 23.166 5 32.499c1.33301 7.33301 3.33301 12.333 6 15s7.33398 4 14.001 4h42z"/>
    <glyph glyph-name="NoonGhunnaFin" unicode="ں" horiz-adv-x="638" arabic-form="final" d="M127 276c10.667 0 15.668 -6.66602 15.001 -19.999c-0.666992 -8 -1.5 -16.5 -2.5 -25.5s-1.83301 -18 -2.5 -27s-1.16699 -17.5 -1.5 -25.5s-0.5 -14.667 -0.5 -20c0 -34.667 2.5 -66.834 7.5 -96.501s15.667 -55.334 32 -77.001s39.666 -38.667 69.999 -51 s70.833 -18.5 121.5 -18.5c17.333 0 33.166 0.333008 47.499 1s29.833 2.66699 46.5 6c0 18 0.166992 34.167 0.5 48.5s0.5 27.833 0.5 40.5v37v39v298c0 5.33301 1.83301 9.83301 5.5 13.5s7.83398 5.5 12.501 5.5h49c5.33301 0 9.5 -1.83301 12.5 -5.5 s4.5 -8.16699 4.5 -13.5v-299h93v-86h-93v-33.5v-37c0 -12.333 -0.166992 -24.166 -0.5 -35.499s-0.833008 -21 -1.5 -29c0 -10.667 -7 -17.667 -21 -21c-25.333 -5.33301 -51.333 -9.16602 -78 -11.499s-53.334 -3.5 -80.001 -3.5c-58 0 -106.833 6.5 -146.5 19.5 s-71.667 32.167 -96 57.5s-41.833 56.5 -52.5 93.5s-16 79.167 -16 126.5c0 6 0.333008 14.5 1 25.5s1.5 22.833 2.5 35.5s2.16699 25.167 3.5 37.5s3 23.166 5 32.499c1.33301 7.33301 3.33301 12.333 6 15s7.33398 4 14.001 4h42z"/>
    <glyph glyph-name="HehYehAboveSep" unicode="ۀ" horiz-adv-x="540" arabic-form="isolated" d="M64 234c0 70 19.6689 125.329 59.002 165.996s98.666 61 177.999 61c26.667 0 52.667 -1.16699 78 -3.5s46.666 -6.16602 63.999 -11.499c6.66699 -2 10.834 -4.16699 12.501 -6.5s2.5 -6.16602 2.5 -11.499v-265v-30.5c0 -11.667 -0.166992 -23.667 -0.5 -36l-1 -36 c-0.333008 -11.667 -0.833008 -22.167 -1.5 -31.5c0 -7.33301 -2 -12.166 -6 -14.499s-9.33301 -4.16602 -16 -5.49902c-23.333 -4 -45.5 -6.5 -66.5 -7.5s-41.167 -1.5 -60.5 -1.5h-14c-74.667 -0 -131.334 17.333 -170.001 52s-58 87 -58 157v25zM148.002 218.996 c0 -47.333 11.667 -81.667 35 -103s61.333 -32 114 -32c15.333 0 28.333 0.166992 39 0.5s23.334 1.5 38.001 3.5v290c-12.667 1.33301 -25.334 2.33301 -38.001 3s-27.667 1 -45 1c-48 0 -83.833 -12.333 -107.5 -37s-35.5 -60 -35.5 -106v-20zM202.002 566.995 c-12 0 -18.001 4 -18.001 12v17c0 6.66699 6 10 18 10h17c-6 7.33301 -10.333 16.166 -13 26.499s-4 20.5 -4 30.5c0 28 8.16699 48.5 24.5 61.5s39.5 19.5 69.5 19.5c5.33301 0 11.333 -0.333008 18 -1s13.334 -1.66699 20.001 -3c7.33301 -2.66699 11 -6.66699 11 -12v-14 c0 -7.33301 -4.33301 -11 -13 -11c-1.33301 0 -6 0.166992 -14 0.5s-13.667 0.5 -17 0.5c-35.333 0 -53 -15 -53 -45c0 -14 2.33301 -25.5 7 -34.5s9.66699 -14.833 15 -17.5h67c11.333 0 17 -4 17 -12v-16c0 -5.33301 -1.5 -8.66602 -4.5 -9.99902s-7.16699 -2 -12.5 -2 h-135z"/>
    <glyph glyph-name="HehYehAboveFin" unicode="ۀ" horiz-adv-x="551" arabic-form="final" d="M63 242c0 39.333 6.33203 73.001 18.999 101.001s30.5 50.833 53.5 68.5s50.333 30.667 82 39s66.5 12.5 104.5 12.5c8.66699 0 18.667 -0.333008 30 -1s22.5 -1.66699 33.5 -3s21.5 -2.83301 31.5 -4.5s18.667 -3.5 26 -5.5c6.66699 -1.33301 10.834 -3.5 12.501 -6.5 s2.5 -7.16699 2.5 -12.5v-281c0 -26.667 6.33301 -43.834 19 -51.501s29.667 -11.5 51 -11.5h23v-86h-34c-30 -0 -55.167 4.33301 -75.5 13s-35.833 23.667 -46.5 45c-11.333 -14.667 -28.833 -25.167 -52.5 -31.5s-49.5 -9.5 -77.5 -9.5h-9c-62 0 -109.667 17 -143 51 s-50 83.333 -50 148v26zM146.999 227.001c0 -40 8.99805 -71.166 26.998 -93.499s48.667 -33.5 92 -33.5h19c10 0 20.333 0.666992 31 2s20.334 4 29.001 8s15.667 9.5 21 16.5s8 15.833 8 26.5v227c-13.333 1.33301 -25 2.33301 -35 3s-19.333 1 -28 1c-24 0 -46 -2 -66 -6 s-37.167 -11.167 -51.5 -21.5s-25.666 -24.333 -33.999 -42s-12.5 -39.834 -12.5 -66.501v-21zM200.997 567.002c-12 0 -18.001 4 -18.001 12v17c0 6.66699 6 10 18 10h17c-6 7.33301 -10.333 16.166 -13 26.499s-4 20.5 -4 30.5c0 28 8.16699 48.5 24.5 61.5 s39.5 19.5 69.5 19.5c5.33301 0 11.333 -0.333008 18 -1s13.334 -1.66699 20.001 -3c7.33301 -2.66699 11 -6.66699 11 -12v-14c0 -7.33301 -4.33301 -11 -13 -11c-1.33301 0 -6 0.166992 -14 0.5s-13.667 0.5 -17 0.5c-35.333 0 -53 -15 -53 -45 c0 -14 2.33301 -25.5 7 -34.5s9.66699 -14.833 15 -17.5h67c11.333 0 17 -4 17 -12v-16c0 -5.33301 -1.5 -8.66602 -4.5 -9.99902s-7.16699 -2 -12.5 -2h-135z"/>
    <glyph glyph-name="HehGoalSep" unicode="ہ" horiz-adv-x="540" arabic-form="isolated" d="M64 234c0 70 19.6689 125.329 59.002 165.996s98.666 61 177.999 61c26.667 0 52.667 -1.16699 78 -3.5s46.666 -6.16602 63.999 -11.499c6.66699 -2 10.834 -4.16699 12.501 -6.5s2.5 -6.16602 2.5 -11.499v-265v-30.5c0 -11.667 -0.166992 -23.667 -0.5 -36l-1 -36 c-0.333008 -11.667 -0.833008 -22.167 -1.5 -31.5c0 -7.33301 -2 -12.166 -6 -14.499s-9.33301 -4.16602 -16 -5.49902c-23.333 -4 -45.5 -6.5 -66.5 -7.5s-41.167 -1.5 -60.5 -1.5h-14c-74.667 -0 -131.334 17.333 -170.001 52s-58 87 -58 157v25zM148.002 218.996 c0 -47.333 11.667 -81.667 35 -103s61.333 -32 114 -32c15.333 0 28.333 0.166992 39 0.5s23.334 1.5 38.001 3.5v290c-12.667 1.33301 -25.334 2.33301 -38.001 3s-27.667 1 -45 1c-48 0 -83.833 -12.333 -107.5 -37s-35.5 -60 -35.5 -106v-20z"/>
    <glyph glyph-name="HehGoalFin" unicode="ہ" horiz-adv-x="567" arabic-form="final" d="M336 328c25.333 0 48.834 -1.00098 70.501 -3.00098s40.167 -4.66699 55.5 -8c5.33301 -1.33301 10.166 -3.33301 14.499 -6s6.5 -7.66699 6.5 -15v-173c0 -16 3.33301 -26.167 10 -30.5s20.667 -6.5 42 -6.5h32v-86h-52c-42.667 0 -72.667 7.5 -90 22.5 s-26 42.167 -26 81.5v136c-5.33301 1.33301 -13.333 2.5 -24 3.5s-24 1.5 -40 1.5c-37.333 0 -68.333 -4.5 -93 -13.5s-44.167 -23.333 -58.5 -43s-24.333 -45.334 -30 -77.001s-8.5 -70.167 -8.5 -115.5v-61c0 -5.33301 -1.5 -9.66602 -4.5 -12.999s-7.16699 -5 -12.5 -5 h-48c-12 0 -18 6.33301 -18 19c0 2 -0.166992 6.66699 -0.5 14s-0.5 15.333 -0.5 24v24v14c0 56 5.33301 103.833 16 143.5s27.167 72.334 49.5 98.001s50.833 44.5 85.5 56.5s76 18 124 18z"/>
    <glyph glyph-name="HehGoalIni" unicode="ہ" horiz-adv-x="273" arabic-form="initial" d="M105 -257c-11.333 0 -17.9971 7.33301 -19.9971 22c-0.666992 4.66699 -1.33398 11.5 -2.00098 20.5s-1 17.167 -1 24.5c0 22 0.833008 40.5 2.5 55.5s3.83398 29.833 6.50098 44.5c2 16 8.33301 24 19 24h35c4.66699 0 8.66699 -1.16699 12 -3.5 s4.33301 -7.83301 3 -16.5c-2.66699 -20 -4.33398 -37.5 -5.00098 -52.5s-1 -31.833 -1 -50.5c0 -8 0.166992 -16.333 0.5 -25s0.833008 -16.667 1.5 -24c1.33301 -8 0.166016 -13.167 -3.50098 -15.5s-7.83398 -3.5 -12.501 -3.5h-35zM-39.9971 73 c0 4 3.33301 7.16797 10 9.50098s14.667 3.5 24 3.5h70c19.333 0 31.666 1.66699 36.999 5s8 13.666 8 30.999v66v62c0 20.667 -0.166992 42 -0.5 64s-0.833008 46 -1.5 72c0 5.33301 1.5 9.83301 4.5 13.5s7.16699 5.5 12.5 5.5h48c6 0 10.667 -1.83301 14 -5.5 s5 -8.16699 5 -13.5c0.666992 -22.667 1.16699 -41.667 1.5 -57s0.5 -29.833 0.5 -43.5v-42v-51.5c0 -32 -0.166992 -61.667 -0.5 -89s-1.5 -48.666 -3.5 -63.999c-1.33301 -6.66699 -3.5 -12.334 -6.5 -17.001s-8.5 -8.66699 -16.5 -12 c-5.33301 -2 -12.666 -3.5 -21.999 -4.5s-20 -2 -32 -3s-24.333 -1.66699 -37 -2s-24.667 -0.5 -36 -0.5h-45c-9.33301 0 -17.333 1.16699 -24 3.5s-10 5.83301 -10 10.5v59z"/>
    <glyph glyph-name="HehGoalMed" unicode="ہ" horiz-adv-x="576" arabic-form="medial" d="M-40 70c0 5.33301 3.33496 9.33301 10.002 12s14.667 4 24 4h93c0 2 0.166992 7.83301 0.5 17.5s0.666016 20.167 0.999023 31.5s0.5 21.833 0.5 31.5v17.5c0.666992 5.33301 2.66699 9.83301 6 13.5s7.66602 5.5 12.999 5.5h47c5.33301 0 9.5 -1.83301 12.5 -5.5 s4.5 -8.16699 4.5 -13.5v-136c0 -43.333 4.16699 -78.5 12.5 -105.5s19.666 -48.167 33.999 -63.5s31.5 -25.833 51.5 -31.5s41.667 -8.5 65 -8.5c12 0 25.5 0.333008 40.5 1s27.5 1.66699 37.5 3v84c0.666992 50 12.334 89 35.001 117s61 42 115 42h13v-86h-9 c-29.333 -0 -48.833 -7.16699 -58.5 -21.5s-14.5 -36.833 -14.5 -67.5v-125c0 -7.33301 -2 -12.5 -6 -15.5s-8.66699 -5.16699 -14 -6.5c-13.333 -2 -32 -3.83301 -56 -5.5s-52 -2.5 -84 -2.5c-36.667 0 -69.834 4.33301 -99.501 13s-55 22.667 -76 42 s-37.5 44.5 -49.5 75.5s-18.333 68.833 -19 113.5h-97c-9.33301 0 -17.166 1.5 -23.499 4.5s-9.5 7.16699 -9.5 12.5v53z"/>
    <glyph glyph-name="HehDoaSep" unicode="ھ" horiz-adv-x="809" arabic-form="isolated" d="M52 70c0 10.667 6.3291 15.9941 18.9961 15.9941h150c-11.333 11.333 -19.5 26.666 -24.5 45.999s-7.5 39.333 -7.5 60v32c0 53.333 15 95 45 125s73.333 45 130 45s99 -14.5 127 -43.5s42 -71.167 42 -126.5v-32c0 -20 -2.83301 -40 -8.5 -60s-14.5 -35.667 -26.5 -47 h136c4.66699 0 8.83398 0.833008 12.501 2.5s6.5 5.5 8.5 11.5s3.5 14.5 4.5 25.5s1.5 25.5 1.5 43.5v50c0 38.667 -5.5 70.834 -16.5 96.501s-26.5 46.334 -46.5 62.001s-43.833 26.834 -71.5 33.501s-57.834 10 -90.501 10h-39.5c-16.333 0 -29.833 -0.333008 -40.5 -1 c-13.333 -1.33301 -20 3 -20 13v42c0 10.667 6.33301 17.334 19 20.001c16.667 2.66699 32.334 4.16699 47.001 4.5s25.667 0.5 33 0.5c43.333 0 83.833 -4.5 121.5 -13.5s70.5 -24 98.5 -45s50 -48.667 66 -83s24 -76.833 24 -127.5v-50 c0 -21.333 -0.666992 -45.333 -2 -72s-4.66602 -51 -9.99902 -73c-1.33301 -6.66699 -4.66602 -13.167 -9.99902 -19.5s-14 -10.166 -26 -11.499c-9.33301 -1.33301 -22.5 -2.16602 -39.5 -2.49902s-35.167 -0.666016 -54.5 -0.999023s-38.666 -0.5 -57.999 -0.5h-50h-424 c-12.667 0 -19 5.66699 -19 17v53zM266.996 186.994c0 -32 6.33301 -57.833 19 -77.5s37 -29.5 73 -29.5s61 9.83301 75 29.5s21 45.5 21 77.5v34c0 32.667 -6.33301 58.667 -19 78s-36.667 29 -72 29c-36.667 0 -62 -9.66699 -76 -29s-21 -45.333 -21 -78v-34z"/>
    <glyph glyph-name="HehDoaFin" unicode="ھ" horiz-adv-x="662" arabic-form="final" d="M68 0c-5.33301 0 -9.99902 1.49805 -13.999 4.49805s-6 7.16699 -6 12.5v53c0 5.33301 2 9.33301 6 12s8.66699 4 14 4h121v334c0 13.333 7.66699 22 23 26c21.333 6 44 10 68 12s49 3 75 3c35.333 0 67.166 -3.83301 95.499 -11.5s52.333 -19.5 72 -35.5 s34.834 -36.667 45.501 -62s16 -55.333 16 -90v-15c0 -58 -12 -108 -36 -150s-60.333 -69.667 -109 -83c-10 -3.33301 -21.833 -5.83301 -35.5 -7.5s-27.834 -3 -42.501 -4s-29.334 -1.66699 -44.001 -2s-28.334 -0.5 -41.001 -0.5h-3v-25c0 -50 8 -87.167 24 -111.5 s46.333 -36.5 91 -36.5c42.667 0 71.834 11.333 87.501 34s24.167 58.667 25.5 108c0 2.66699 0.166992 6.66699 0.5 12l1 16.5c0.333008 5.66699 0.833008 11.167 1.5 16.5s1.33398 9 2.00098 11c6.66699 24.667 19.667 41.334 39 50.001 c9.33301 4.66699 20.333 7.66699 33 9s26.667 2 42 2h42v-86h-21c-11.333 0 -23 -0.166992 -35 -0.5s-20 -0.833008 -24 -1.5l-1 -37c-2 -69.333 -17.5 -122.166 -46.5 -158.499s-77.5 -54.5 -145.5 -54.5c-38.667 0 -70.834 5 -96.501 15s-46.167 24.5 -61.5 43.5 s-26.166 42 -32.499 69s-9.5 57.5 -9.5 91.5v33h-121zM353.001 85.998c52.667 0 90.334 13.168 113.001 39.501s34 64.166 34 113.499v18c0 24 -3.5 44 -10.5 60s-16.667 28.833 -29 38.5s-27.333 16.5 -45 20.5s-37.5 6 -59.5 6c-16.667 0 -31.334 -0.333008 -44.001 -1 s-25.667 -2 -39 -4v-291h80z"/>
    <glyph glyph-name="HehDoaIni" unicode="ھ" horiz-adv-x="702" arabic-form="initial" d="M-40 70c0 5.33301 3.32812 9.32812 9.99512 11.9951s14.667 4 24 4h119c-11.333 12 -19.333 27 -24 45s-7 38.333 -7 61v32c0 53.333 15 95 45 125s73.333 45 130 45s99 -14.5 127 -43.5s42 -71.167 42 -126.5v-32c0 -22 -2.83301 -42.333 -8.5 -61s-14.5 -34 -26.5 -46 h135c5.33301 0 9.83301 0.833008 13.5 2.5s6.5 5.5 8.5 11.5s3.5 14.5 4.5 25.5s1.5 25.5 1.5 43.5v50c0 38.667 -5.5 70.834 -16.5 96.501s-26.5 46.334 -46.5 62.001s-43.833 26.834 -71.5 33.501s-57.834 10 -90.501 10h-39.5c-16.333 0 -29.833 -0.333008 -40.5 -1 c-13.333 -1.33301 -20 3 -20 13v42c0 10.667 6.33301 17.334 19 20.001c16 2.66699 31.5 4.16699 46.5 4.5s26.167 0.5 33.5 0.5c40.667 0 79.667 -4 117 -12s70.333 -22.333 99 -43s51.5 -48.334 68.5 -83.001s25.5 -78.334 25.5 -131.001v-50 c0 -21.333 -0.666992 -45.333 -2 -72s-4.66602 -51 -9.99902 -73c-1.33301 -6.66699 -4.66602 -13.167 -9.99902 -19.5s-13.666 -10.166 -24.999 -11.499c-9.33301 -1.33301 -22.666 -2.16602 -39.999 -2.49902s-35.666 -0.666016 -54.999 -0.999023 s-38.666 -0.5 -57.999 -0.5h-50h-394c-9.33301 0 -17.333 1.5 -24 4.5s-10 7.16699 -10 12.5v53zM159.995 186.995c0 -31.333 6.5 -57 19.5 -77s37.167 -30 72.5 -30c36 0 61 9.83301 75 29.5s21 45.5 21 77.5v34c0 32.667 -6.33301 58.5 -19 77.5s-37 28.5 -73 28.5 s-61 -9.5 -75 -28.5s-21 -44.833 -21 -77.5v-34z"/>
    <glyph glyph-name="HehDoaMed" unicode="ھ" horiz-adv-x="581" arabic-form="medial" d="M-6 0c-9.33301 0 -17.333 1.16504 -24 3.49805s-10 5.83301 -10 10.5v59c0 4 3.33301 7.16699 10 9.5s14.667 3.5 24 3.5h114v334c0 13.333 7.66699 22 23 26c21.333 6 44 10 68 12s49 3 75 3c70.667 0 126.5 -15.667 167.5 -47s61.5 -82 61.5 -152v-15 c0 -58.667 -11.833 -108.667 -35.5 -150s-60.167 -69 -109.5 -83c-10 -3.33301 -22 -5.83301 -36 -7.5s-28.5 -3 -43.5 -4s-30 -1.66699 -45 -2s-28.833 -0.5 -41.5 -0.5v-25c0 -50 8 -87.167 24 -111.5s46.333 -36.5 91 -36.5c43.333 0 72.666 11.333 87.999 34 s23.666 58.667 24.999 108c0 2.66699 0.166992 6.66699 0.5 12l1 16.5c0.333008 5.66699 0.833008 11.167 1.5 16.5s1.33398 9 2.00098 11c6.66699 24.667 19.667 41.334 39 50.001c9.33301 4.66699 20.333 7.66699 33 9s26.667 2 42 2h42v-86h-21 c-10.667 0 -22.167 -0.166992 -34.5 -0.5s-20.5 -0.833008 -24.5 -1.5l-1 -37c-2 -69.333 -17.667 -122.166 -47 -158.499s-77.666 -54.5 -144.999 -54.5c-38.667 0 -70.834 5 -96.501 15s-46.167 24.5 -61.5 43.5s-26.166 42 -32.499 69s-9.5 57.5 -9.5 91.5v33h-114z M272 85.998c52.667 0 90.333 13.168 113 39.501s34 64.166 34 113.499v18c0 24 -3.5 44 -10.5 60s-16.667 28.833 -29 38.5s-27.333 16.5 -45 20.5s-37.5 6 -59.5 6c-18 0 -33 -0.333008 -45 -1s-24.667 -2 -38 -4v-291h80z"/>
    <glyph glyph-name="YehBarreeSep" unicode="ے" horiz-adv-x="993" arabic-form="isolated" d="M66 91c0 46.667 4.16992 85.166 12.5029 115.499s21.166 58.166 38.499 83.499c14.667 20.667 31.5 37.834 50.5 51.501s40 24.334 63 32.001s47.667 13 74 16s53.833 4.5 82.5 4.5h141c19.333 0 31.5 1.66699 36.5 5s7.5 13.666 7.5 30.999v50.5v27.5v29.5 c0 11.667 -0.333008 30.5 -1 56.5c0 5.33301 1.5 9.83301 4.5 13.5s7.16699 5.5 12.5 5.5h49c5.33301 0 9.66602 -1.83301 12.999 -5.5s5 -8.16699 5 -13.5c1.33301 -24.667 2.16602 -44.167 2.49902 -58.5s0.5 -28.833 0.5 -43.5v-19v-27.5 c0 -10.333 -0.166992 -21 -0.5 -32s-0.833008 -21.667 -1.5 -32s-1.33398 -19.5 -2.00098 -27.5c-1.33301 -6.66699 -3.5 -13 -6.5 -19s-8.5 -10.667 -16.5 -14c-5.33301 -2 -12.833 -3.5 -22.5 -4.5s-20.5 -1.83301 -32.5 -2.5s-24.5 -1.16699 -37.5 -1.5 s-24.833 -0.5 -35.5 -0.5h-126c-31.333 0 -60.666 -2.83301 -87.999 -8.5s-51 -15.5 -71 -29.5s-36 -32.5 -48 -55.5s-18.333 -51.5 -19 -85.5v-16c0 -12 1 -20.167 3 -24.5s7.66699 -6.5 17 -6.5h759c5.33301 0 10 -1.5 14 -4.5s6 -7.16699 6 -12.5v-52 c0 -5.33301 -2 -9.5 -6 -12.5s-8.66699 -4.5 -14 -4.5h-580h-56.5c-23.667 0 -47.667 0.166992 -72 0.5s-46.833 0.833008 -67.5 1.5s-35.334 1.33398 -44.001 2.00098c-19.333 2 -31.666 11.667 -36.999 29c-2.66699 8 -4.5 16.833 -5.5 26.5s-1.5 20.167 -1.5 31.5z"/>
    <glyph glyph-name="YehBarreeFin" unicode="ے" horiz-adv-x="731" arabic-form="final" d="M783 -175l0.000976562 -47.9971c0 -5.33301 -2 -9.5 -6 -12.5s-8.66699 -4.5 -14 -4.5h-495h-52c-20.667 0 -41.5 0.166992 -62.5 0.5s-40.333 0.666016 -58 0.999023s-30.834 0.833008 -39.501 1.5c-10 1.33301 -17.667 4.5 -23 9.5s-9.66602 11.5 -12.999 19.5 s-5.5 18 -6.5 30s-1.5 23.333 -1.5 34c0 38 6.33301 71.833 19 101.5s31.667 54.167 57 73.5c25.333 20 57 34.167 95 42.5s83 12.5 135 12.5h413v-86h-422c-30 0 -57.833 -1.5 -83.5 -4.5s-47.834 -8.83301 -66.501 -17.5s-33.5 -20.834 -44.5 -36.501 s-16.833 -35.834 -17.5 -60.501v-10c0 -11.333 1.16699 -19 3.5 -23s7.83301 -6 16.5 -6h646c5.33301 0 10 -1.5 14 -4.5s6 -7.16699 6 -12.5z"/>
    <glyph glyph-name="YehBarreeHamzaAboveSep" unicode="ۓ" horiz-adv-x="993" arabic-form="isolated" d="M66 91c0 46.667 4.16992 85.166 12.5029 115.499s21.166 58.166 38.499 83.499c14.667 20.667 31.5 37.834 50.5 51.501s40 24.334 63 32.001s47.667 13 74 16s53.833 4.5 82.5 4.5h141c19.333 0 31.5 1.66699 36.5 5s7.5 13.666 7.5 30.999v50.5v27.5v29.5 c0 11.667 -0.333008 30.5 -1 56.5c0 5.33301 1.5 9.83301 4.5 13.5s7.16699 5.5 12.5 5.5h49c5.33301 0 9.66602 -1.83301 12.999 -5.5s5 -8.16699 5 -13.5c1.33301 -24.667 2.16602 -44.167 2.49902 -58.5s0.5 -28.833 0.5 -43.5v-19v-27.5 c0 -10.333 -0.166992 -21 -0.5 -32s-0.833008 -21.667 -1.5 -32s-1.33398 -19.5 -2.00098 -27.5c-1.33301 -6.66699 -3.5 -13 -6.5 -19s-8.5 -10.667 -16.5 -14c-5.33301 -2 -12.833 -3.5 -22.5 -4.5s-20.5 -1.83301 -32.5 -2.5s-24.5 -1.16699 -37.5 -1.5 s-24.833 -0.5 -35.5 -0.5h-126c-31.333 0 -60.666 -2.83301 -87.999 -8.5s-51 -15.5 -71 -29.5s-36 -32.5 -48 -55.5s-18.333 -51.5 -19 -85.5v-16c0 -12 1 -20.167 3 -24.5s7.66699 -6.5 17 -6.5h759c5.33301 0 10 -1.5 14 -4.5s6 -7.16699 6 -12.5v-52 c0 -5.33301 -2 -9.5 -6 -12.5s-8.66699 -4.5 -14 -4.5h-580h-56.5c-23.667 0 -47.667 0.166992 -72 0.5s-46.833 0.833008 -67.5 1.5s-35.334 1.33398 -44.001 2.00098c-19.333 2 -31.666 11.667 -36.999 29c-2.66699 8 -4.5 16.833 -5.5 26.5s-1.5 20.167 -1.5 31.5z M539.003 673.999c-12 0 -18.001 4 -18.001 12v17c0 6.66699 6 10 18 10h17c-6 7.33301 -10.333 16.166 -13 26.499s-4 20.5 -4 30.5c0 28 8.16699 48.5 24.5 61.5s39.5 19.5 69.5 19.5c5.33301 0 11.333 -0.333008 18 -1s13.334 -1.66699 20.001 -3 c7.33301 -2.66699 11 -6.66699 11 -12v-14c0 -7.33301 -4.33301 -11 -13 -11c-1.33301 0 -6 0.166992 -14 0.5s-13.667 0.5 -17 0.5c-35.333 0 -53 -15 -53 -45c0 -14 2.33301 -25.5 7 -34.5s9.66699 -14.833 15 -17.5h67c11.333 0 17 -4 17 -12v-16 c0 -5.33301 -1.5 -8.66602 -4.5 -9.99902s-7.16699 -2 -12.5 -2h-135z"/>
    <glyph glyph-name="YehBarreeHamzaAboveFin" unicode="ۓ" horiz-adv-x="731" arabic-form="final" d="M46 177c-12 0 -18.001 4 -18.001 12v17c0 6.66699 6 10 18 10h17c-6 7.33301 -10.333 16.166 -13 26.499s-4 20.5 -4 30.5c0 28 8.16699 48.5 24.5 61.5s39.5 19.5 69.5 19.5c5.33301 0 11.333 -0.333008 18 -1s13.334 -1.66699 20.001 -3 c7.33301 -2.66699 11 -6.66699 11 -12v-14c0 -7.33301 -4.33301 -11 -13 -11c-1.33301 0 -6 0.166992 -14 0.5s-13.667 0.5 -17 0.5c-35.333 0 -53 -15 -53 -45c0 -14 2.33301 -25.5 7 -34.5s9.66699 -14.833 15 -17.5h67c11.333 0 17 -4 17 -12v-16 c0 -5.33301 -1.5 -8.66602 -4.5 -9.99902s-7.16699 -2 -12.5 -2h-135zM782.999 -175l0.000976562 -47.9971c0 -5.33301 -2 -9.5 -6 -12.5s-8.66699 -4.5 -14 -4.5h-495h-52c-20.667 0 -41.5 0.166992 -62.5 0.5s-40.333 0.666016 -58 0.999023s-30.834 0.833008 -39.501 1.5 c-10 1.33301 -17.667 4.5 -23 9.5s-9.66602 11.5 -12.999 19.5s-5.5 18 -6.5 30s-1.5 23.333 -1.5 34c0 38 6.33301 71.833 19 101.5s31.667 54.167 57 73.5c25.333 20 57 34.167 95 42.5s83 12.5 135 12.5h413v-86h-422c-30 0 -57.833 -1.5 -83.5 -4.5 s-47.834 -8.83301 -66.501 -17.5s-33.5 -20.834 -44.5 -36.501s-16.833 -35.834 -17.5 -60.501v-10c0 -11.333 1.16699 -19 3.5 -23s7.83301 -6 16.5 -6h646c5.33301 0 10 -1.5 14 -4.5s6 -7.16699 6 -12.5z"/>
    <glyph glyph-name="AlefMaqsuraIni" unicode="ى" horiz-adv-x="275" arabic-form="initial" d="M-40 73c0 4 3.33301 7.16797 10 9.50098s14.667 3.5 24 3.5h70c19.333 0 31.666 1.66699 36.999 5s8 13.666 8 30.999v66v62c0 20.667 -0.166992 42 -0.5 64s-0.833008 46 -1.5 72c0 5.33301 1.5 9.83301 4.5 13.5s7.16699 5.5 12.5 5.5h48c6 0 10.667 -1.83301 14 -5.5 s5 -8.16699 5 -13.5c0.666992 -22.667 1.16699 -41.667 1.5 -57s0.5 -29.833 0.5 -43.5v-42v-51.5c0 -32 -0.166992 -61.667 -0.5 -89s-1.5 -48.666 -3.5 -63.999c-1.33301 -6.66699 -3.5 -12.334 -6.5 -17.001s-8.5 -8.66699 -16.5 -12 c-5.33301 -2 -12.666 -3.5 -21.999 -4.5s-20 -2 -32 -3s-24.333 -1.66699 -37 -2s-24.667 -0.5 -36 -0.5h-45c-9.33301 0 -17.333 1.16699 -24 3.5s-10 5.83301 -10 10.5v59z"/>
    <glyph glyph-name="AlefMaqsuraMed" unicode="ى" horiz-adv-x="286" arabic-form="medial" d="M-40 73c0 4 3.33398 7.16797 10.001 9.50098s14.667 3.5 24 3.5h45c6.66699 0 14 0.333008 22 1s15.667 2.16699 23 4.5s13.5 6 18.5 11s7.5 11.833 7.5 20.5v262c0 5.33301 1.83301 9.83301 5.5 13.5s8.16699 5.5 13.5 5.5h46c5.33301 0 9.83301 -1.83301 13.5 -5.5 s5.5 -8.16699 5.5 -13.5v-275c2 -5.33301 6.16699 -9.5 12.5 -12.5s13.333 -5.33301 21 -7s15.5 -2.83398 23.5 -3.50098s15 -1 21 -1h14v-86h-12c-20.667 0 -42.834 2.16699 -66.501 6.5s-43.167 13.166 -58.5 26.499c-16.667 -13.333 -36.5 -22.166 -59.5 -26.499 s-43.833 -6.5 -62.5 -6.5h-33c-9.33301 0 -17.333 1.16699 -24 3.5s-10 5.83301 -10 10.5v59z"/>
    <glyph glyph-name="YehFarsiSep" unicode="ی" horiz-adv-x="928" arabic-form="isolated" d="M128 276c11.333 0 16.6631 -6.66895 15.9961 -20.002c-1.33301 -15.333 -3 -31.833 -5 -49.5s-3 -32.167 -3 -43.5c0 -34 2 -66 6 -96s13.5 -56.5 28.5 -79.5s37.5 -41.167 67.5 -54.5s70.667 -20 122 -20c20 0 39.833 0.5 59.5 1.5s37.167 3.16699 52.5 6.5 c0 18 0.166992 34 0.5 48s0.666016 27.167 0.999023 39.5s0.5 24.333 0.5 36v38.5v110c0 71.333 20.333 122.833 61 154.5s97.334 47.5 170.001 47.5c20.667 0 42.334 -1 65.001 -3s43.334 -5.33301 62.001 -10c5.33301 -1.33301 9.33301 -3.16602 12 -5.49902 s4 -6.5 4 -12.5v-344c0 -5.33301 -1.83301 -10 -5.5 -14s-8.16699 -6 -13.5 -6h-47c-5.33301 0 -9.66602 2 -12.999 6s-5 8.66699 -5 14v291c-14 2 -26 3.33301 -36 4s-21 1 -33 1c-21.333 0 -40.5 -2 -57.5 -6s-31.333 -10.833 -43 -20.5s-20.667 -22.834 -27 -39.501 s-9.5 -37.667 -9.5 -63v-181v-33v-38.5c0 -13 -0.166992 -25.833 -0.5 -38.5s-0.833008 -23.334 -1.5 -32.001c0 -11.333 -7.33301 -18.666 -22 -21.999c-25.333 -4.66699 -53.166 -8 -83.499 -10s-61.5 -3 -93.5 -3c-60 0 -109.333 7 -148 21s-69.5 34.167 -92.5 60.5 s-39 58.333 -48 96s-13.5 79.834 -13.5 126.501c0 6 0.333008 14 1 24s1.5 20.833 2.5 32.5s2.16699 23.334 3.5 35.001s3 22.5 5 32.5c2 12.667 8.33301 19 19 19h42z"/>
    <glyph glyph-name="YehFarsiFin" unicode="ی" horiz-adv-x="939" arabic-form="final" d="M129 276c12 0 17.001 -6.66895 15.001 -20.002l-4.5 -49.5c-1.66699 -17.667 -2.5 -32.167 -2.5 -43.5c0 -34 2 -66 6 -96s13.5 -56.5 28.5 -79.5s37.167 -41.167 66.5 -54.5s69.666 -20 120.999 -20c20 0 40 0.5 60 1.5s37.667 3.16699 53 6.5c0 18 0.166992 34 0.5 48 s0.666016 27.167 0.999023 39.5s0.5 24.333 0.5 36v38.5v109c0 70.667 20.333 122.167 61 154.5s97.334 48.5 170.001 48.5c20.667 0 42 -1 64 -3s42.333 -5.33301 61 -10c5.33301 -1.33301 9.33301 -3.16602 12 -5.49902s4 -6.5 4 -12.5v-241c0 -16 3.5 -26.167 10.5 -30.5 s20.833 -6.5 41.5 -6.5h41v-86h-62c-41.333 0 -70.833 7.5 -88.5 22.5s-26.5 42.167 -26.5 81.5v207c-13.333 2 -24.833 3.33301 -34.5 4s-20.5 1 -32.5 1c-21.333 0 -40.5 -2 -57.5 -6s-31.333 -10.833 -43 -20.5s-20.667 -22.834 -27 -39.501s-9.5 -37.667 -9.5 -63v-181 v-33v-38.5c0 -13 -0.166992 -25.833 -0.5 -38.5s-0.833008 -23.334 -1.5 -32.001c-0.666992 -11.333 -8.33398 -18.666 -23.001 -21.999c-25.333 -4.66699 -53.166 -8 -83.499 -10s-61.5 -3 -93.5 -3c-59.333 0 -108.5 7 -147.5 21s-69.833 34.167 -92.5 60.5 s-38.5 58.333 -47.5 96s-13.5 79.834 -13.5 126.501c0 6 0.333008 14 1 24s1.5 20.833 2.5 32.5s2.16699 23.334 3.5 35.001s3 22.5 5 32.5c2 12.667 8.33301 19 19 19h43z"/>
    <glyph glyph-name="YehFarsiIni" unicode="ی" horiz-adv-x="275" arabic-form="initial" d="M-40 73c0 4 3.33301 7.16797 10 9.50098s14.667 3.5 24 3.5h70c19.333 0 31.666 1.66699 36.999 5s8 13.666 8 30.999v66v62c0 20.667 -0.166992 42 -0.5 64s-0.833008 46 -1.5 72c0 5.33301 1.5 9.83301 4.5 13.5s7.16699 5.5 12.5 5.5h48c6 0 10.667 -1.83301 14 -5.5 s5 -8.16699 5 -13.5c0.666992 -22.667 1.16699 -41.667 1.5 -57s0.5 -29.833 0.5 -43.5v-42v-51.5c0 -32 -0.166992 -61.667 -0.5 -89s-1.5 -48.666 -3.5 -63.999c-1.33301 -6.66699 -3.5 -12.334 -6.5 -17.001s-8.5 -8.66699 -16.5 -12 c-5.33301 -2 -12.666 -3.5 -21.999 -4.5s-20 -2 -32 -3s-24.333 -1.66699 -37 -2s-24.667 -0.5 -36 -0.5h-45c-9.33301 0 -17.333 1.16699 -24 3.5s-10 5.83301 -10 10.5v59zM-36 -114.999c0 6.66699 2.16699 12 6.5 16s9.83301 6 16.5 6h39c6.66699 0 12.167 -2 16.5 -6 s6.5 -9.33301 6.5 -16v-54c0 -5.33301 -2.33301 -10.166 -7 -14.499s-10 -6.5 -16 -6.5h-39c-6.66699 0 -12.167 2.16699 -16.5 6.5s-6.5 9.16602 -6.5 14.499v54zM127 -114.999c0 6.66699 2.5 12 7.5 16s10.5 6 16.5 6h39c6 0 11.333 -2 16 -6s7 -9.33301 7 -16v-54 c0 -5.33301 -2.33301 -10.166 -7 -14.499s-10 -6.5 -16 -6.5h-39c-6 0 -11.5 2.16699 -16.5 6.5s-7.5 9.16602 -7.5 14.499v54z"/>
    <glyph glyph-name="YehFarsiMed" unicode="ی" horiz-adv-x="286" arabic-form="medial" d="M-40 73c0 4 3.33398 7.16797 10.001 9.50098s14.667 3.5 24 3.5h45c6.66699 0 14 0.333008 22 1s15.667 2.16699 23 4.5s13.5 6 18.5 11s7.5 11.833 7.5 20.5v262c0 5.33301 1.83301 9.83301 5.5 13.5s8.16699 5.5 13.5 5.5h46c5.33301 0 9.83301 -1.83301 13.5 -5.5 s5.5 -8.16699 5.5 -13.5v-275c2 -5.33301 6.16699 -9.5 12.5 -12.5s13.333 -5.33301 21 -7s15.5 -2.83398 23.5 -3.50098s15 -1 21 -1h14v-86h-12c-20.667 0 -42.834 2.16699 -66.501 6.5s-43.167 13.166 -58.5 26.499c-16.667 -13.333 -36.5 -22.166 -59.5 -26.499 s-43.833 -6.5 -62.5 -6.5h-33c-9.33301 0 -17.333 1.16699 -24 3.5s-10 5.83301 -10 10.5v59zM13.001 -114.999c0 6.66699 2.16699 12 6.5 16s9.83301 6 16.5 6h39c6.66699 0 12.167 -2 16.5 -6s6.5 -9.33301 6.5 -16v-54c0 -5.33301 -2.33301 -10.166 -7 -14.499 s-10 -6.5 -16 -6.5h-39c-6.66699 0 -12.167 2.16699 -16.5 6.5s-6.5 9.16602 -6.5 14.499v54zM176.001 -114.999c0 6.66699 2.5 12 7.5 16s10.5 6 16.5 6h39c6 0 11.333 -2 16 -6s7 -9.33301 7 -16v-54c0 -5.33301 -2.33301 -10.166 -7 -14.499s-10 -6.5 -16 -6.5h-39 c-6 0 -11.5 2.16699 -16.5 6.5s-7.5 9.16602 -7.5 14.499v54z"/>
    <glyph glyph-name="ShaddaDammatanNS" unicode="ﱞ" horiz-adv-x="0" arabic-form="isolated" d="M-54 768c-22 0 -36.9971 6.33398 -44.9971 19.001s-12 29.334 -12 50.001v14.5c0 4.33301 0.333008 9.16602 1 14.499c1.33301 9.33301 5.66602 14 12.999 14h12c9.33301 0 13.333 -4.66699 12 -14c-0.666992 -6.66699 -1 -12.334 -1 -17.001v-15 c0 -21.333 8.66699 -32 26 -32h3c4 0 9.33301 1.5 16 4.5s10 10.167 10 21.5v37c0 3.33301 1.16699 6.5 3.5 9.5s5.5 4.5 9.5 4.5h12c4 0 7.16699 -1.5 9.5 -4.5s3.5 -6.16699 3.5 -9.5v-37c0 -11.333 3.33301 -18.5 10 -21.5s11.667 -4.5 15 -4.5h4 c7.33301 0 13.5 2.5 18.5 7.5s7.5 13.5 7.5 25.5v15c0 4.66699 -0.333008 10.334 -1 17.001c-0.666992 3.33301 0.166016 6.5 2.49902 9.5s5.5 4.5 9.5 4.5h12c7.33301 0 11.666 -4.66699 12.999 -14c0.666992 -6 1 -11.167 1 -15.5v-14.5 c0 -20.667 -4.5 -37.334 -13.5 -50.001s-24.833 -19 -47.5 -19h-4c-8.66699 0 -17 1.5 -25 4.5s-14.333 8.16699 -19 15.5h-3c-5.33301 -7.33301 -12.333 -12.5 -21 -15.5s-17.667 -4.5 -27 -4.5h-5zM-132.997 993.001c0 7.33301 6 11.001 18 11.001h28 c5.33301 0 8.83301 -1 10.5 -3s2.83398 -4.33301 3.50098 -7c1.33301 -5.33301 2.33301 -10 3 -14s2 -8 4 -12c2 -5.33301 5.33301 -9.5 10 -12.5s12.667 -4.5 24 -4.5h11c-1.33301 5.33301 -2 10.333 -2 15v13c0 19.333 6.5 35.166 19.5 47.499s30.167 18.5 51.5 18.5 s38.166 -5.5 50.499 -16.5s18.5 -26.167 18.5 -45.5c0 -20.667 -6.33301 -36.667 -19 -48s-35.667 -17 -69 -17h-59c-23.333 0 -40.5 4 -51.5 12s-18.5 21.667 -22.5 41h-11c-12 0 -18 3.66699 -18 11v11zM41.0029 951.002c14 0 23.833 2.99805 29.5 8.99805 s8.5 13.667 8.5 23c0 10 -3 17.333 -9 22s-13.333 7 -22 7c-9.33301 0 -17.333 -2.66699 -24 -8s-10 -14.666 -10 -27.999c0 -4.66699 0.333008 -9.16699 1 -13.5s1.66699 -8.16602 3 -11.499h23z"/>
    <glyph glyph-name="ShaddaKasratanNS" unicode="ﱟ" horiz-adv-x="0" arabic-form="isolated" d="M-54 925c-22 0 -36.9971 6.33398 -44.9971 19.001s-12 29.334 -12 50.001v14.5c0 4.33301 0.333008 9.16602 1 14.499c1.33301 9.33301 5.66602 14 12.999 14h12c9.33301 0 13.333 -4.66699 12 -14c-0.666992 -6.66699 -1 -12.334 -1 -17.001v-15 c0 -21.333 8.66699 -32 26 -32h3c4 0 9.33301 1.5 16 4.5s10 10.167 10 21.5v37c0 3.33301 1.16699 6.5 3.5 9.5s5.5 4.5 9.5 4.5h12c4 0 7.16699 -1.5 9.5 -4.5s3.5 -6.16699 3.5 -9.5v-37c0 -11.333 3.33301 -18.5 10 -21.5s11.667 -4.5 15 -4.5h4 c7.33301 0 13.5 2.5 18.5 7.5s7.5 13.5 7.5 25.5v15c0 4.66699 -0.333008 10.334 -1 17.001c-0.666992 3.33301 0.166016 6.5 2.49902 9.5s5.5 4.5 9.5 4.5h12c7.33301 0 11.666 -4.66699 12.999 -14c0.666992 -6 1 -11.167 1 -15.5v-14.5 c0 -20.667 -4.5 -37.334 -13.5 -50.001s-24.833 -19 -47.5 -19h-4c-8.66699 0 -17 1.5 -25 4.5s-14.333 8.16699 -19 15.5h-3c-5.33301 -7.33301 -12.333 -12.5 -21 -15.5s-17.667 -4.5 -27 -4.5h-5zM-113.997 798.001c0 5.33301 1.66797 8.5 5.00098 9.5 s7.66602 1.5 12.999 1.5h191c12.667 0 19 -3.66699 19 -11v-12c0 -5.33301 -1.66699 -8.5 -5 -9.5s-8 -1.5 -14 -1.5h-191c-12 0 -18 3.66699 -18 11v12zM-113.996 875.001c0 5.33301 1.66797 8.49902 5.00098 9.49902s7.66602 1.5 12.999 1.5h191 c12.667 0 19 -3.66699 19 -11v-11c0 -5.33301 -1.66699 -8.66602 -5 -9.99902s-8 -2 -14 -2h-191c-12 0 -18 4 -18 12v11z"/>
    <glyph glyph-name="ShaddaFathaNS" unicode="ﱠ" horiz-adv-x="0" arabic-form="isolated" d="M-54 768c-22 0 -36.9971 6.33398 -44.9971 19.001s-12 29.334 -12 50.001v14.5c0 4.33301 0.333008 9.16602 1 14.499c1.33301 9.33301 5.66602 14 12.999 14h12c9.33301 0 13.333 -4.66699 12 -14c-0.666992 -6.66699 -1 -12.334 -1 -17.001v-15 c0 -21.333 8.66699 -32 26 -32h3c4 0 9.33301 1.5 16 4.5s10 10.167 10 21.5v37c0 3.33301 1.16699 6.5 3.5 9.5s5.5 4.5 9.5 4.5h12c4 0 7.16699 -1.5 9.5 -4.5s3.5 -6.16699 3.5 -9.5v-37c0 -11.333 3.33301 -18.5 10 -21.5s11.667 -4.5 15 -4.5h4 c7.33301 0 13.5 2.5 18.5 7.5s7.5 13.5 7.5 25.5v15c0 4.66699 -0.333008 10.334 -1 17.001c-0.666992 3.33301 0.166016 6.5 2.49902 9.5s5.5 4.5 9.5 4.5h12c7.33301 0 11.666 -4.66699 12.999 -14c0.666992 -6 1 -11.167 1 -15.5v-14.5 c0 -20.667 -4.5 -37.334 -13.5 -50.001s-24.833 -19 -47.5 -19h-4c-8.66699 0 -17 1.5 -25 4.5s-14.333 8.16699 -19 15.5h-3c-5.33301 -7.33301 -12.333 -12.5 -21 -15.5s-17.667 -4.5 -27 -4.5h-5zM-113.997 942.001c0 7.33301 6 11 18 11h191 c12.667 0 19 -3.66699 19 -11v-12c0 -5.33301 -1.66699 -8.5 -5 -9.5s-8 -1.5 -14 -1.5h-191c-12 0 -18 3.66699 -18 11v12z"/>
    <glyph glyph-name="ShaddaDammaNS" unicode="ﱡ" horiz-adv-x="0" arabic-form="isolated" d="M-54 768c-22 0 -36.9971 6.33398 -44.9971 19.001s-12 29.334 -12 50.001v14.5c0 4.33301 0.333008 9.16602 1 14.499c1.33301 9.33301 5.66602 14 12.999 14h12c9.33301 0 13.333 -4.66699 12 -14c-0.666992 -6.66699 -1 -12.334 -1 -17.001v-15 c0 -21.333 8.66699 -32 26 -32h3c4 0 9.33301 1.5 16 4.5s10 10.167 10 21.5v37c0 3.33301 1.16699 6.5 3.5 9.5s5.5 4.5 9.5 4.5h12c4 0 7.16699 -1.5 9.5 -4.5s3.5 -6.16699 3.5 -9.5v-37c0 -11.333 3.33301 -18.5 10 -21.5s11.667 -4.5 15 -4.5h4 c7.33301 0 13.5 2.5 18.5 7.5s7.5 13.5 7.5 25.5v15c0 4.66699 -0.333008 10.334 -1 17.001c-0.666992 3.33301 0.166016 6.5 2.49902 9.5s5.5 4.5 9.5 4.5h12c7.33301 0 11.666 -4.66699 12.999 -14c0.666992 -6 1 -11.167 1 -15.5v-14.5 c0 -20.667 -4.5 -37.334 -13.5 -50.001s-24.833 -19 -47.5 -19h-4c-8.66699 0 -17 1.5 -25 4.5s-14.333 8.16699 -19 15.5h-3c-5.33301 -7.33301 -12.333 -12.5 -21 -15.5s-17.667 -4.5 -27 -4.5h-5zM-116.997 940.001c0 5.33301 1.66797 8.50098 5.00098 9.50098 s8 1.5 14 1.5h78c-1.33301 5.33301 -2 10.333 -2 15v13c0 19.333 6.33301 35.166 19 47.499s29.667 18.5 51 18.5s38.166 -5.5 50.499 -16.5s18.5 -26.167 18.5 -45.5c0 -20.667 -6.33301 -36.667 -19 -48s-35.667 -17 -69 -17h-127c-12.667 0 -19 3.66699 -19 11v11z M40.0039 951.002c14.667 0 25 2.99902 31 8.99902s9 13.667 9 23c0 10 -3.16699 17.333 -9.5 22s-13.5 7 -21.5 7c-9.33301 0 -17.333 -2.66699 -24 -8s-10 -14.666 -10 -27.999c0 -10.667 1 -19 3 -25h22z"/>
    <glyph glyph-name="ShaddaKasraNS" unicode="ﱢ" horiz-adv-x="0" arabic-form="isolated" d="M-54 851c-22 0 -36.9971 6.33398 -44.9971 19.001s-12 29.334 -12 50.001v14.5c0 4.33301 0.333008 9.16602 1 14.499c1.33301 9.33301 5.66602 14 12.999 14h12c9.33301 0 13.333 -4.66699 12 -14c-0.666992 -6.66699 -1 -12.334 -1 -17.001v-15 c0 -21.333 8.66699 -32 26 -32h3c4 0 9.33301 1.5 16 4.5s10 10.167 10 21.5v37c0 3.33301 1.16699 6.5 3.5 9.5s5.5 4.5 9.5 4.5h12c4 0 7.16699 -1.5 9.5 -4.5s3.5 -6.16699 3.5 -9.5v-37c0 -11.333 3.33301 -18.5 10 -21.5s11.667 -4.5 15 -4.5h4 c7.33301 0 13.5 2.5 18.5 7.5s7.5 13.5 7.5 25.5v15c0 4.66699 -0.333008 10.334 -1 17.001c-0.666992 3.33301 0.166016 6.5 2.49902 9.5s5.5 4.5 9.5 4.5h12c7.33301 0 11.666 -4.66699 12.999 -14c0.666992 -6 1 -11.167 1 -15.5v-14.5 c0 -20.667 -4.5 -37.334 -13.5 -50.001s-24.833 -19 -47.5 -19h-4c-8.66699 0 -17 1.5 -25 4.5s-14.333 8.16699 -19 15.5h-3c-5.33301 -7.33301 -12.333 -12.5 -21 -15.5s-17.667 -4.5 -27 -4.5h-5zM-113.997 800.001c0 5.33301 1.66797 8.49902 5.00098 9.49902 s7.66602 1.5 12.999 1.5h191c12.667 0 19 -3.66699 19 -11v-11c0 -5.33301 -1.66699 -8.66602 -5 -9.99902s-8 -2 -14 -2h-191c-12 0 -18 4 -18 12v11z"/>
    <glyph glyph-name="ShaddaSmallAlefAboveNS" unicode="ﱣ" horiz-adv-x="0" arabic-form="isolated" d="M-20 1018c0 9.33301 4.33301 14 13 14h14c8.66699 0 13 -4.66699 13 -14v-88c0 -3.33301 -1.16699 -6.5 -3.5 -9.5s-5.5 -4.5 -9.5 -4.5h-14c-4 0 -7.16699 1.5 -9.5 4.5s-3.5 6.16699 -3.5 9.5v88zM-54 768c-22 0 -36.9971 6.16797 -44.9971 18.501s-12 28.833 -12 49.5 v15c0 4.66699 0.333008 9.66699 1 15c1.33301 9.33301 5.66602 14 12.999 14h12c9.33301 0 13.333 -4.66699 12 -14c-0.666992 -6.66699 -1 -12.334 -1 -17.001v-15c0 -21.333 8.66699 -32 26 -32h3c4 0 9.33301 1.33301 16 4s10 9.66699 10 21v37c0 4 1.16699 7.5 3.5 10.5 s5.5 4.5 9.5 4.5h12c4 0 7.16699 -1.5 9.5 -4.5s3.5 -6.5 3.5 -10.5v-37c0 -11.333 3.33301 -18.333 10 -21s11.667 -4 15 -4h4c7.33301 0 13.5 2.5 18.5 7.5s7.5 13.5 7.5 25.5v15c0 4.66699 -0.333008 10.334 -1 17.001c-0.666992 3.33301 0.166016 6.5 2.49902 9.5 s5.5 4.5 9.5 4.5h12c7.33301 0 11.666 -4.66699 12.999 -14c0.666992 -6.66699 1 -12 1 -16v-14c0 -20.667 -4.5 -37.334 -13.5 -50.001s-24.833 -19 -47.5 -19h-4c-8.66699 0 -17 1.33301 -25 4s-14.333 7.66699 -19 15h-3c-5.33301 -7.33301 -12.333 -12.333 -21 -15 s-17.667 -4 -27 -4h-5z"/>
    <glyph glyph-name="HamzaSep" unicode="ء" horiz-adv-x="436" arabic-form="isolated" d="M60 17c-12 0 -18.001 5.00098 -18.001 15.001v41c0 10.667 6 16 18 16h52c-11.333 11.333 -20.166 28 -26.499 50s-9.5 45 -9.5 69c0 32 4.66699 59.167 14 81.5s22.166 40.5 38.499 54.5s35.833 24.167 58.5 30.5s47.334 9.5 74.001 9.5c14.667 0 28 -0.5 40 -1.5 s24.667 -2.83301 38 -5.5c12 -2 18 -7.66699 18 -17v-35c0 -10.667 -6 -15.334 -18 -14.001c-29.333 2 -50.333 3 -63 3c-44 0 -76 -8.5 -96 -25.5s-30 -45.5 -30 -85.5c0 -59.333 16.667 -97.333 50 -114h162c11.333 0 17 -5.33301 17 -16v-41c0 -10 -5.66699 -15 -17 -15 h-302z"/>
    <glyph glyph-name="AlefMaddaSep" unicode="آ" horiz-adv-x="266" arabic-form="isolated" d="M-6 812c-8.66699 0 -12.999 3.66797 -12.999 11.001c0.666992 8 2.5 16.167 5.5 24.5s6.83301 15.5 11.5 21.5c8.66699 11.333 18 18.666 28 21.999s20 5 30 5c11.333 0 22.666 -2 33.999 -6l38 -14c9.33301 -3.33301 18.833 -6.16602 28.5 -8.49902s19.5 -3.5 29.5 -3.5 c13.333 0 24.5 1.33301 33.5 4s16.833 5.66699 23.5 9c7.33301 3.33301 13.666 6.33301 18.999 9s9.66602 4 12.999 4c6 0 9 -3 9 -9v-23c0 -6.66699 -3 -12.334 -9 -17.001c-9.33301 -7.33301 -22.166 -13.5 -38.499 -18.5s-33.833 -7.5 -52.5 -7.5 c-15.333 0 -29.666 1.5 -42.999 4.5s-31.666 9.5 -54.999 19.5c-6.66699 3.33301 -12.334 5.5 -17.001 6.5s-8.66699 1.5 -12 1.5c-5.33301 0 -9.83301 -1.33301 -13.5 -4s-6.16699 -5.66699 -7.5 -9l-5 -10c-4 -8 -9 -12 -15 -12h-22zM90.001 732.001 c0 5.33301 1.83301 10 5.5 14s8.16699 6 13.5 6h49c5.33301 0 9.66602 -2 12.999 -6s5 -8.66699 5 -14v-712c0 -5.33301 -1.66699 -10 -5 -14s-7.66602 -6 -12.999 -6h-49c-5.33301 0 -9.83301 2 -13.5 6s-5.5 8.66699 -5.5 14v712z"/>
    <glyph glyph-name="AlefMaddaFin" unicode="آ" horiz-adv-x="268" arabic-form="final" d="M-11 819c-8.66699 0 -12.999 3.66797 -12.999 11.001c0.666992 8 2.5 16.167 5.5 24.5s6.83301 15.5 11.5 21.5c8.66699 11.333 18 18.666 28 21.999s20 5 30 5c11.333 0 22.666 -2 33.999 -6l38 -14c9.33301 -3.33301 18.833 -6.16602 28.5 -8.49902 s19.5 -3.5 29.5 -3.5c13.333 0 24.5 1.33301 33.5 4s16.833 5.66699 23.5 9c7.33301 3.33301 13.666 6.33301 18.999 9s9.66602 4 12.999 4c6 0 9 -3 9 -9v-23c0 -6.66699 -3 -12.334 -9 -17.001c-9.33301 -7.33301 -22.166 -13.5 -38.499 -18.5s-33.833 -7.5 -52.5 -7.5 c-15.333 0 -29.666 1.5 -42.999 4.5s-31.666 9.5 -54.999 19.5c-6.66699 3.33301 -12.334 5.5 -17.001 6.5s-8.66699 1.5 -12 1.5c-5.33301 0 -9.83301 -1.33301 -13.5 -4s-6.16699 -5.66699 -7.5 -9l-5 -10c-4 -8 -9 -12 -15 -12h-22zM90.001 732.001 c0 5.33301 1.83398 9.99902 5.50098 13.999s8.16699 6 13.5 6h49c5.33301 0 9.66602 -2 12.999 -6s5 -8.66699 5 -14v-587c0 -13.333 1.5 -23.833 4.5 -31.5s7.33301 -13.5 13 -17.5s12.667 -6.66699 21 -8s17.833 -2 28.5 -2h25v-86h-47c-21.333 -0 -40 1.83301 -56 5.5 s-29.667 10.334 -41 20.001s-19.833 22.5 -25.5 38.5s-8.5 36.667 -8.5 62v606z"/>
    <glyph glyph-name="AlefHamzaAboveSep" unicode="أ" horiz-adv-x="266" arabic-form="isolated" d="M60 773c-12 0 -18.001 4 -18.001 12v17c0 6.66699 6 10 18 10h17c-6 7.33301 -10.333 16.166 -13 26.499s-4 20.5 -4 30.5c0 28 8.16699 48.5 24.5 61.5s39.5 19.5 69.5 19.5c5.33301 0 11.333 -0.333008 18 -1s13.334 -1.66699 20.001 -3 c7.33301 -2.66699 11 -6.66699 11 -12v-14c0 -7.33301 -4.33301 -11 -13 -11c-1.33301 0 -6 0.166992 -14 0.5s-13.667 0.5 -17 0.5c-35.333 0 -53 -15 -53 -45c0 -14 2.33301 -25.5 7 -34.5s9.66699 -14.833 15 -17.5h67c11.333 0 17 -4 17 -12v-16 c0 -5.33301 -1.5 -8.66602 -4.5 -9.99902s-7.16699 -2 -12.5 -2h-135zM89.999 679c0 5.33301 1.83301 10 5.5 14s8.16699 6 13.5 6h49c5.33301 0 9.66602 -2 12.999 -6s5 -8.66699 5 -14v-659c0 -5.33301 -1.66699 -10 -5 -14s-7.66602 -6 -12.999 -6h-49 c-5.33301 0 -9.83301 2 -13.5 6s-5.5 8.66699 -5.5 14v659z"/>
    <glyph glyph-name="AlefHamzaAboveFin" unicode="أ" horiz-adv-x="268" arabic-form="final" d="M90 679c0 5.33301 1.83398 9.99902 5.50098 13.999s8.16699 6 13.5 6h49c5.33301 0 9.66602 -2 12.999 -6s5 -8.66699 5 -14v-534c0 -13.333 1.5 -23.833 4.5 -31.5s7.33301 -13.5 13 -17.5s12.667 -6.66699 21 -8s17.833 -2 28.5 -2h25v-86h-47 c-21.333 0 -40 1.83301 -56 5.5s-29.667 10.334 -41 20.001s-19.833 22.5 -25.5 38.5s-8.5 36.667 -8.5 62v553zM59.001 772.999c-12 0 -18.001 4 -18.001 12v17c0 6.66699 6 10 18 10h17c-6 7.33301 -10.333 16.166 -13 26.499s-4 20.5 -4 30.5 c0 28 8.16699 48.5 24.5 61.5s39.5 19.5 69.5 19.5c5.33301 0 11.333 -0.333008 18 -1s13.334 -1.66699 20.001 -3c7.33301 -2.66699 11 -6.66699 11 -12v-14c0 -7.33301 -4.33301 -11 -13 -11c-1.33301 0 -6 0.166992 -14 0.5s-13.667 0.5 -17 0.5 c-35.333 0 -53 -15 -53 -45c0 -14 2.33301 -25.5 7 -34.5s9.66699 -14.833 15 -17.5h67c11.333 0 17 -4 17 -12v-16c0 -5.33301 -1.5 -8.66602 -4.5 -9.99902s-7.16699 -2 -12.5 -2h-135z"/>
    <glyph glyph-name="WawHamzaAboveSep" unicode="ؤ" horiz-adv-x="539" arabic-form="isolated" d="M375 378c-13.333 1.33301 -26.333 2.33301 -39 3s-27.667 1 -45 1c-44 0 -78.833 -12.333 -104.5 -37s-38.5 -60 -38.5 -106v-20c0 -47.333 10 -81.666 30 -102.999s54 -32 102 -32c26 0 48.333 1.66699 67 5s28 12.666 28 27.999v261zM99 -168 c0 9.33301 5.33203 13.999 15.999 13.999c11.333 0 25.666 -0.166992 42.999 -0.5s31.333 -0.5 42 -0.5c26.667 0 50.667 1.5 72 4.5s39.5 8.66699 54.5 17s26.667 20 35 35s12.5 34.5 12.5 58.5v59c-4.66699 -4 -11.5 -7.16699 -20.5 -9.5s-19 -4.33301 -30 -6 s-21.833 -2.66699 -32.5 -3s-20 -0.5 -28 -0.5c-60.667 0 -109 17.333 -145 52s-54 87 -54 157v25c0 70 20.667 125.333 62 166s100 61 176 61c26.667 0 52.5 -1.16699 77.5 -3.5s46.167 -6.16602 63.5 -11.499c6.66699 -2 11 -4.16699 13 -6.5s3 -6.16602 3 -11.499v-453 c0 -41.333 -6 -75.333 -18 -102s-28.667 -47.834 -50 -63.501s-46.666 -26.667 -75.999 -33s-61.666 -9.5 -96.999 -9.5c-6.66699 0 -15.167 0.166992 -25.5 0.5l-31 1c-10.333 0.333008 -19.833 0.833008 -28.5 1.5s-14.667 1.33398 -18 2.00098 c-6.66699 1.33301 -11 3.16602 -13 5.49902s-3 5.83301 -3 10.5v44zM198.999 566.999c-12 0 -18.001 4 -18.001 12v17c0 6.66699 6 10 18 10h17c-6 7.33301 -10.333 16.166 -13 26.499s-4 20.5 -4 30.5c0 28 8.16699 48.5 24.5 61.5s39.5 19.5 69.5 19.5 c5.33301 0 11.333 -0.333008 18 -1s13.334 -1.66699 20.001 -3c7.33301 -2.66699 11 -6.66699 11 -12v-14c0 -7.33301 -4.33301 -11 -13 -11c-1.33301 0 -6 0.166992 -14 0.5s-13.667 0.5 -17 0.5c-35.333 0 -53 -15 -53 -45c0 -14 2.33301 -25.5 7 -34.5 s9.66699 -14.833 15 -17.5h67c11.333 0 17 -4 17 -12v-16c0 -5.33301 -1.5 -8.66602 -4.5 -9.99902s-7.16699 -2 -12.5 -2h-135z"/>
    <glyph glyph-name="WawHamzaAboveFin" unicode="ؤ" horiz-adv-x="545" arabic-form="final" d="M99 -168c0 9.33301 5.33398 13.998 16.001 13.998c11.333 0 25.666 -0.166992 42.999 -0.5s31.333 -0.5 42 -0.5c26.667 0 50.5 1.5 71.5 4.5s39 8.66699 54 17s26.5 20 34.5 35s12.333 34.5 13 58.5v40h-100c-67.333 0 -119 17.333 -155 52s-54 87 -54 157v25 c0 70 20.667 125.333 62 166s100 61 176 61c26.667 0 52.5 -1.16699 77.5 -3.5s46.167 -6.16602 63.5 -11.499c6 -2 10 -4.16699 12 -6.5s3 -6.16602 3 -11.499v-342h87v-86h-88v-38c-1.33301 -37.333 -8 -68.5 -20 -93.5s-28.333 -45 -49 -60s-45.5 -25.667 -74.5 -32 s-60.833 -9.5 -95.5 -9.5c-6.66699 0 -15.167 0.166992 -25.5 0.5l-31 1c-10.333 0.333008 -19.833 0.833008 -28.5 1.5s-14.667 1.33398 -18 2.00098c-6.66699 1.33301 -11 3.16602 -13 5.49902s-3 5.83301 -3 10.5v44zM148.001 218.998 c0 -47.333 10.001 -81.667 30.001 -103s52.333 -32 97 -32h99v294c-13.333 1.33301 -26.333 2.33301 -39 3s-27.334 1 -44.001 1c-44 0 -78.833 -12.333 -104.5 -37s-38.5 -60 -38.5 -106v-20zM199.002 566.997c-12 0 -18.001 4 -18.001 12v17c0 6.66699 6 10 18 10h17 c-6 7.33301 -10.333 16.166 -13 26.499s-4 20.5 -4 30.5c0 28 8.16699 48.5 24.5 61.5s39.5 19.5 69.5 19.5c5.33301 0 11.333 -0.333008 18 -1s13.334 -1.66699 20.001 -3c7.33301 -2.66699 11 -6.66699 11 -12v-14c0 -7.33301 -4.33301 -11 -13 -11 c-1.33301 0 -6 0.166992 -14 0.5s-13.667 0.5 -17 0.5c-35.333 0 -53 -15 -53 -45c0 -14 2.33301 -25.5 7 -34.5s9.66699 -14.833 15 -17.5h67c11.333 0 17 -4 17 -12v-16c0 -5.33301 -1.5 -8.66602 -4.5 -9.99902s-7.16699 -2 -12.5 -2h-135z"/>
    <glyph glyph-name="AlefHamzaBelowSep" unicode="إ" horiz-adv-x="266" arabic-form="isolated" d="M90 732c0 5.33301 1.83301 10 5.5 14s8.16699 6 13.5 6h49c5.33301 0 9.66602 -2 12.999 -6s5 -8.66699 5 -14v-712c0 -5.33301 -1.66699 -10 -5 -14s-7.66602 -6 -12.999 -6h-49c-5.33301 0 -9.83301 2 -13.5 6s-5.5 8.66699 -5.5 14v712zM57 -243 c-12 0 -18.001 4 -18.001 12v17c0 6.66699 6 10 18 10h17c-6 7.33301 -10.333 16.166 -13 26.499s-4 20.5 -4 30.5c0 28 8.16699 48.5 24.5 61.5s39.5 19.5 69.5 19.5c5.33301 0 11.333 -0.333008 18 -1s13.334 -1.66699 20.001 -3c7.33301 -2.66699 11 -6.66699 11 -12v-14 c0 -7.33301 -4.33301 -11 -13 -11c-1.33301 0 -6 0.166992 -14 0.5s-13.667 0.5 -17 0.5c-35.333 0 -53 -15 -53 -45c0 -14 2.33301 -25.5 7 -34.5s9.66699 -14.833 15 -17.5h67c11.333 0 17 -4 17 -12v-16c0 -5.33301 -1.5 -8.66602 -4.5 -9.99902s-7.16699 -2 -12.5 -2 h-135z"/>
    <glyph glyph-name="AlefHamzaBelowFin" unicode="إ" horiz-adv-x="268" arabic-form="final" d="M71 -243c-12 0 -18.001 4 -18.001 12v17c0 6.66699 6 10 18 10h17c-6 7.33301 -10.333 16.166 -13 26.499s-4 20.5 -4 30.5c0 28 8.16699 48.5 24.5 61.5s39.5 19.5 69.5 19.5c5.33301 0 11.333 -0.333008 18 -1s13.334 -1.66699 20.001 -3 c7.33301 -2.66699 11 -6.66699 11 -12v-14c0 -7.33301 -4.33301 -11 -13 -11c-1.33301 0 -6 0.166992 -14 0.5s-13.667 0.5 -17 0.5c-35.333 0 -53 -15 -53 -45c0 -14 2.33301 -25.5 7 -34.5s9.66699 -14.833 15 -17.5h67c11.333 0 17 -4 17 -12v-16 c0 -5.33301 -1.5 -8.66602 -4.5 -9.99902s-7.16699 -2 -12.5 -2h-135zM89.999 732c0 5.33301 1.83398 9.99902 5.50098 13.999s8.16699 6 13.5 6h49c5.33301 0 9.66602 -2 12.999 -6s5 -8.66699 5 -14v-587c0 -13.333 1.5 -23.833 4.5 -31.5s7.33301 -13.5 13 -17.5 s12.667 -6.66699 21 -8s17.833 -2 28.5 -2h25v-86h-47c-21.333 0 -40 1.83301 -56 5.5s-29.667 10.334 -41 20.001s-19.833 22.5 -25.5 38.5s-8.5 36.667 -8.5 62v606z"/>
    <glyph glyph-name="YehHamzaAboveSep" unicode="ئ" horiz-adv-x="928" arabic-form="isolated" d="M128 276c11.333 0 16.6631 -6.66895 15.9961 -20.002c-1.33301 -15.333 -3 -31.833 -5 -49.5s-3 -32.167 -3 -43.5c0 -34 2 -66 6 -96s13.5 -56.5 28.5 -79.5s37.5 -41.167 67.5 -54.5s70.667 -20 122 -20c20 0 39.833 0.5 59.5 1.5s37.167 3.16699 52.5 6.5 c0 18 0.166992 34 0.5 48s0.666016 27.167 0.999023 39.5s0.5 24.333 0.5 36v38.5v110c0 71.333 20.333 122.833 61 154.5s97.334 47.5 170.001 47.5c20.667 0 42.334 -1 65.001 -3s43.334 -5.33301 62.001 -10c5.33301 -1.33301 9.33301 -3.16602 12 -5.49902 s4 -6.5 4 -12.5v-344c0 -5.33301 -1.83301 -10 -5.5 -14s-8.16699 -6 -13.5 -6h-47c-5.33301 0 -9.66602 2 -12.999 6s-5 8.66699 -5 14v291c-14 2 -26 3.33301 -36 4s-21 1 -33 1c-21.333 0 -40.5 -2 -57.5 -6s-31.333 -10.833 -43 -20.5s-20.667 -22.834 -27 -39.501 s-9.5 -37.667 -9.5 -63v-181v-33v-38.5c0 -13 -0.166992 -25.833 -0.5 -38.5s-0.833008 -23.334 -1.5 -32.001c0 -11.333 -7.33301 -18.666 -22 -21.999c-25.333 -4.66699 -53.166 -8 -83.499 -10s-61.5 -3 -93.5 -3c-60 0 -109.333 7 -148 21s-69.5 34.167 -92.5 60.5 s-39 58.333 -48 96s-13.5 79.834 -13.5 126.501c0 6 0.333008 14 1 24s1.5 20.833 2.5 32.5s2.16699 23.334 3.5 35.001s3 22.5 5 32.5c2 12.667 8.33301 19 19 19h42zM50.9971 383.998c-12 0 -18.001 4 -18.001 12v17c0 6.66699 6 10 18 10h17 c-6 7.33301 -10.333 16.166 -13 26.499s-4 20.5 -4 30.5c0 28 8.16699 48.5 24.5 61.5s39.5 19.5 69.5 19.5c5.33301 0 11.333 -0.333008 18 -1s13.334 -1.66699 20.001 -3c7.33301 -2.66699 11 -6.66699 11 -12v-14c0 -7.33301 -4.33301 -11 -13 -11 c-1.33301 0 -6 0.166992 -14 0.5s-13.667 0.5 -17 0.5c-35.333 0 -53 -15 -53 -45c0 -14 2.33301 -25.5 7 -34.5s9.66699 -14.833 15 -17.5h67c11.333 0 17 -4 17 -12v-16c0 -5.33301 -1.5 -8.66602 -4.5 -9.99902s-7.16699 -2 -12.5 -2h-135z"/>
    <glyph glyph-name="YehHamzaAboveFin" unicode="ئ" horiz-adv-x="939" arabic-form="final" d="M51 384c-12 0 -18.001 4 -18.001 12v17c0 6.66699 6 10 18 10h17c-6 7.33301 -10.333 16.166 -13 26.499s-4 20.5 -4 30.5c0 28 8.16699 48.5 24.5 61.5s39.5 19.5 69.5 19.5c5.33301 0 11.333 -0.333008 18 -1s13.334 -1.66699 20.001 -3 c7.33301 -2.66699 11 -6.66699 11 -12v-14c0 -7.33301 -4.33301 -11 -13 -11c-1.33301 0 -6 0.166992 -14 0.5s-13.667 0.5 -17 0.5c-35.333 0 -53 -15 -53 -45c0 -14 2.33301 -25.5 7 -34.5s9.66699 -14.833 15 -17.5h67c11.333 0 17 -4 17 -12v-16 c0 -5.33301 -1.5 -8.66602 -4.5 -9.99902s-7.16699 -2 -12.5 -2h-135zM128.999 276c12 0 17.001 -6.66895 15.001 -20.002l-4.5 -49.5c-1.66699 -17.667 -2.5 -32.167 -2.5 -43.5c0 -34 2 -66 6 -96s13.5 -56.5 28.5 -79.5s37.167 -41.167 66.5 -54.5 s69.666 -20 120.999 -20c20 0 40 0.5 60 1.5s37.667 3.16699 53 6.5c0 18 0.166992 34 0.5 48s0.666016 27.167 0.999023 39.5s0.5 24.333 0.5 36v38.5v109c0 70.667 20.333 122.167 61 154.5s97.334 48.5 170.001 48.5c20.667 0 42 -1 64 -3s42.333 -5.33301 61 -10 c5.33301 -1.33301 9.33301 -3.16602 12 -5.49902s4 -6.5 4 -12.5v-241c0 -16 3.5 -26.167 10.5 -30.5s20.833 -6.5 41.5 -6.5h41v-86h-62c-41.333 0 -70.833 7.5 -88.5 22.5s-26.5 42.167 -26.5 81.5v207c-13.333 2 -24.833 3.33301 -34.5 4s-20.5 1 -32.5 1 c-21.333 0 -40.5 -2 -57.5 -6s-31.333 -10.833 -43 -20.5s-20.667 -22.834 -27 -39.501s-9.5 -37.667 -9.5 -63v-181v-33v-38.5c0 -13 -0.166992 -25.833 -0.5 -38.5s-0.833008 -23.334 -1.5 -32.001c-0.666992 -11.333 -8.33398 -18.666 -23.001 -21.999 c-25.333 -4.66699 -53.166 -8 -83.499 -10s-61.5 -3 -93.5 -3c-59.333 0 -108.5 7 -147.5 21s-69.833 34.167 -92.5 60.5s-38.5 58.333 -47.5 96s-13.5 79.834 -13.5 126.501c0 6 0.333008 14 1 24s1.5 20.833 2.5 32.5s2.16699 23.334 3.5 35.001s3 22.5 5 32.5 c2 12.667 8.33301 19 19 19h43z"/>
    <glyph glyph-name="YehHamzaAboveIni" unicode="ئ" horiz-adv-x="275" arabic-form="initial" d="M-40 73c0 4 3.33301 7.16797 10 9.50098s14.667 3.5 24 3.5h70c19.333 0 31.666 1.66699 36.999 5s8 13.666 8 30.999v66v62c0 20.667 -0.166992 42 -0.5 64s-0.833008 46 -1.5 72c0 5.33301 1.5 9.83301 4.5 13.5s7.16699 5.5 12.5 5.5h48c6 0 10.667 -1.83301 14 -5.5 s5 -8.16699 5 -13.5c0.666992 -22.667 1.16699 -41.667 1.5 -57s0.5 -29.833 0.5 -43.5v-42v-51.5c0 -32 -0.166992 -61.667 -0.5 -89s-1.5 -48.666 -3.5 -63.999c-1.33301 -6.66699 -3.5 -12.334 -6.5 -17.001s-8.5 -8.66699 -16.5 -12 c-5.33301 -2 -12.666 -3.5 -21.999 -4.5s-20 -2 -32 -3s-24.333 -1.66699 -37 -2s-24.667 -0.5 -36 -0.5h-45c-9.33301 0 -17.333 1.16699 -24 3.5s-10 5.83301 -10 10.5v59zM73 528.001c-12 0 -18.001 4 -18.001 12v17c0 6.66699 6 10 18 10h17 c-6 7.33301 -10.333 16.166 -13 26.499s-4 20.5 -4 30.5c0 28 8.16699 48.5 24.5 61.5s39.5 19.5 69.5 19.5c5.33301 0 11.333 -0.333008 18 -1s13.334 -1.66699 20.001 -3c7.33301 -2.66699 11 -6.66699 11 -12v-14c0 -7.33301 -4.33301 -11 -13 -11 c-1.33301 0 -6 0.166992 -14 0.5s-13.667 0.5 -17 0.5c-35.333 0 -53 -15 -53 -45c0 -14 2.33301 -25.5 7 -34.5s9.66699 -14.833 15 -17.5h67c11.333 0 17 -4 17 -12v-16c0 -5.33301 -1.5 -8.66602 -4.5 -9.99902s-7.16699 -2 -12.5 -2h-135z"/>
    <glyph glyph-name="YehHamzaAboveMed" unicode="ئ" horiz-adv-x="286" arabic-form="medial" d="M-40 73c0 4 3.33398 7.16797 10.001 9.50098s14.667 3.5 24 3.5h45c6.66699 0 14 0.333008 22 1s15.667 2.16699 23 4.5s13.5 6 18.5 11s7.5 11.833 7.5 20.5v262c0 5.33301 1.83301 9.83301 5.5 13.5s8.16699 5.5 13.5 5.5h46c5.33301 0 9.83301 -1.83301 13.5 -5.5 s5.5 -8.16699 5.5 -13.5v-275c2 -5.33301 6.16699 -9.5 12.5 -12.5s13.333 -5.33301 21 -7s15.5 -2.83398 23.5 -3.50098s15 -1 21 -1h14v-86h-12c-20.667 0 -42.834 2.16699 -66.501 6.5s-43.167 13.166 -58.5 26.499c-16.667 -13.333 -36.5 -22.166 -59.5 -26.499 s-43.833 -6.5 -62.5 -6.5h-33c-9.33301 0 -17.333 1.16699 -24 3.5s-10 5.83301 -10 10.5v59zM75.001 528.001c-12 0 -18.001 4 -18.001 12v17c0 6.66699 6 10 18 10h17c-6 7.33301 -10.333 16.166 -13 26.499s-4 20.5 -4 30.5c0 28 8.16699 48.5 24.5 61.5 s39.5 19.5 69.5 19.5c5.33301 0 11.333 -0.333008 18 -1s13.334 -1.66699 20.001 -3c7.33301 -2.66699 11 -6.66699 11 -12v-14c0 -7.33301 -4.33301 -11 -13 -11c-1.33301 0 -6 0.166992 -14 0.5s-13.667 0.5 -17 0.5c-35.333 0 -53 -15 -53 -45 c0 -14 2.33301 -25.5 7 -34.5s9.66699 -14.833 15 -17.5h67c11.333 0 17 -4 17 -12v-16c0 -5.33301 -1.5 -8.66602 -4.5 -9.99902s-7.16699 -2 -12.5 -2h-135z"/>
    <glyph glyph-name="AlefSep" unicode="ا" horiz-adv-x="266" arabic-form="isolated" d="M90 732c0 5.33301 1.83301 10 5.5 14s8.16699 6 13.5 6h49c5.33301 0 9.66602 -2 12.999 -6s5 -8.66699 5 -14v-712c0 -5.33301 -1.66699 -10 -5 -14s-7.66602 -6 -12.999 -6h-49c-5.33301 0 -9.83301 2 -13.5 6s-5.5 8.66699 -5.5 14v712z"/>
    <glyph glyph-name="AlefFin" unicode="ا" horiz-adv-x="268" arabic-form="final" d="M90 732c0 5.33301 1.83398 9.99902 5.50098 13.999s8.16699 6 13.5 6h49c5.33301 0 9.66602 -2 12.999 -6s5 -8.66699 5 -14v-587c0 -13.333 1.5 -23.833 4.5 -31.5s7.33301 -13.5 13 -17.5s12.667 -6.66699 21 -8s17.833 -2 28.5 -2h25v-86h-47 c-21.333 0 -40 1.83301 -56 5.5s-29.667 10.334 -41 20.001s-19.833 22.5 -25.5 38.5s-8.5 36.667 -8.5 62v606z"/>
    <glyph glyph-name="BehSep" unicode="ب" horiz-adv-x="891" arabic-form="isolated" d="M389 -115c0 6.66699 2.33301 12 7 16s10 6 16 6h43c6 0 11.333 -2 16 -6s7 -9.33301 7 -16v-54c0 -5.33301 -2.33301 -10.166 -7 -14.499s-10 -6.5 -16 -6.5h-43c-6 0 -11.333 2.16699 -16 6.5s-7 9.16602 -7 14.499v54zM683 86c18.667 0 30.665 1.66602 35.998 4.99902 s8 13.666 8 30.999v66v62c0 20.667 -0.166992 41.834 -0.5 63.501s-0.833008 45.5 -1.5 71.5c0 5.33301 1.66699 9.83301 5 13.5s7.66602 5.5 12.999 5.5h47c6 0 10.667 -1.83301 14 -5.5s5 -8.16699 5 -13.5c0.666992 -22.667 1.16699 -41.667 1.5 -57 s0.5 -29.666 0.5 -42.999v-41.5v-51.5c0 -32 -0.166992 -61.667 -0.5 -89s-1.5 -48.666 -3.5 -63.999c-1.33301 -6.66699 -3.5 -12.334 -6.5 -17.001s-8.5 -8.66699 -16.5 -12c-5.33301 -2 -14.166 -3.5 -26.499 -4.5s-26.666 -2 -42.999 -3s-34 -1.66699 -53 -2 s-37.833 -0.5 -56.5 -0.5h-234c-64 0 -116.5 6.16699 -157.5 18.5s-73.333 30 -97 53s-40 51 -49 84s-13.5 69.833 -13.5 110.5c0 14 0.5 28.5 1.5 43.5s3.16699 32.167 6.5 51.5c2 12.667 8.66699 19 20 19h42c11.333 0 16.333 -6.66699 15 -20 c-1.33301 -15.333 -2.33301 -28.333 -3 -39s-1 -21.667 -1 -33c0 -30 2.66699 -57.333 8 -82s16.5 -46 33.5 -64s41.333 -31.833 73 -41.5s73.834 -14.5 126.501 -14.5h307z"/>
    <glyph glyph-name="BehFin" unicode="ب" horiz-adv-x="905" arabic-form="final" d="M389 -115c0 6.66699 2.33301 12 7 16s10 6 16 6h43c6 0 11.333 -2 16 -6s7 -9.33301 7 -16v-54c0 -5.33301 -2.33301 -10.166 -7 -14.499s-10 -6.5 -16 -6.5h-43c-6 0 -11.333 2.16699 -16 6.5s-7 9.16602 -7 14.499v54zM658 86c6 0 13.166 0.333984 21.499 1.00098 s16 2.16699 23 4.5s13 6 18 11s7.5 11.833 7.5 20.5v262c0 5.33301 1.83301 9.83301 5.5 13.5s8.16699 5.5 13.5 5.5h47c5.33301 0 9.66602 -1.83301 12.999 -5.5s5 -8.16699 5 -13.5v-275c2 -5.33301 6.16699 -9.5 12.5 -12.5s13.333 -5.33301 21 -7 s15.5 -2.83398 23.5 -3.50098s14.667 -1 20 -1h16v-86h-11c-9.33301 -0 -19.5 0.333008 -30.5 1s-22.167 2.33398 -33.5 5.00098s-22.333 6 -33 10s-19.667 9.66699 -27 17c-17.333 -14.667 -39.166 -23.834 -65.499 -27.501s-53.5 -5.5 -81.5 -5.5h-252 c-64 0 -116.5 6.16699 -157.5 18.5s-73.333 30 -97 53s-40 51 -49 84s-13.5 69.833 -13.5 110.5c0 14 0.5 28.5 1.5 43.5s3.16699 32.167 6.5 51.5c2 12.667 8.66699 19 20 19h42c11.333 0 16.333 -6.66699 15 -20c-1.33301 -15.333 -2.33301 -28.333 -3 -39 s-1 -21.667 -1 -33c0 -30 2.66699 -57.333 8 -82s16.5 -46 33.5 -64s41.333 -31.833 73 -41.5s73.834 -14.5 126.501 -14.5h282z"/>
    <glyph glyph-name="BehIni" unicode="ب" horiz-adv-x="275" arabic-form="initial" d="M29 -115c0 6.66699 2.33301 12 7 16s10 6 16 6h43c6 0 11.333 -2 16 -6s7 -9.33301 7 -16v-54c0 -5.33301 -2.33301 -10.166 -7 -14.499s-10 -6.5 -16 -6.5h-43c-6 0 -11.333 2.16699 -16 6.5s-7 9.16602 -7 14.499v54zM-40 73c0 4 3.33301 7.16797 10 9.50098 s14.667 3.5 24 3.5h70c19.333 0 31.666 1.66699 36.999 5s8 13.666 8 30.999v66v62c0 20.667 -0.166992 42 -0.5 64s-0.833008 46 -1.5 72c0 5.33301 1.5 9.83301 4.5 13.5s7.16699 5.5 12.5 5.5h48c6 0 10.667 -1.83301 14 -5.5s5 -8.16699 5 -13.5 c0.666992 -22.667 1.16699 -41.667 1.5 -57s0.5 -29.833 0.5 -43.5v-42v-51.5c0 -32 -0.166992 -61.667 -0.5 -89s-1.5 -48.666 -3.5 -63.999c-1.33301 -6.66699 -3.5 -12.334 -6.5 -17.001s-8.5 -8.66699 -16.5 -12c-5.33301 -2 -12.666 -3.5 -21.999 -4.5s-20 -2 -32 -3 s-24.333 -1.66699 -37 -2s-24.667 -0.5 -36 -0.5h-45c-9.33301 0 -17.333 1.16699 -24 3.5s-10 5.83301 -10 10.5v59z"/>
    <glyph glyph-name="BehMed" unicode="ب" horiz-adv-x="286" arabic-form="medial" d="M-40 73c0 4 3.33398 7.16797 10.001 9.50098s14.667 3.5 24 3.5h45c6.66699 0 14 0.333008 22 1s15.667 2.16699 23 4.5s13.5 6 18.5 11s7.5 11.833 7.5 20.5v262c0 5.33301 1.83301 9.83301 5.5 13.5s8.16699 5.5 13.5 5.5h46c5.33301 0 9.83301 -1.83301 13.5 -5.5 s5.5 -8.16699 5.5 -13.5v-275c2 -5.33301 6.16699 -9.5 12.5 -12.5s13.333 -5.33301 21 -7s15.5 -2.83398 23.5 -3.50098s15 -1 21 -1h14v-86h-12c-20.667 0 -42.834 2.16699 -66.501 6.5s-43.167 13.166 -58.5 26.499c-16.667 -13.333 -36.5 -22.166 -59.5 -26.499 s-43.833 -6.5 -62.5 -6.5h-33c-9.33301 0 -17.333 1.16699 -24 3.5s-10 5.83301 -10 10.5v59zM102.001 -114.999c0 6.66699 2.33301 12 7 16s10 6 16 6h43c6 0 11.333 -2 16 -6s7 -9.33301 7 -16v-54c0 -5.33301 -2.33301 -10.166 -7 -14.499s-10 -6.5 -16 -6.5h-43 c-6 0 -11.333 2.16699 -16 6.5s-7 9.16602 -7 14.499v54z"/>
    <glyph glyph-name="TehMarbutaSep" unicode="ة" horiz-adv-x="540" arabic-form="isolated" d="M150 648c0 6.66699 2.16699 12 6.5 16s9.83301 6 16.5 6h39c6.66699 0 12.167 -2 16.5 -6s6.5 -9.33301 6.5 -16v-54c0 -6 -2.33301 -11 -7 -15s-10 -6 -16 -6h-39c-6.66699 0 -12.167 2 -16.5 6s-6.5 9 -6.5 15v54zM313 648c0 6.66699 2.5 12 7.5 16s10.5 6 16.5 6h39 c6 0 11.333 -2 16 -6s7 -9.33301 7 -16v-54c0 -6 -2.33301 -11 -7 -15s-10 -6 -16 -6h-39c-6 0 -11.5 2 -16.5 6s-7.5 9 -7.5 15v54zM64 234c0 70 19.6689 125.329 59.002 165.996s98.666 61 177.999 61c26.667 0 52.667 -1.16699 78 -3.5s46.666 -6.16602 63.999 -11.499 c6.66699 -2 10.834 -4.16699 12.501 -6.5s2.5 -6.16602 2.5 -11.499v-265v-30.5c0 -11.667 -0.166992 -23.667 -0.5 -36l-1 -36c-0.333008 -11.667 -0.833008 -22.167 -1.5 -31.5c0 -7.33301 -2 -12.166 -6 -14.499s-9.33301 -4.16602 -16 -5.49902 c-23.333 -4 -45.5 -6.5 -66.5 -7.5s-41.167 -1.5 -60.5 -1.5h-14c-74.667 -0 -131.334 17.333 -170.001 52s-58 87 -58 157v25zM148.002 218.996c0 -47.333 11.667 -81.667 35 -103s61.333 -32 114 -32c15.333 0 28.333 0.166992 39 0.5s23.334 1.5 38.001 3.5v290 c-12.667 1.33301 -25.334 2.33301 -38.001 3s-27.667 1 -45 1c-48 0 -83.833 -12.333 -107.5 -37s-35.5 -60 -35.5 -106v-20z"/>
    <glyph glyph-name="TehMarbutaFin" unicode="ة" horiz-adv-x="551" arabic-form="final" d="M63 242c0 39.333 6.33203 73.001 18.999 101.001s30.5 50.833 53.5 68.5s50.333 30.667 82 39s66.5 12.5 104.5 12.5c8.66699 0 18.667 -0.333008 30 -1s22.5 -1.66699 33.5 -3s21.5 -2.83301 31.5 -4.5s18.667 -3.5 26 -5.5c6.66699 -1.33301 10.834 -3.5 12.501 -6.5 s2.5 -7.16699 2.5 -12.5v-281c0 -26.667 6.33301 -43.834 19 -51.501s29.667 -11.5 51 -11.5h23v-86h-34c-30 -0 -55.167 4.33301 -75.5 13s-35.833 23.667 -46.5 45c-11.333 -14.667 -28.833 -25.167 -52.5 -31.5s-49.5 -9.5 -77.5 -9.5h-9c-62 0 -109.667 17 -143 51 s-50 83.333 -50 148v26zM146.999 227.001c0 -40 8.99805 -71.166 26.998 -93.499s48.667 -33.5 92 -33.5h19c10 0 20.333 0.666992 31 2s20.334 4 29.001 8s15.667 9.5 21 16.5s8 15.833 8 26.5v227c-13.333 1.33301 -25 2.33301 -35 3s-19.333 1 -28 1c-24 0 -46 -2 -66 -6 s-37.167 -11.167 -51.5 -21.5s-25.666 -24.333 -33.999 -42s-12.5 -39.834 -12.5 -66.501v-21zM148.997 648.002c0 6.66699 2.16699 12 6.5 16s9.83301 6 16.5 6h39c6.66699 0 12.167 -2 16.5 -6s6.5 -9.33301 6.5 -16v-54c0 -6 -2.33301 -11 -7 -15s-10 -6 -16 -6h-39 c-6.66699 0 -12.167 2 -16.5 6s-6.5 9 -6.5 15v54zM311.997 648.002c0 6.66699 2.5 12 7.5 16s10.5 6 16.5 6h39c6 0 11.333 -2 16 -6s7 -9.33301 7 -16v-54c0 -6 -2.33301 -11 -7 -15s-10 -6 -16 -6h-39c-6 0 -11.5 2 -16.5 6s-7.5 9 -7.5 15v54z"/>
    <glyph glyph-name="TehSep" unicode="ت" horiz-adv-x="891" arabic-form="isolated" d="M309 553c0 6.66699 2.16699 12 6.5 16s9.83301 6 16.5 6h39c6.66699 0 12.167 -2 16.5 -6s6.5 -9.33301 6.5 -16v-54c0 -6 -2.33301 -11 -7 -15s-10 -6 -16 -6h-39c-6.66699 0 -12.167 2 -16.5 6s-6.5 9 -6.5 15v54zM472 553c0 6.66699 2.5 12 7.5 16s10.5 6 16.5 6h39 c6 0 11.333 -2 16 -6s7 -9.33301 7 -16v-54c0 -6 -2.33301 -11 -7 -15s-10 -6 -16 -6h-39c-6 0 -11.5 2 -16.5 6s-7.5 9 -7.5 15v54zM683 86c18.667 0 30.665 1.66602 35.998 4.99902s8 13.666 8 30.999v66v62c0 20.667 -0.166992 41.834 -0.5 63.501 s-0.833008 45.5 -1.5 71.5c0 5.33301 1.66699 9.83301 5 13.5s7.66602 5.5 12.999 5.5h47c6 0 10.667 -1.83301 14 -5.5s5 -8.16699 5 -13.5c0.666992 -22.667 1.16699 -41.667 1.5 -57s0.5 -29.666 0.5 -42.999v-41.5v-51.5c0 -32 -0.166992 -61.667 -0.5 -89 s-1.5 -48.666 -3.5 -63.999c-1.33301 -6.66699 -3.5 -12.334 -6.5 -17.001s-8.5 -8.66699 -16.5 -12c-5.33301 -2 -14.166 -3.5 -26.499 -4.5s-26.666 -2 -42.999 -3s-34 -1.66699 -53 -2s-37.833 -0.5 -56.5 -0.5h-234c-64 0 -116.5 6.16699 -157.5 18.5s-73.333 30 -97 53 s-40 51 -49 84s-13.5 69.833 -13.5 110.5c0 14 0.5 28.5 1.5 43.5s3.16699 32.167 6.5 51.5c2 12.667 8.66699 19 20 19h42c11.333 0 16.333 -6.66699 15 -20c-1.33301 -15.333 -2.33301 -28.333 -3 -39s-1 -21.667 -1 -33c0 -30 2.66699 -57.333 8 -82s16.5 -46 33.5 -64 s41.333 -31.833 73 -41.5s73.834 -14.5 126.501 -14.5h307z"/>
    <glyph glyph-name="TehFin" unicode="ت" horiz-adv-x="905" arabic-form="final" d="M313 553c0 6.66699 2.16699 12 6.5 16s9.83301 6 16.5 6h39c6.66699 0 12.167 -2 16.5 -6s6.5 -9.33301 6.5 -16v-54c0 -6 -2.33301 -11 -7 -15s-10 -6 -16 -6h-39c-6.66699 0 -12.167 2 -16.5 6s-6.5 9 -6.5 15v54zM476 553c0 6.66699 2.5 12 7.5 16s10.5 6 16.5 6h39 c6 0 11.333 -2 16 -6s7 -9.33301 7 -16v-54c0 -6 -2.33301 -11 -7 -15s-10 -6 -16 -6h-39c-6 0 -11.5 2 -16.5 6s-7.5 9 -7.5 15v54zM658 86c6 0 13.166 0.333984 21.499 1.00098s16 2.16699 23 4.5s13 6 18 11s7.5 11.833 7.5 20.5v262c0 5.33301 1.83301 9.83301 5.5 13.5 s8.16699 5.5 13.5 5.5h47c5.33301 0 9.66602 -1.83301 12.999 -5.5s5 -8.16699 5 -13.5v-275c2 -5.33301 6.16699 -9.5 12.5 -12.5s13.333 -5.33301 21 -7s15.5 -2.83398 23.5 -3.50098s14.667 -1 20 -1h16v-86h-11c-9.33301 -0 -19.5 0.333008 -30.5 1 s-22.167 2.33398 -33.5 5.00098s-22.333 6 -33 10s-19.667 9.66699 -27 17c-17.333 -14.667 -39.166 -23.834 -65.499 -27.501s-53.5 -5.5 -81.5 -5.5h-252c-64 0 -116.5 6.16699 -157.5 18.5s-73.333 30 -97 53s-40 51 -49 84s-13.5 69.833 -13.5 110.5 c0 14 0.5 28.5 1.5 43.5s3.16699 32.167 6.5 51.5c2 12.667 8.66699 19 20 19h42c11.333 0 16.333 -6.66699 15 -20c-1.33301 -15.333 -2.33301 -28.333 -3 -39s-1 -21.667 -1 -33c0 -30 2.66699 -57.333 8 -82s16.5 -46 33.5 -64s41.333 -31.833 73 -41.5 s73.834 -14.5 126.501 -14.5h282z"/>
    <glyph glyph-name="TehIni" unicode="ت" horiz-adv-x="275" arabic-form="initial" d="M20 609c0 6.66699 2.16699 12 6.5 16s9.83301 6 16.5 6h39c6.66699 0 12.167 -2 16.5 -6s6.5 -9.33301 6.5 -16v-54c0 -6 -2.33301 -11 -7 -15s-10 -6 -16 -6h-39c-6.66699 0 -12.167 2 -16.5 6s-6.5 9 -6.5 15v54zM183 609c0 6.66699 2.5 12 7.5 16s10.5 6 16.5 6h39 c6 0 11.333 -2 16 -6s7 -9.33301 7 -16v-54c0 -6 -2.33301 -11 -7 -15s-10 -6 -16 -6h-39c-6 0 -11.5 2 -16.5 6s-7.5 9 -7.5 15v54zM-40 73c0 4 3.33301 7.16797 10 9.50098s14.667 3.5 24 3.5h70c19.333 0 31.666 1.66699 36.999 5s8 13.666 8 30.999v66v62 c0 20.667 -0.166992 42 -0.5 64s-0.833008 46 -1.5 72c0 5.33301 1.5 9.83301 4.5 13.5s7.16699 5.5 12.5 5.5h48c6 0 10.667 -1.83301 14 -5.5s5 -8.16699 5 -13.5c0.666992 -22.667 1.16699 -41.667 1.5 -57s0.5 -29.833 0.5 -43.5v-42v-51.5 c0 -32 -0.166992 -61.667 -0.5 -89s-1.5 -48.666 -3.5 -63.999c-1.33301 -6.66699 -3.5 -12.334 -6.5 -17.001s-8.5 -8.66699 -16.5 -12c-5.33301 -2 -12.666 -3.5 -21.999 -4.5s-20 -2 -32 -3s-24.333 -1.66699 -37 -2s-24.667 -0.5 -36 -0.5h-45 c-9.33301 0 -17.333 1.16699 -24 3.5s-10 5.83301 -10 10.5v59z"/>
    <glyph glyph-name="TehMed" unicode="ت" horiz-adv-x="286" arabic-form="medial" d="M-40 73c0 4 3.33398 7.16797 10.001 9.50098s14.667 3.5 24 3.5h45c6.66699 0 14 0.333008 22 1s15.667 2.16699 23 4.5s13.5 6 18.5 11s7.5 11.833 7.5 20.5v262c0 5.33301 1.83301 9.83301 5.5 13.5s8.16699 5.5 13.5 5.5h46c5.33301 0 9.83301 -1.83301 13.5 -5.5 s5.5 -8.16699 5.5 -13.5v-275c2 -5.33301 6.16699 -9.5 12.5 -12.5s13.333 -5.33301 21 -7s15.5 -2.83398 23.5 -3.50098s15 -1 21 -1h14v-86h-12c-20.667 0 -42.834 2.16699 -66.501 6.5s-43.167 13.166 -58.5 26.499c-16.667 -13.333 -36.5 -22.166 -59.5 -26.499 s-43.833 -6.5 -62.5 -6.5h-33c-9.33301 0 -17.333 1.16699 -24 3.5s-10 5.83301 -10 10.5v59zM25.001 609.001c0 6.66699 2.16699 12 6.5 16s9.83301 6 16.5 6h39c6.66699 0 12.167 -2 16.5 -6s6.5 -9.33301 6.5 -16v-54c0 -6 -2.33301 -11 -7 -15s-10 -6 -16 -6h-39 c-6.66699 0 -12.167 2 -16.5 6s-6.5 9 -6.5 15v54zM188.001 609.001c0 6.66699 2.5 12 7.5 16s10.5 6 16.5 6h39c6 0 11.333 -2 16 -6s7 -9.33301 7 -16v-54c0 -6 -2.33301 -11 -7 -15s-10 -6 -16 -6h-39c-6 0 -11.5 2 -16.5 6s-7.5 9 -7.5 15v54z"/>
    <glyph glyph-name="ThehSep" unicode="ث" horiz-adv-x="891" arabic-form="isolated" d="M313 549c0 6.66699 2.16699 12.167 6.5 16.5s9.83301 6.5 16.5 6.5h39c6.66699 0 12.167 -2.16699 16.5 -6.5s6.5 -9.83301 6.5 -16.5v-50c0 -6 -2.33301 -11 -7 -15s-10 -6 -16 -6h-39c-6.66699 0 -12.167 2 -16.5 6s-6.5 9 -6.5 15v50zM476 549 c0 6.66699 2.5 12.167 7.5 16.5s10.5 6.5 16.5 6.5h39c6 0 11.333 -2.16699 16 -6.5s7 -9.83301 7 -16.5v-50c0 -6 -2.33301 -11 -7 -15s-10 -6 -16 -6h-39c-6 0 -11.5 2 -16.5 6s-7.5 9 -7.5 15v50zM397 673c0 6 2.33301 11 7 15s10 6 16 6h37c6 0 11.333 -2 16 -6 s7 -9 7 -15v-45c0 -6.66699 -2.5 -11.834 -7.5 -15.501s-10.5 -5.5 -16.5 -5.5h-37c-6 0 -11.167 1.83301 -15.5 5.5s-6.5 8.83398 -6.5 15.501v45zM683 86c18.667 0 30.665 1.66602 35.998 4.99902s8 13.666 8 30.999v66v62c0 20.667 -0.166992 41.834 -0.5 63.501 s-0.833008 45.5 -1.5 71.5c0 5.33301 1.66699 9.83301 5 13.5s7.66602 5.5 12.999 5.5h47c6 0 10.667 -1.83301 14 -5.5s5 -8.16699 5 -13.5c0.666992 -22.667 1.16699 -41.667 1.5 -57s0.5 -29.666 0.5 -42.999v-41.5v-51.5c0 -32 -0.166992 -61.667 -0.5 -89 s-1.5 -48.666 -3.5 -63.999c-1.33301 -6.66699 -3.5 -12.334 -6.5 -17.001s-8.5 -8.66699 -16.5 -12c-5.33301 -2 -14.166 -3.5 -26.499 -4.5s-26.666 -2 -42.999 -3s-34 -1.66699 -53 -2s-37.833 -0.5 -56.5 -0.5h-234c-64 0 -116.5 6.16699 -157.5 18.5s-73.333 30 -97 53 s-40 51 -49 84s-13.5 69.833 -13.5 110.5c0 14 0.5 28.5 1.5 43.5s3.16699 32.167 6.5 51.5c2 12.667 8.66699 19 20 19h42c11.333 0 16.333 -6.66699 15 -20c-1.33301 -15.333 -2.33301 -28.333 -3 -39s-1 -21.667 -1 -33c0 -30 2.66699 -57.333 8 -82s16.5 -46 33.5 -64 s41.333 -31.833 73 -41.5s73.834 -14.5 126.501 -14.5h307z"/>
    <glyph glyph-name="ThehFin" unicode="ث" horiz-adv-x="905" arabic-form="final" d="M313 549c0 6.66699 2.16699 12.167 6.5 16.5s9.83301 6.5 16.5 6.5h39c6.66699 0 12.167 -2.16699 16.5 -6.5s6.5 -9.83301 6.5 -16.5v-50c0 -6 -2.33301 -11 -7 -15s-10 -6 -16 -6h-39c-6.66699 0 -12.167 2 -16.5 6s-6.5 9 -6.5 15v50zM476 549 c0 6.66699 2.5 12.167 7.5 16.5s10.5 6.5 16.5 6.5h39c6 0 11.333 -2.16699 16 -6.5s7 -9.83301 7 -16.5v-50c0 -6 -2.33301 -11 -7 -15s-10 -6 -16 -6h-39c-6 0 -11.5 2 -16.5 6s-7.5 9 -7.5 15v50zM397 673c0 6 2.33301 11 7 15s10 6 16 6h37c6 0 11.333 -2 16 -6 s7 -9 7 -15v-45c0 -6.66699 -2.5 -11.834 -7.5 -15.501s-10.5 -5.5 -16.5 -5.5h-37c-6 0 -11.167 1.83301 -15.5 5.5s-6.5 8.83398 -6.5 15.501v45zM658 86c6 0 13.166 0.333984 21.499 1.00098s16 2.16699 23 4.5s13 6 18 11s7.5 11.833 7.5 20.5v262 c0 5.33301 1.83301 9.83301 5.5 13.5s8.16699 5.5 13.5 5.5h47c5.33301 0 9.66602 -1.83301 12.999 -5.5s5 -8.16699 5 -13.5v-275c2 -5.33301 6.16699 -9.5 12.5 -12.5s13.333 -5.33301 21 -7s15.5 -2.83398 23.5 -3.50098s14.667 -1 20 -1h16v-86h-11 c-9.33301 -0 -19.5 0.333008 -30.5 1s-22.167 2.33398 -33.5 5.00098s-22.333 6 -33 10s-19.667 9.66699 -27 17c-17.333 -14.667 -39.166 -23.834 -65.499 -27.501s-53.5 -5.5 -81.5 -5.5h-252c-64 0 -116.5 6.16699 -157.5 18.5s-73.333 30 -97 53s-40 51 -49 84 s-13.5 69.833 -13.5 110.5c0 14 0.5 28.5 1.5 43.5s3.16699 32.167 6.5 51.5c2 12.667 8.66699 19 20 19h42c11.333 0 16.333 -6.66699 15 -20c-1.33301 -15.333 -2.33301 -28.333 -3 -39s-1 -21.667 -1 -33c0 -30 2.66699 -57.333 8 -82s16.5 -46 33.5 -64 s41.333 -31.833 73 -41.5s73.834 -14.5 126.501 -14.5h282z"/>
    <glyph glyph-name="ThehIni" unicode="ث" horiz-adv-x="275" arabic-form="initial" d="M20 605c0 6.66699 2.16699 12.167 6.5 16.5s9.83301 6.5 16.5 6.5h39c6.66699 0 12.167 -2.16699 16.5 -6.5s6.5 -9.83301 6.5 -16.5v-50c0 -6 -2.33301 -11 -7 -15s-10 -6 -16 -6h-39c-6.66699 0 -12.167 2 -16.5 6s-6.5 9 -6.5 15v50zM183 605 c0 6.66699 2.5 12.167 7.5 16.5s10.5 6.5 16.5 6.5h39c6 0 11.333 -2.16699 16 -6.5s7 -9.83301 7 -16.5v-50c0 -6 -2.33301 -11 -7 -15s-10 -6 -16 -6h-39c-6 0 -11.5 2 -16.5 6s-7.5 9 -7.5 15v50zM104 729c0 6 2.33301 11 7 15s10 6 16 6h37c6 0 11.333 -2 16 -6 s7 -9 7 -15v-45c0 -6.66699 -2.5 -11.834 -7.5 -15.501s-10.5 -5.5 -16.5 -5.5h-37c-6 0 -11.167 1.83301 -15.5 5.5s-6.5 8.83398 -6.5 15.501v45zM-40 73c0 4 3.33301 7.16797 10 9.50098s14.667 3.5 24 3.5h70c19.333 0 31.666 1.66699 36.999 5s8 13.666 8 30.999v66v62 c0 20.667 -0.166992 42 -0.5 64s-0.833008 46 -1.5 72c0 5.33301 1.5 9.83301 4.5 13.5s7.16699 5.5 12.5 5.5h48c6 0 10.667 -1.83301 14 -5.5s5 -8.16699 5 -13.5c0.666992 -22.667 1.16699 -41.667 1.5 -57s0.5 -29.833 0.5 -43.5v-42v-51.5 c0 -32 -0.166992 -61.667 -0.5 -89s-1.5 -48.666 -3.5 -63.999c-1.33301 -6.66699 -3.5 -12.334 -6.5 -17.001s-8.5 -8.66699 -16.5 -12c-5.33301 -2 -12.666 -3.5 -21.999 -4.5s-20 -2 -32 -3s-24.333 -1.66699 -37 -2s-24.667 -0.5 -36 -0.5h-45 c-9.33301 0 -17.333 1.16699 -24 3.5s-10 5.83301 -10 10.5v59z"/>
    <glyph glyph-name="ThehMed" unicode="ث" horiz-adv-x="286" arabic-form="medial" d="M-40 73c0 4 3.33398 7.16797 10.001 9.50098s14.667 3.5 24 3.5h45c6.66699 0 14 0.333008 22 1s15.667 2.16699 23 4.5s13.5 6 18.5 11s7.5 11.833 7.5 20.5v262c0 5.33301 1.83301 9.83301 5.5 13.5s8.16699 5.5 13.5 5.5h46c5.33301 0 9.83301 -1.83301 13.5 -5.5 s5.5 -8.16699 5.5 -13.5v-275c2 -5.33301 6.16699 -9.5 12.5 -12.5s13.333 -5.33301 21 -7s15.5 -2.83398 23.5 -3.50098s15 -1 21 -1h14v-86h-12c-20.667 0 -42.834 2.16699 -66.501 6.5s-43.167 13.166 -58.5 26.499c-16.667 -13.333 -36.5 -22.166 -59.5 -26.499 s-43.833 -6.5 -62.5 -6.5h-33c-9.33301 0 -17.333 1.16699 -24 3.5s-10 5.83301 -10 10.5v59zM24.001 605.001c0 6.66699 2.16699 12.167 6.5 16.5s9.83301 6.5 16.5 6.5h39c6.66699 0 12.167 -2.16699 16.5 -6.5s6.5 -9.83301 6.5 -16.5v-50c0 -6 -2.33301 -11 -7 -15 s-10 -6 -16 -6h-39c-6.66699 0 -12.167 2 -16.5 6s-6.5 9 -6.5 15v50zM187.001 605.001c0 6.66699 2.5 12.167 7.5 16.5s10.5 6.5 16.5 6.5h39c6 0 11.333 -2.16699 16 -6.5s7 -9.83301 7 -16.5v-50c0 -6 -2.33301 -11 -7 -15s-10 -6 -16 -6h-39c-6 0 -11.5 2 -16.5 6 s-7.5 9 -7.5 15v50zM108.001 729.001c0 6 2.33301 11 7 15s10 6 16 6h37c6 0 11.333 -2 16 -6s7 -9 7 -15v-45c0 -6.66699 -2.5 -11.834 -7.5 -15.501s-10.5 -5.5 -16.5 -5.5h-37c-6 0 -11.167 1.83301 -15.5 5.5s-6.5 8.83398 -6.5 15.501v45z"/>
    <glyph glyph-name="JeemSep" unicode="ج" horiz-adv-x="600" arabic-form="isolated" d="M56 -30c0 12.667 0.669922 28.6689 2.00293 48.002s2.66602 34.333 3.99902 45c1.33301 6.66699 3.5 11.834 6.5 15.501s8.16699 5.5 15.5 5.5c4 0 9.66699 0.166992 17 0.5s15.5 0.666016 24.5 0.999023s18.167 0.5 27.5 0.5h25h286l-38 87l-22 52 c-11.333 25.333 -23.833 47.5 -37.5 66.5s-29.334 34.667 -47.001 47s-37.667 21.666 -60 27.999s-47.833 9.5 -76.5 9.5c-2.66699 0 -6.83398 -0.166992 -12.501 -0.5s-12.167 -0.833008 -19.5 -1.5s-14.666 -1.16699 -21.999 -1.5s-14 -0.833008 -20 -1.5 c-14 -1.33301 -21 3.66699 -21 15v40c0 5.33301 1.16699 9.5 3.5 12.5s7.16602 5.16699 14.499 6.5c28.667 6 58.334 9 89.001 9c32.667 0 63.167 -3.16699 91.5 -9.5s55 -18 80 -35s48.5 -40.333 70.5 -70s42.667 -67.834 62 -114.501l11 -25l42 -108 c1.33301 -4.66699 2.5 -9.33398 3.5 -14.001s1.5 -10.667 1.5 -18v-36c0 -7.33301 -2 -13.166 -6 -17.499s-11.667 -6.5 -23 -6.5h-307h-40c-16.667 0 -30.334 -0.333008 -41.001 -1c-0.666992 -8.66699 -1 -16.167 -1 -22.5v-14.5c2 -96 43.333 -144 124 -144h4 c12 0 18 -5.66699 18 -17v-38c0 -6 -1 -10.333 -3 -13s-6.66699 -4.66699 -14 -6c-4 -0.666992 -7.33301 -1 -10 -1h-6c-64 0 -112.667 19.167 -146 57.5s-50 94.833 -50 169.5zM299.003 -81.998c0 6.66699 2.33301 12 7 16s10 6 16 6h38c6 0 11.5 -2 16.5 -6 s7.5 -9.33301 7.5 -16v-46c0 -6 -2.5 -11.167 -7.5 -15.5s-10.5 -6.5 -16.5 -6.5h-38c-6 0 -11.333 2.16699 -16 6.5s-7 9.5 -7 15.5v46z"/>
    <glyph glyph-name="JeemFin" unicode="ج" horiz-adv-x="580" arabic-form="final" d="M56 -30c0 12.667 0.665039 28.667 1.99805 48s2.66602 34.333 3.99902 45c1.33301 6.66699 3.5 11.834 6.5 15.501s8.16699 5.5 15.5 5.5c4 0 9.66699 0.166992 17 0.5s15.5 0.666016 24.5 0.999023s18.167 0.5 27.5 0.5h25h287l-37 86l-23 53 c-22 50.667 -50 88.5 -84 113.5s-79.667 37.5 -137 37.5c-2.66699 0 -7 -0.166992 -13 -0.5s-12.667 -0.833008 -20 -1.5s-14.666 -1.16699 -21.999 -1.5s-14 -0.833008 -20 -1.5c-14 -1.33301 -21 3.66699 -21 15v40c0 5.33301 1.16699 9.5 3.5 12.5 s7.16602 5.16699 14.499 6.5c28.667 6 58.334 9 89.001 9c33.333 0 64.333 -3.16699 93 -9.5s55.5 -18 80.5 -35s48.333 -40.333 70 -70s42.167 -67.834 61.5 -114.501l11 -25l41 -102c2.66699 -5.33301 5.33398 -8.66602 8.00098 -9.99902s6.33398 -2 11.001 -2h9v-86h-359 h-40.5c-16.333 0 -29.833 -0.333008 -40.5 -1c-0.666992 -9.33301 -1 -17 -1 -23v-14c2 -96 43.333 -144 124 -144h4c12 0 18 -5.66699 18 -17v-38c0 -6 -1 -10.333 -3 -13s-6.66699 -4.66699 -14 -6c-3.33301 -0.666992 -6.5 -1 -9.5 -1h-6.5 c-64 0 -112.667 19.167 -146 57.5s-50 94.833 -50 169.5zM298.998 -82c0 6.66699 2.33301 12 7 16s10 6 16 6h38c6 0 11.5 -2 16.5 -6s7.5 -9.33301 7.5 -16v-46c0 -6 -2.5 -11.167 -7.5 -15.5s-10.5 -6.5 -16.5 -6.5h-38c-6 0 -11.333 2.16699 -16 6.5s-7 9.5 -7 15.5v46z "/>
    <glyph glyph-name="JeemIni" unicode="ج" horiz-adv-x="595" arabic-form="initial" d="M202 -115c0 6.66699 2.33301 12 7 16s10 6 16 6h43c6 0 11.333 -2 16 -6s7 -9.33301 7 -16v-54c0 -5.33301 -2.33301 -10.166 -7 -14.499s-10 -6.5 -16 -6.5h-43c-6 0 -11.333 2.16699 -16 6.5s-7 9.16602 -7 14.499v54zM-40 73c0 4 3.33496 7.16797 10.002 9.50098 s14.667 3.5 24 3.5h464l-36 86l-23 53c-22 50.667 -51.167 88.5 -87.5 113.5s-85.833 37.5 -148.5 37.5c-2.66699 0 -6.83398 -0.166992 -12.501 -0.5s-12 -0.833008 -19 -1.5s-14 -1.16699 -21 -1.5s-13.167 -0.833008 -18.5 -1.5c-14.667 -1.33301 -22 3.33398 -22 14.001 v41c0 5.33301 1.33301 9.5 4 12.5s7.66699 5.16699 15 6.5c14.667 3.33301 31.167 5.66602 49.5 6.99902s33.5 2 45.5 2c33.333 0 64.666 -3.16699 93.999 -9.5s57 -18 83 -35s50 -40.333 72 -70s42.667 -67.834 62 -114.501l10 -26l42 -107 c1.33301 -4.66699 2.5 -9.33398 3.5 -14.001s1.5 -10.667 1.5 -18v-36c0 -7.33301 -2 -13.166 -6 -17.499s-11.667 -6.5 -23 -6.5h-529c-10 0 -18.167 1.5 -24.5 4.5s-9.5 6.16699 -9.5 9.5v59z"/>
    <glyph glyph-name="JeemMed" unicode="ج" horiz-adv-x="572" arabic-form="medial" d="M-6 0c-10.667 0 -19.001 1.5 -25.001 4.5s-9 6.16699 -9 9.5v59c0 4 3.33301 7.16699 10 9.5s14.667 3.5 24 3.5h464l-36 86l-23 53c-22 51.333 -51.167 89.333 -87.5 114s-85.833 37 -148.5 37c-5.33301 0 -15.666 -0.5 -30.999 -1.5s-28.666 -2.16699 -39.999 -3.5 c-14.667 -1.33301 -22 3.33398 -22 14.001v41c0 5.33301 1.33301 9.5 4 12.5s7.66699 5.16699 15 6.5c14 3.33301 29.5 5.66602 46.5 6.99902s33.167 2 48.5 2c33.333 0 64.666 -3.16699 93.999 -9.5s57 -18 83 -35s50 -40.333 72 -70s42.667 -67.834 62 -114.501l11 -26 l40 -101c3.33301 -5.33301 6 -8.66602 8 -9.99902s5.66699 -2 11 -2h7v-86h-578zM201.999 -115c0 6.66699 2.33301 12 7 16s10 6 16 6h43c6 0 11.333 -2 16 -6s7 -9.33301 7 -16v-54c0 -5.33301 -2.33301 -10.166 -7 -14.499s-10 -6.5 -16 -6.5h-43 c-6 0 -11.333 2.16699 -16 6.5s-7 9.16602 -7 14.499v54z"/>
    <glyph glyph-name="HahSep" unicode="ح" horiz-adv-x="600" arabic-form="isolated" d="M56 -30c0 12.667 0.669922 28.501 2.00293 47.501s2.66602 33.833 3.99902 44.5c1.33301 6.66699 3.5 11.834 6.5 15.501s8.16699 5.5 15.5 5.5c4 0 9.66699 0.166992 17 0.5s15.5 0.666016 24.5 0.999023s18.167 0.5 27.5 0.5h25h286l-38 88l-22 52 c-11.333 25.333 -23.833 47.5 -37.5 66.5s-29.334 34.667 -47.001 47s-37.667 21.666 -60 27.999s-47.833 9.5 -76.5 9.5c-2.66699 0 -6.83398 -0.166992 -12.501 -0.5s-12.167 -0.833008 -19.5 -1.5s-14.666 -1.16699 -21.999 -1.5s-14 -0.833008 -20 -1.5 c-14 -1.33301 -21 3.66699 -21 15v40c0 5.33301 1.16699 9.5 3.5 12.5s7.16602 5.16699 14.499 6.5c28.667 6 58.334 9 89.001 9c32.667 0 63.167 -3.16699 91.5 -9.5s55 -18 80 -35s48.5 -40.333 70.5 -70s42.667 -67.834 62 -114.501l11 -25l42 -108 c1.33301 -4.66699 2.5 -9.33398 3.5 -14.001s1.5 -10.667 1.5 -18v-36c0 -7.33301 -2 -13.166 -6 -17.499s-11.667 -6.5 -23 -6.5h-307h-40c-16.667 0 -30.334 -0.333008 -41.001 -1c0 -4.66699 -0.166992 -11.167 -0.5 -19.5s-0.5 -14.166 -0.5 -17.499 c0.666992 -24 3.66699 -45 9 -63s14 -33 26 -45s27.833 -21 47.5 -27s44.5 -9 74.5 -9h10c12 0 18 -5.66699 18 -17v-38c0 -12 -6.66699 -18.333 -20 -19c-3.33301 -0.666992 -7.83301 -1 -13.5 -1h-11.5c-79.333 0 -136.333 19.333 -171 58s-52 95 -52 169z"/>
    <glyph glyph-name="HahFin" unicode="ح" horiz-adv-x="580" arabic-form="final" d="M56 -30c0 12.667 0.666016 28.499 1.99902 47.499s2.66602 33.833 3.99902 44.5c1.33301 6.66699 3.5 11.834 6.5 15.501s8.16699 5.5 15.5 5.5c4 0 9.66699 0.166992 17 0.5s15.5 0.666016 24.5 0.999023s18.167 0.5 27.5 0.5h25h289l-37 87l-23 53 c-22 50.667 -50.5 88.5 -85.5 113.5s-81.5 37.5 -139.5 37.5c-2.66699 0 -6.83398 -0.166992 -12.501 -0.5s-12 -0.833008 -19 -1.5s-14.167 -1.16699 -21.5 -1.5s-14 -0.833008 -20 -1.5c-14 -1.33301 -21 3.66699 -21 15v40c0 5.33301 1.16699 9.5 3.5 12.5 s7.16602 5.16699 14.499 6.5c28.667 6 58.334 9 89.001 9c33.333 0 64.5 -3.16699 93.5 -9.5s56.333 -18 82 -35s49.334 -40.333 71.001 -70s42.167 -67.834 61.5 -114.501l11 -26l40 -101c2.66699 -5.33301 5.33398 -8.66602 8.00098 -9.99902s6.33398 -2 11.001 -2h7v-86 h-359h-40.5c-16.333 0 -29.833 -0.333008 -40.5 -1c0 -4.66699 -0.166992 -11.167 -0.5 -19.5s-0.5 -14.166 -0.5 -17.499c0.666992 -24 3.5 -45 8.5 -63s13.333 -33 25 -45s27.167 -21 46.5 -27s43 -9 71 -9h16c12 0 18 -5.66699 18 -17v-38 c0 -12 -6.66699 -18.333 -20 -19c-3.33301 -0.666992 -7.83301 -1 -13.5 -1h-11.5c-79.333 0 -136.333 19.333 -171 58s-52 95 -52 169z"/>
    <glyph glyph-name="HahIni" unicode="ح" horiz-adv-x="595" arabic-form="initial" d="M-40 73c0 4 3.33496 7.16797 10.002 9.50098s14.667 3.5 24 3.5h464l-36 86l-23 53c-22 50.667 -51.167 88.5 -87.5 113.5s-85.833 37.5 -148.5 37.5c-2.66699 0 -6.83398 -0.166992 -12.501 -0.5s-12 -0.833008 -19 -1.5s-14 -1.16699 -21 -1.5 s-13.167 -0.833008 -18.5 -1.5c-14.667 -1.33301 -22 3.33398 -22 14.001v41c0 5.33301 1.33301 9.5 4 12.5s7.66699 5.16699 15 6.5c14.667 3.33301 31.167 5.66602 49.5 6.99902s33.5 2 45.5 2c33.333 0 64.666 -3.16699 93.999 -9.5s57 -18 83 -35s50 -40.333 72 -70 s42.667 -67.834 62 -114.501l10 -26l42 -107c1.33301 -4.66699 2.5 -9.33398 3.5 -14.001s1.5 -10.667 1.5 -18v-36c0 -7.33301 -2 -13.166 -6 -17.499s-11.667 -6.5 -23 -6.5h-529c-10 0 -18.167 1.5 -24.5 4.5s-9.5 6.16699 -9.5 9.5v59z"/>
    <glyph glyph-name="HahMed" unicode="ح" horiz-adv-x="572" arabic-form="medial" d="M-6 0c-10.667 0 -19.001 1.5 -25.001 4.5s-9 6.16699 -9 9.5v59c0 4 3.33301 7.16699 10 9.5s14.667 3.5 24 3.5h464l-36 86l-23 53c-22 51.333 -51.167 89.333 -87.5 114s-85.833 37 -148.5 37c-5.33301 0 -15.666 -0.5 -30.999 -1.5s-28.666 -2.16699 -39.999 -3.5 c-14.667 -1.33301 -22 3.33398 -22 14.001v41c0 5.33301 1.33301 9.5 4 12.5s7.66699 5.16699 15 6.5c14 3.33301 29.5 5.66602 46.5 6.99902s33.167 2 48.5 2c33.333 0 64.666 -3.16699 93.999 -9.5s57 -18 83 -35s50 -40.333 72 -70s42.667 -67.834 62 -114.501l11 -26 l40 -101c3.33301 -5.33301 6 -8.66602 8 -9.99902s5.66699 -2 11 -2h7v-86h-578z"/>
    <glyph glyph-name="KhahSep" unicode="خ" horiz-adv-x="600" arabic-form="isolated" d="M56 -30c0 12.667 0.669922 28.501 2.00293 47.501s2.66602 33.833 3.99902 44.5c1.33301 6.66699 3.5 11.834 6.5 15.501s8.16699 5.5 15.5 5.5c4 0 9.66699 0.166992 17 0.5s15.5 0.666016 24.5 0.999023s18.167 0.5 27.5 0.5h25h286l-38 88l-22 52 c-11.333 25.333 -23.833 47.5 -37.5 66.5s-29.334 34.667 -47.001 47s-37.667 21.666 -60 27.999s-47.833 9.5 -76.5 9.5c-2.66699 0 -6.83398 -0.166992 -12.501 -0.5s-12.167 -0.833008 -19.5 -1.5s-14.666 -1.16699 -21.999 -1.5s-14 -0.833008 -20 -1.5 c-14 -1.33301 -21 3.66699 -21 15v40c0 5.33301 1.16699 9.5 3.5 12.5s7.16602 5.16699 14.499 6.5c28.667 6 58.334 9 89.001 9c32.667 0 63.167 -3.16699 91.5 -9.5s55 -18 80 -35s48.5 -40.333 70.5 -70s42.667 -67.834 62 -114.501l11 -25l42 -108 c1.33301 -4.66699 2.5 -9.33398 3.5 -14.001s1.5 -10.667 1.5 -18v-36c0 -7.33301 -2 -13.166 -6 -17.499s-11.667 -6.5 -23 -6.5h-307h-40c-16.667 0 -30.334 -0.333008 -41.001 -1c0 -4.66699 -0.166992 -11.167 -0.5 -19.5s-0.5 -14.166 -0.5 -17.499 c0.666992 -24 3.66699 -45 9 -63s14 -33 26 -45s27.833 -21 47.5 -27s44.5 -9 74.5 -9h10c12 0 18 -5.66699 18 -17v-38c0 -12 -6.66699 -18.333 -20 -19c-3.33301 -0.666992 -7.83301 -1 -13.5 -1h-11.5c-79.333 0 -136.333 19.333 -171 58s-52 95 -52 169z M206.003 637.001c0 6.66699 2.33301 12 7 16s10 6 16 6h44c6 0 11.167 -2 15.5 -6s6.5 -9.33301 6.5 -16v-54c0 -6 -2.16699 -11 -6.5 -15s-9.83301 -6 -16.5 -6h-43c-6.66699 0 -12.167 2 -16.5 6s-6.5 9 -6.5 15v54z"/>
    <glyph glyph-name="KhahFin" unicode="خ" horiz-adv-x="580" arabic-form="final" d="M207 637c0 6.66699 2.33301 12 7 16s10 6 16 6h44c6 0 11.167 -2 15.5 -6s6.5 -9.33301 6.5 -16v-54c0 -6 -2.16699 -11 -6.5 -15s-9.83301 -6 -16.5 -6h-43c-6.66699 0 -12.167 2 -16.5 6s-6.5 9 -6.5 15v54zM56 -30c0 12.667 0.666016 28.499 1.99902 47.499 s2.66602 33.833 3.99902 44.5c1.33301 6.66699 3.5 11.834 6.5 15.501s8.16699 5.5 15.5 5.5c4 0 9.66699 0.166992 17 0.5s15.5 0.666016 24.5 0.999023s18.167 0.5 27.5 0.5h25h289l-37 87l-23 53c-22 50.667 -50.5 88.5 -85.5 113.5s-81.5 37.5 -139.5 37.5 c-2.66699 0 -6.83398 -0.166992 -12.501 -0.5s-12 -0.833008 -19 -1.5s-14.167 -1.16699 -21.5 -1.5s-14 -0.833008 -20 -1.5c-14 -1.33301 -21 3.66699 -21 15v40c0 5.33301 1.16699 9.5 3.5 12.5s7.16602 5.16699 14.499 6.5c28.667 6 58.334 9 89.001 9 c33.333 0 64.5 -3.16699 93.5 -9.5s56.333 -18 82 -35s49.334 -40.333 71.001 -70s42.167 -67.834 61.5 -114.501l11 -26l40 -101c2.66699 -5.33301 5.33398 -8.66602 8.00098 -9.99902s6.33398 -2 11.001 -2h7v-86h-359h-40.5c-16.333 0 -29.833 -0.333008 -40.5 -1 c0 -4.66699 -0.166992 -11.167 -0.5 -19.5s-0.5 -14.166 -0.5 -17.499c0.666992 -24 3.5 -45 8.5 -63s13.333 -33 25 -45s27.167 -21 46.5 -27s43 -9 71 -9h16c12 0 18 -5.66699 18 -17v-38c0 -12 -6.66699 -18.333 -20 -19c-3.33301 -0.666992 -7.83301 -1 -13.5 -1h-11.5 c-79.333 0 -136.333 19.333 -171 58s-52 95 -52 169z"/>
    <glyph glyph-name="KhahIni" unicode="خ" horiz-adv-x="595" arabic-form="initial" d="M194 637c0 6.66699 2.33301 12 7 16s10 6 16 6h44c6 0 11.167 -2 15.5 -6s6.5 -9.33301 6.5 -16v-54c0 -6 -2.16699 -11 -6.5 -15s-9.83301 -6 -16.5 -6h-43c-6.66699 0 -12.167 2 -16.5 6s-6.5 9 -6.5 15v54zM-40 73c0 4 3.33496 7.16797 10.002 9.50098 s14.667 3.5 24 3.5h464l-36 86l-23 53c-22 50.667 -51.167 88.5 -87.5 113.5s-85.833 37.5 -148.5 37.5c-2.66699 0 -6.83398 -0.166992 -12.501 -0.5s-12 -0.833008 -19 -1.5s-14 -1.16699 -21 -1.5s-13.167 -0.833008 -18.5 -1.5c-14.667 -1.33301 -22 3.33398 -22 14.001 v41c0 5.33301 1.33301 9.5 4 12.5s7.66699 5.16699 15 6.5c14.667 3.33301 31.167 5.66602 49.5 6.99902s33.5 2 45.5 2c33.333 0 64.666 -3.16699 93.999 -9.5s57 -18 83 -35s50 -40.333 72 -70s42.667 -67.834 62 -114.501l10 -26l42 -107 c1.33301 -4.66699 2.5 -9.33398 3.5 -14.001s1.5 -10.667 1.5 -18v-36c0 -7.33301 -2 -13.166 -6 -17.499s-11.667 -6.5 -23 -6.5h-529c-10 0 -18.167 1.5 -24.5 4.5s-9.5 6.16699 -9.5 9.5v59z"/>
    <glyph glyph-name="KhahMed" unicode="خ" horiz-adv-x="572" arabic-form="medial" d="M-6 0c-10.667 0 -19.001 1.5 -25.001 4.5s-9 6.16699 -9 9.5v59c0 4 3.33301 7.16699 10 9.5s14.667 3.5 24 3.5h464l-36 86l-23 53c-22 51.333 -51.167 89.333 -87.5 114s-85.833 37 -148.5 37c-5.33301 0 -15.666 -0.5 -30.999 -1.5s-28.666 -2.16699 -39.999 -3.5 c-14.667 -1.33301 -22 3.33398 -22 14.001v41c0 5.33301 1.33301 9.5 4 12.5s7.66699 5.16699 15 6.5c14 3.33301 29.5 5.66602 46.5 6.99902s33.167 2 48.5 2c33.333 0 64.666 -3.16699 93.999 -9.5s57 -18 83 -35s50 -40.333 72 -70s42.667 -67.834 62 -114.501l11 -26 l40 -101c3.33301 -5.33301 6 -8.66602 8 -9.99902s5.66699 -2 11 -2h7v-86h-578zM193.999 637c0 6.66699 2.33301 12 7 16s10 6 16 6h44c6 0 11.167 -2 15.5 -6s6.5 -9.33301 6.5 -16v-54c0 -6 -2.16699 -11 -6.5 -15s-9.83301 -6 -16.5 -6h-43 c-6.66699 0 -12.167 2 -16.5 6s-6.5 9 -6.5 15v54z"/>
    <glyph glyph-name="DalSep" unicode="د" horiz-adv-x="485" arabic-form="isolated" d="M46 68c0 5.33301 1.99805 9.66602 5.99805 12.999s8.66699 5 14 5h273l-1 123c-1.33301 58.667 -16.166 102.334 -44.499 131.001s-74.166 43 -137.499 43c-7.33301 0 -17.666 -0.166992 -30.999 -0.5s-25 -1.16602 -35 -2.49902 c-13.333 -1.33301 -20 3.33398 -20 14.001v41c0 5.33301 1.5 9.66602 4.5 12.999s8.16699 5.33301 15.5 6c17.333 2.66699 33.833 4.33398 49.5 5.00098s27.167 1 34.5 1c45.333 0 83.5 -6 114.5 -18s56.167 -29 75.5 -51s33.333 -48 42 -78s13.667 -63 15 -99 c0 -2.66699 0.166992 -9.33398 0.5 -20.001s0.666016 -22.334 0.999023 -35.001s0.5 -24.667 0.5 -36v-23v-17.5c0 -7 -0.166992 -14.333 -0.5 -22l-1 -22.5c-0.333008 -7.33301 -0.833008 -13.333 -1.5 -18c0 -13.333 -7.33301 -20 -22 -20h-332 c-5.33301 0 -10 1.5 -14 4.5s-6 7.16699 -6 12.5v51z"/>
    <glyph glyph-name="DalFin" unicode="د" horiz-adv-x="489" arabic-form="final" d="M46 68c0 5.33301 2.00098 9.66406 6.00098 12.9971s8.66699 5 14 5h273l-1 123c-1.33301 58.667 -16 102.334 -44 131.001s-73.667 43 -137 43c-7.33301 0 -17.833 -0.166992 -31.5 -0.5s-25.5 -1.16602 -35.5 -2.49902c-13.333 -1.33301 -20 3.33398 -20 14.001v41 c0 5.33301 1.5 9.66602 4.5 12.999s8.16699 5.33301 15.5 6c17.333 2.66699 33.833 4.33398 49.5 5.00098s27.167 1 34.5 1c44.667 0 82.667 -6 114 -18s56.666 -29 75.999 -51s33.5 -48 42.5 -78s14.167 -63 15.5 -99l1 -128h66v-86h-423c-5.33301 0 -10 1.5 -14 4.5 s-6 7.16699 -6 12.5v51z"/>
    <glyph glyph-name="ThalSep" unicode="ذ" horiz-adv-x="485" arabic-form="isolated" d="M46 68c0 5.33301 1.99805 9.66602 5.99805 12.999s8.66699 5 14 5h273l-1 123c-1.33301 58.667 -16.166 102.334 -44.499 131.001s-74.166 43 -137.499 43c-7.33301 0 -17.666 -0.166992 -30.999 -0.5s-25 -1.16602 -35 -2.49902 c-13.333 -1.33301 -20 3.33398 -20 14.001v41c0 5.33301 1.5 9.66602 4.5 12.999s8.16699 5.33301 15.5 6c17.333 2.66699 33.833 4.33398 49.5 5.00098s27.167 1 34.5 1c45.333 0 83.5 -6 114.5 -18s56.167 -29 75.5 -51s33.333 -48 42 -78s13.667 -63 15 -99 c0 -2.66699 0.166992 -9.33398 0.5 -20.001s0.666016 -22.334 0.999023 -35.001s0.5 -24.667 0.5 -36v-23v-17.5c0 -7 -0.166992 -14.333 -0.5 -22l-1 -22.5c-0.333008 -7.33301 -0.833008 -13.333 -1.5 -18c0 -13.333 -7.33301 -20 -22 -20h-332 c-5.33301 0 -10 1.5 -14 4.5s-6 7.16699 -6 12.5v51zM174.998 649c0 6.66699 2.33301 12 7 16s10 6 16 6h44c6 0 11.167 -2 15.5 -6s6.5 -9.33301 6.5 -16v-54c0 -6 -2.16699 -11 -6.5 -15s-9.83301 -6 -16.5 -6h-43c-6.66699 0 -12.167 2 -16.5 6s-6.5 9 -6.5 15v54z"/>
    <glyph glyph-name="ThalFin" unicode="ذ" horiz-adv-x="489" arabic-form="final" d="M175 649c0 6.66699 2.33301 12 7 16s10 6 16 6h44c6 0 11.167 -2 15.5 -6s6.5 -9.33301 6.5 -16v-54c0 -6 -2.16699 -11 -6.5 -15s-9.83301 -6 -16.5 -6h-43c-6.66699 0 -12.167 2 -16.5 6s-6.5 9 -6.5 15v54zM46 68c0 5.33301 2.00098 9.66406 6.00098 12.9971 s8.66699 5 14 5h273l-1 123c-1.33301 58.667 -16 102.334 -44 131.001s-73.667 43 -137 43c-7.33301 0 -17.833 -0.166992 -31.5 -0.5s-25.5 -1.16602 -35.5 -2.49902c-13.333 -1.33301 -20 3.33398 -20 14.001v41c0 5.33301 1.5 9.66602 4.5 12.999s8.16699 5.33301 15.5 6 c17.333 2.66699 33.833 4.33398 49.5 5.00098s27.167 1 34.5 1c44.667 0 82.667 -6 114 -18s56.666 -29 75.999 -51s33.5 -48 42.5 -78s14.167 -63 15.5 -99l1 -128h66v-86h-423c-5.33301 0 -10 1.5 -14 4.5s-6 7.16699 -6 12.5v51z"/>
    <glyph glyph-name="RehSep" unicode="ر" horiz-adv-x="277" arabic-form="isolated" d="M-36 -170c0 9.33301 5.66895 14 17.002 14h21c22 0 40 1 54 3s25.333 6.33301 34 13s14.667 16.5 18 29.5s5 30.5 5 52.5v443c0 5.33301 1.66699 9.83301 5 13.5s7.66602 5.5 12.999 5.5h49c4.66699 0 8.66699 -1.83301 12 -5.5s5 -8.16699 5 -13.5v-437 c0 -22.667 -1.16699 -44 -3.5 -64s-7.83301 -38 -16.5 -54c-13.333 -23.333 -31.833 -39.666 -55.5 -48.999s-54.834 -14 -93.501 -14c-3.33301 0 -10.5 0.333008 -21.5 1s-19.833 1.66699 -26.5 3s-11 3.16602 -13 5.49902s-3 5.83301 -3 10.5v43z"/>
    <glyph glyph-name="RehFin" unicode="ر" horiz-adv-x="289" arabic-form="final" d="M-36 -170c0 9.33301 5.66895 14 17.002 14h21c22 0 40 1 54 3s25.333 6.33301 34 13s14.667 16.5 18 29.5s5 30.5 5 52.5v443c0 5.33301 1.66699 9.83301 5 13.5s7.66602 5.5 12.999 5.5h49c4.66699 0 8.66699 -1.83301 12 -5.5s5 -8.16699 5 -13.5v-299h92v-86h-93v-64 c0 -21.333 -1.33301 -41 -4 -59s-7.66699 -33.667 -15 -47c-13.333 -23.333 -31.833 -39.666 -55.5 -48.999s-54.834 -14 -93.501 -14c-3.33301 0 -10.5 0.333008 -21.5 1s-19.833 1.66699 -26.5 3s-11 3.16602 -13 5.49902s-3 5.83301 -3 10.5v43z"/>
    <glyph glyph-name="ZainSep" unicode="ز" horiz-adv-x="277" arabic-form="isolated" d="M-36 -170c0 9.33301 5.66895 14 17.002 14h21c22 0 40 1 54 3s25.333 6.33301 34 13s14.667 16.5 18 29.5s5 30.5 5 52.5v443c0 5.33301 1.66699 9.83301 5 13.5s7.66602 5.5 12.999 5.5h49c4.66699 0 8.66699 -1.83301 12 -5.5s5 -8.16699 5 -13.5v-437 c0 -22.667 -1.16699 -44 -3.5 -64s-7.83301 -38 -16.5 -54c-13.333 -23.333 -31.833 -39.666 -55.5 -48.999s-54.834 -14 -93.501 -14c-3.33301 0 -10.5 0.333008 -21.5 1s-19.833 1.66699 -26.5 3s-11 3.16602 -13 5.49902s-3 5.83301 -3 10.5v43zM112.002 609 c0 6.66699 2.33301 12 7 16s10 6 16 6h44c6 0 11.167 -2 15.5 -6s6.5 -9.33301 6.5 -16v-54c0 -6 -2.16699 -11 -6.5 -15s-9.83301 -6 -16.5 -6h-43c-6.66699 0 -12.167 2 -16.5 6s-6.5 9 -6.5 15v54z"/>
    <glyph glyph-name="ZainFin" unicode="ز" horiz-adv-x="289" arabic-form="final" d="M-36 -170c0 9.33301 5.66895 14 17.002 14h21c22 0 40 1 54 3s25.333 6.33301 34 13s14.667 16.5 18 29.5s5 30.5 5 52.5v443c0 5.33301 1.66699 9.83301 5 13.5s7.66602 5.5 12.999 5.5h49c4.66699 0 8.66699 -1.83301 12 -5.5s5 -8.16699 5 -13.5v-299h92v-86h-93v-64 c0 -21.333 -1.33301 -41 -4 -59s-7.66699 -33.667 -15 -47c-13.333 -23.333 -31.833 -39.666 -55.5 -48.999s-54.834 -14 -93.501 -14c-3.33301 0 -10.5 0.333008 -21.5 1s-19.833 1.66699 -26.5 3s-11 3.16602 -13 5.49902s-3 5.83301 -3 10.5v43zM112.002 609 c0 6.66699 2.33301 12 7 16s10 6 16 6h44c6 0 11.167 -2 15.5 -6s6.5 -9.33301 6.5 -16v-54c0 -6 -2.16699 -11 -6.5 -15s-9.83301 -6 -16.5 -6h-43c-6.66699 0 -12.167 2 -16.5 6s-6.5 9 -6.5 15v54z"/>
    <glyph glyph-name="SeenSep" unicode="س" horiz-adv-x="1100" arabic-form="isolated" d="M127 276c12 0 17.002 -6.66406 15.002 -19.9971c-1.33301 -8 -2.33301 -16.5 -3 -25.5l-2 -27c-0.666992 -9 -1.16699 -17.5 -1.5 -25.5s-0.5 -14.667 -0.5 -20c0 -34.667 2.16699 -66.834 6.5 -96.501s14.166 -55.334 29.499 -77.001s37.666 -38.667 66.999 -51 s69.333 -18.5 120 -18.5c10.667 0 22.834 0.333008 36.501 1s28.834 2.66699 45.501 6c0 18.667 0.166992 35.167 0.5 49.5s0.5 27.666 0.5 39.999v36.5v39v256c0 5.33301 1.83301 10 5.5 14s8.16699 6 13.5 6h47c5.33301 0 9.66602 -2 12.999 -6s5 -8.66699 5 -14v-235 c4.66699 -10.667 14.167 -17.334 28.5 -20.001s27.166 -4 38.499 -4h32c6 0 12.833 0.5 20.5 1.5s14.834 2.66699 21.501 5s12.167 5.83301 16.5 10.5s6.5 11 6.5 19v253c0 5.33301 1.66699 9.83301 5 13.5s7.66602 5.5 12.999 5.5h47 c5.33301 0 9.66602 -1.83301 12.999 -5.5s5 -8.16699 5 -13.5v-265c2 -5.33301 6 -9.5 12 -12.5s13.167 -5.33301 21.5 -7s17.333 -2.83398 27 -3.50098s18.834 -1 27.501 -1h30c19.333 0 31.833 1.5 37.5 4.5s8.5 13.5 8.5 31.5c0 46.667 -0.166992 93.834 -0.5 141.501 s-0.833008 97.5 -1.5 149.5c0 5.33301 1.66699 9.83301 5 13.5s7.66602 5.5 12.999 5.5h46c6 0 10.667 -1.83301 14 -5.5s5 -8.16699 5 -13.5c0.666992 -22.667 1.16699 -43 1.5 -61l1 -52c0.333008 -16.667 0.5 -33.5 0.5 -50.5v-55.5v-36v-27 c0 -10 -0.333008 -20.167 -1 -30.5l-2 -30.5c-0.666992 -10 -1.33398 -19 -2.00098 -27c-1.33301 -7.33301 -3.33301 -13.333 -6 -18s-8 -8.66699 -16 -12c-5.33301 -2 -12.666 -3.66699 -21.999 -5s-19 -2.33301 -29 -3s-19.833 -1.16699 -29.5 -1.5s-17.5 -0.5 -23.5 -0.5 h-17c-23.333 0 -47.833 1.83301 -73.5 5.5s-47.834 12.5 -66.501 26.5c-14 -11.333 -31.333 -19.5 -52 -24.5s-43.334 -7.5 -68.001 -7.5h-24c-11.333 0 -22.666 1 -33.999 3s-21 6 -29 12c0 -28 -0.166992 -55.833 -0.5 -83.5s-1.16602 -49.5 -2.49902 -65.5 c0 -11.333 -7 -18.666 -21 -21.999c-47.333 -10.667 -94.666 -16 -141.999 -16c-58 0 -106.667 6.5 -146 19.5s-70.833 32 -94.5 57s-40.5 55.833 -50.5 92.5s-15 78.667 -15 126c0 6.66699 0.333008 15.5 1 26.5s1.5 22.667 2.5 35s2.16699 24.833 3.5 37.5s3 24 5 34 c2 12.667 8.66699 19 20 19h42z"/>
    <glyph glyph-name="SeenFin" unicode="س" horiz-adv-x="1118" arabic-form="final" d="M127 276c12 0 17.0029 -6.66016 15.0029 -19.9932c-1.33301 -8 -2.33301 -16.5 -3 -25.5l-2 -27c-0.666992 -9 -1.16699 -17.5 -1.5 -25.5s-0.5 -14.667 -0.5 -20c0 -34.667 2.16699 -66.834 6.5 -96.501s14.166 -55.334 29.499 -77.001s37.666 -38.667 66.999 -51 s69.333 -18.5 120 -18.5c11.333 0 24 0.333008 38 1s28.667 2.66699 44 6c0 18.667 0.166992 35.167 0.5 49.5s0.5 27.666 0.5 39.999v36.5v39v256c0 5.33301 1.83301 10 5.5 14s8.16699 6 13.5 6h47c5.33301 0 9.66602 -2 12.999 -6s5 -8.66699 5 -14v-235 c2 -5.33301 6.16699 -9.5 12.5 -12.5s13.333 -5.33301 21 -7s15.5 -2.83398 23.5 -3.50098s15 -1 21 -1h21c6 0 12.833 0.5 20.5 1.5s14.834 2.66699 21.501 5s12.167 5.83301 16.5 10.5s6.5 11 6.5 19v253c0 5.33301 1.83301 9.83301 5.5 13.5s7.83398 5.5 12.501 5.5h47 c5.33301 0 9.66602 -1.83301 12.999 -5.5s5 -8.16699 5 -13.5v-265c4 -10.667 14 -17.334 30 -20.001s33 -4 51 -4h12c6.66699 0 14 0.333008 22 1s15.5 2.16699 22.5 4.5s13 6 18 11s7.5 11.5 7.5 19.5v291c0 5.33301 1.66699 9.83301 5 13.5s7.66602 5.5 12.999 5.5h48 c5.33301 0 9.66602 -1.83301 12.999 -5.5s5 -8.16699 5 -13.5v-301c2 -5.33301 6.33301 -9.5 13 -12.5s13.834 -5.33301 21.501 -7s15.5 -2.83398 23.5 -3.50098s14.667 -1 20 -1h21v-86h-18c-18 0 -38.667 2.16699 -62 6.5s-43.333 13.166 -60 26.499 c-14 -13.333 -31 -22.166 -51 -26.499s-41 -6.5 -63 -6.5h-16c-24 0 -45.333 2.16699 -64 6.5s-36 13.166 -52 26.499c-14 -11.333 -31.5 -19.5 -52.5 -24.5s-43.833 -7.5 -68.5 -7.5h-19c-9.33301 0 -20.833 1 -34.5 3s-24.5 6 -32.5 12 c0 -28 -0.166992 -55.833 -0.5 -83.5s-1.16602 -49.5 -2.49902 -65.5c0 -6.66699 -1.83301 -11.5 -5.5 -14.5s-8.83398 -5.5 -15.501 -7.5c-23.333 -5.33301 -47 -9.33301 -71 -12s-47.667 -4 -71 -4c-58 0 -106.667 6.5 -146 19.5s-70.833 32 -94.5 57 s-40.5 55.833 -50.5 92.5s-15 78.667 -15 126c0 6.66699 0.333008 15.5 1 26.5s1.5 22.667 2.5 35s2.16699 24.833 3.5 37.5s3 24 5 34c2 12.667 8.66699 19 20 19h42z"/>
    <glyph glyph-name="SeenIni" unicode="س" horiz-adv-x="760" arabic-form="initial" d="M-40 73c0 4 3.33691 7.16895 10.0039 9.50195s14.667 3.5 24 3.5h38c6.66699 0 14 0.333008 22 1s15.5 2.16699 22.5 4.5s13 6 18 11s7.5 11.833 7.5 20.5v216c0 5.33301 1.66699 10 5 14s7.66602 6 12.999 6h46c5.33301 0 9.66602 -2 12.999 -6s5 -8.66699 5 -14v-231 c2 -5.33301 6.16699 -9.5 12.5 -12.5s13.333 -5.33301 21 -7s15.5 -2.83398 23.5 -3.50098s15 -1 21 -1h22c6 0 12.833 0.5 20.5 1.5s14.667 2.66699 21 5s11.833 5.83301 16.5 10.5s7 11 7 19v253c0 5.33301 1.83301 9.83301 5.5 13.5s8.16699 5.5 13.5 5.5h46 c5.33301 0 9.66602 -1.83301 12.999 -5.5s5 -8.16699 5 -13.5v-265c2 -5.33301 6 -9.5 12 -12.5s13.167 -5.33301 21.5 -7s17.166 -2.83398 26.499 -3.50098s18.333 -1 27 -1h32c10 0 17.833 0.166992 23.5 0.5s10.167 1.66602 13.5 3.99902s5.5 5.83301 6.5 10.5 s1.5 11.667 1.5 21v141.5c0 47.667 -0.666992 97.5 -2 149.5c0 5.33301 1.66699 9.83301 5 13.5s7.66602 5.5 12.999 5.5h47c6 0 10.667 -1.83301 14 -5.5s5 -8.16699 5 -13.5c0.666992 -22.667 1.16699 -43 1.5 -61s0.5 -35.333 0.5 -52v-50.5v-55.5v-36v-27 c0 -10 -0.166992 -20.167 -0.5 -30.5s-0.833008 -20.5 -1.5 -30.5s-1.33398 -19 -2.00098 -27c-1.33301 -7.33301 -3.5 -13.333 -6.5 -18s-8.5 -8.66699 -16.5 -12c-10.667 -3.33301 -25.5 -5.83301 -44.5 -7.5s-39.167 -2.5 -60.5 -2.5h-16c-24 0 -48 2 -72 6 s-44.667 12.667 -62 26c-13.333 -11.333 -30.166 -19.666 -50.499 -24.999s-42.166 -8 -65.499 -8h-17c-20.667 0 -41.667 2.16699 -63 6.5s-39.666 13.166 -54.999 26.499c-16 -13.333 -35.333 -22.166 -58 -26.499s-44.334 -6.5 -65.001 -6.5h-30 c-9.33301 0 -17.333 1.16699 -24 3.5s-10 5.83301 -10 10.5v59z"/>
    <glyph glyph-name="SeenMed" unicode="س" horiz-adv-x="779" arabic-form="medial" d="M-40 73c0 4 3.33301 7.17285 10 9.50586s14.667 3.5 24 3.5h38c6.66699 0 14 0.333008 22 1s15.5 2.16699 22.5 4.5s13 6 18 11s7.5 11.833 7.5 20.5v216c0 5.33301 1.66699 10 5 14s7.66602 6 12.999 6h46c5.33301 0 9.66602 -2 12.999 -6s5 -8.66699 5 -14v-231 c2 -5.33301 6.16699 -9.5 12.5 -12.5s13.333 -5.33301 21 -7s15.5 -2.83398 23.5 -3.50098s15 -1 21 -1h21c6 0 12.833 0.5 20.5 1.5s14.834 2.66699 21.501 5s12.334 5.83301 17.001 10.5s7 11 7 19v253c0 5.33301 1.83301 9.83301 5.5 13.5s8.16699 5.5 13.5 5.5h46 c5.33301 0 9.66602 -1.83301 12.999 -5.5s5 -8.16699 5 -13.5v-265c4 -10.667 14 -17.334 30 -20.001s32.667 -4 50 -4h13c6 0 13.167 0.333008 21.5 1s16.166 2.16699 23.499 4.5s13.5 6 18.5 11s7.5 11.5 7.5 19.5v291c0 5.33301 1.83301 9.83301 5.5 13.5 s8.16699 5.5 13.5 5.5h47c5.33301 0 9.66602 -1.83301 12.999 -5.5s5 -8.16699 5 -13.5v-301c2 -5.33301 6.33301 -9.5 13 -12.5s14 -5.33301 22 -7s16 -2.83398 24 -3.50098s15 -1 21 -1h19v-86h-17c-18 0 -38.667 2.16699 -62 6.5s-43.666 13.166 -60.999 26.499 c-15.333 -13.333 -33.666 -22.166 -54.999 -26.499s-41.666 -6.5 -60.999 -6.5h-16c-23.333 0 -44.166 2.16699 -62.499 6.5s-36.5 13.166 -54.5 26.499c-26.667 -22 -65.334 -33 -116.001 -33h-17c-17.333 0 -36.5 2.16699 -57.5 6.5s-39.167 13.166 -54.5 26.499 c-8 -7.33301 -17.167 -13 -27.5 -17s-20.833 -7.33301 -31.5 -10s-21.167 -4.33398 -31.5 -5.00098s-19.833 -1 -28.5 -1h-32c-9.33301 0 -17.333 1.16699 -24 3.5s-10 5.83301 -10 10.5v59z"/>
    <glyph glyph-name="SheenSep" unicode="ش" horiz-adv-x="1100" arabic-form="isolated" d="M127 276c12 0 17.002 -6.66406 15.002 -19.9971c-1.33301 -8 -2.33301 -16.5 -3 -25.5l-2 -27c-0.666992 -9 -1.16699 -17.5 -1.5 -25.5s-0.5 -14.667 -0.5 -20c0 -34.667 2.16699 -66.834 6.5 -96.501s14.166 -55.334 29.499 -77.001s37.666 -38.667 66.999 -51 s69.333 -18.5 120 -18.5c10.667 0 22.834 0.333008 36.501 1s28.834 2.66699 45.501 6c0 18.667 0.166992 35.167 0.5 49.5s0.5 27.666 0.5 39.999v36.5v39v256c0 5.33301 1.83301 10 5.5 14s8.16699 6 13.5 6h47c5.33301 0 9.66602 -2 12.999 -6s5 -8.66699 5 -14v-235 c4.66699 -10.667 14.167 -17.334 28.5 -20.001s27.166 -4 38.499 -4h32c6 0 12.833 0.5 20.5 1.5s14.834 2.66699 21.501 5s12.167 5.83301 16.5 10.5s6.5 11 6.5 19v253c0 5.33301 1.66699 9.83301 5 13.5s7.66602 5.5 12.999 5.5h47 c5.33301 0 9.66602 -1.83301 12.999 -5.5s5 -8.16699 5 -13.5v-265c2 -5.33301 6 -9.5 12 -12.5s13.167 -5.33301 21.5 -7s17.333 -2.83398 27 -3.50098s18.834 -1 27.501 -1h30c19.333 0 31.833 1.5 37.5 4.5s8.5 13.5 8.5 31.5c0 46.667 -0.166992 93.834 -0.5 141.501 s-0.833008 97.5 -1.5 149.5c0 5.33301 1.66699 9.83301 5 13.5s7.66602 5.5 12.999 5.5h46c6 0 10.667 -1.83301 14 -5.5s5 -8.16699 5 -13.5c0.666992 -22.667 1.16699 -43 1.5 -61l1 -52c0.333008 -16.667 0.5 -33.5 0.5 -50.5v-55.5v-36v-27 c0 -10 -0.333008 -20.167 -1 -30.5l-2 -30.5c-0.666992 -10 -1.33398 -19 -2.00098 -27c-1.33301 -7.33301 -3.33301 -13.333 -6 -18s-8 -8.66699 -16 -12c-5.33301 -2 -12.666 -3.66699 -21.999 -5s-19 -2.33301 -29 -3s-19.833 -1.16699 -29.5 -1.5s-17.5 -0.5 -23.5 -0.5 h-17c-23.333 0 -47.833 1.83301 -73.5 5.5s-47.834 12.5 -66.501 26.5c-14 -11.333 -31.333 -19.5 -52 -24.5s-43.334 -7.5 -68.001 -7.5h-24c-11.333 0 -22.666 1 -33.999 3s-21 6 -29 12c0 -28 -0.166992 -55.833 -0.5 -83.5s-1.16602 -49.5 -2.49902 -65.5 c0 -11.333 -7 -18.666 -21 -21.999c-47.333 -10.667 -94.666 -16 -141.999 -16c-58 0 -106.667 6.5 -146 19.5s-70.833 32 -94.5 57s-40.5 55.833 -50.5 92.5s-15 78.667 -15 126c0 6.66699 0.333008 15.5 1 26.5s1.5 22.667 2.5 35s2.16699 24.833 3.5 37.5s3 24 5 34 c2 12.667 8.66699 19 20 19h42zM599.002 580.003c0 6.66699 2.16699 12.167 6.5 16.5s9.83301 6.5 16.5 6.5h39c6.66699 0 12.167 -2.16699 16.5 -6.5s6.5 -9.83301 6.5 -16.5v-50c0 -6 -2.33301 -11 -7 -15s-10 -6 -16 -6h-39c-6.66699 0 -12.167 2 -16.5 6s-6.5 9 -6.5 15 v50zM762.002 580.003c0 6.66699 2.5 12.167 7.5 16.5s10.5 6.5 16.5 6.5h39c6 0 11.333 -2.16699 16 -6.5s7 -9.83301 7 -16.5v-50c0 -6 -2.33301 -11 -7 -15s-10 -6 -16 -6h-39c-6 0 -11.5 2 -16.5 6s-7.5 9 -7.5 15v50zM683.002 704.003c0 6 2.33301 11 7 15s10 6 16 6h37 c6 0 11.333 -2 16 -6s7 -9 7 -15v-45c0 -6.66699 -2.5 -11.834 -7.5 -15.501s-10.5 -5.5 -16.5 -5.5h-37c-6 0 -11.167 1.83301 -15.5 5.5s-6.5 8.83398 -6.5 15.501v45z"/>
    <glyph glyph-name="SheenFin" unicode="ش" horiz-adv-x="1118" arabic-form="final" d="M600 580c0 6.66699 2.16699 12.167 6.5 16.5s9.83301 6.5 16.5 6.5h39c6.66699 0 12.167 -2.16699 16.5 -6.5s6.5 -9.83301 6.5 -16.5v-50c0 -6 -2.33301 -11 -7 -15s-10 -6 -16 -6h-39c-6.66699 0 -12.167 2 -16.5 6s-6.5 9 -6.5 15v50zM763 580 c0 6.66699 2.5 12.167 7.5 16.5s10.5 6.5 16.5 6.5h39c6 0 11.333 -2.16699 16 -6.5s7 -9.83301 7 -16.5v-50c0 -6 -2.33301 -11 -7 -15s-10 -6 -16 -6h-39c-6 0 -11.5 2 -16.5 6s-7.5 9 -7.5 15v50zM684 704c0 6 2.33301 11 7 15s10 6 16 6h37c6 0 11.333 -2 16 -6 s7 -9 7 -15v-45c0 -6.66699 -2.5 -11.834 -7.5 -15.501s-10.5 -5.5 -16.5 -5.5h-37c-6 0 -11.167 1.83301 -15.5 5.5s-6.5 8.83398 -6.5 15.501v45zM127 276c12 0 17.0029 -6.66016 15.0029 -19.9932c-1.33301 -8 -2.33301 -16.5 -3 -25.5l-2 -27 c-0.666992 -9 -1.16699 -17.5 -1.5 -25.5s-0.5 -14.667 -0.5 -20c0 -34.667 2.16699 -66.834 6.5 -96.501s14.166 -55.334 29.499 -77.001s37.666 -38.667 66.999 -51s69.333 -18.5 120 -18.5c11.333 0 24 0.333008 38 1s28.667 2.66699 44 6 c0 18.667 0.166992 35.167 0.5 49.5s0.5 27.666 0.5 39.999v36.5v39v256c0 5.33301 1.83301 10 5.5 14s8.16699 6 13.5 6h47c5.33301 0 9.66602 -2 12.999 -6s5 -8.66699 5 -14v-235c2 -5.33301 6.16699 -9.5 12.5 -12.5s13.333 -5.33301 21 -7s15.5 -2.83398 23.5 -3.50098 s15 -1 21 -1h21c6 0 12.833 0.5 20.5 1.5s14.834 2.66699 21.501 5s12.167 5.83301 16.5 10.5s6.5 11 6.5 19v253c0 5.33301 1.83301 9.83301 5.5 13.5s7.83398 5.5 12.501 5.5h47c5.33301 0 9.66602 -1.83301 12.999 -5.5s5 -8.16699 5 -13.5v-265 c4 -10.667 14 -17.334 30 -20.001s33 -4 51 -4h12c6.66699 0 14 0.333008 22 1s15.5 2.16699 22.5 4.5s13 6 18 11s7.5 11.5 7.5 19.5v291c0 5.33301 1.66699 9.83301 5 13.5s7.66602 5.5 12.999 5.5h48c5.33301 0 9.66602 -1.83301 12.999 -5.5s5 -8.16699 5 -13.5v-301 c2 -5.33301 6.33301 -9.5 13 -12.5s13.834 -5.33301 21.501 -7s15.5 -2.83398 23.5 -3.50098s14.667 -1 20 -1h21v-86h-18c-18 0 -38.667 2.16699 -62 6.5s-43.333 13.166 -60 26.499c-14 -13.333 -31 -22.166 -51 -26.499s-41 -6.5 -63 -6.5h-16 c-24 0 -45.333 2.16699 -64 6.5s-36 13.166 -52 26.499c-14 -11.333 -31.5 -19.5 -52.5 -24.5s-43.833 -7.5 -68.5 -7.5h-19c-9.33301 0 -20.833 1 -34.5 3s-24.5 6 -32.5 12c0 -28 -0.166992 -55.833 -0.5 -83.5s-1.16602 -49.5 -2.49902 -65.5 c0 -6.66699 -1.83301 -11.5 -5.5 -14.5s-8.83398 -5.5 -15.501 -7.5c-23.333 -5.33301 -47 -9.33301 -71 -12s-47.667 -4 -71 -4c-58 0 -106.667 6.5 -146 19.5s-70.833 32 -94.5 57s-40.5 55.833 -50.5 92.5s-15 78.667 -15 126c0 6.66699 0.333008 15.5 1 26.5 s1.5 22.667 2.5 35s2.16699 24.833 3.5 37.5s3 24 5 34c2 12.667 8.66699 19 20 19h42z"/>
    <glyph glyph-name="SheenIni" unicode="ش" horiz-adv-x="760" arabic-form="initial" d="M259 580c0 6.66699 2.16699 12.167 6.5 16.5s9.83301 6.5 16.5 6.5h39c6.66699 0 12.167 -2.16699 16.5 -6.5s6.5 -9.83301 6.5 -16.5v-50c0 -6 -2.33301 -11 -7 -15s-10 -6 -16 -6h-39c-6.66699 0 -12.167 2 -16.5 6s-6.5 9 -6.5 15v50zM422 580 c0 6.66699 2.5 12.167 7.5 16.5s10.5 6.5 16.5 6.5h39c6 0 11.333 -2.16699 16 -6.5s7 -9.83301 7 -16.5v-50c0 -6 -2.33301 -11 -7 -15s-10 -6 -16 -6h-39c-6 0 -11.5 2 -16.5 6s-7.5 9 -7.5 15v50zM343 704c0 6 2.33301 11 7 15s10 6 16 6h37c6 0 11.333 -2 16 -6 s7 -9 7 -15v-45c0 -6.66699 -2.5 -11.834 -7.5 -15.501s-10.5 -5.5 -16.5 -5.5h-37c-6 0 -11.167 1.83301 -15.5 5.5s-6.5 8.83398 -6.5 15.501v45zM-40 73c0 4 3.33691 7.16895 10.0039 9.50195s14.667 3.5 24 3.5h38c6.66699 0 14 0.333008 22 1s15.5 2.16699 22.5 4.5 s13 6 18 11s7.5 11.833 7.5 20.5v216c0 5.33301 1.66699 10 5 14s7.66602 6 12.999 6h46c5.33301 0 9.66602 -2 12.999 -6s5 -8.66699 5 -14v-231c2 -5.33301 6.16699 -9.5 12.5 -12.5s13.333 -5.33301 21 -7s15.5 -2.83398 23.5 -3.50098s15 -1 21 -1h22 c6 0 12.833 0.5 20.5 1.5s14.667 2.66699 21 5s11.833 5.83301 16.5 10.5s7 11 7 19v253c0 5.33301 1.83301 9.83301 5.5 13.5s8.16699 5.5 13.5 5.5h46c5.33301 0 9.66602 -1.83301 12.999 -5.5s5 -8.16699 5 -13.5v-265c2 -5.33301 6 -9.5 12 -12.5 s13.167 -5.33301 21.5 -7s17.166 -2.83398 26.499 -3.50098s18.333 -1 27 -1h32c10 0 17.833 0.166992 23.5 0.5s10.167 1.66602 13.5 3.99902s5.5 5.83301 6.5 10.5s1.5 11.667 1.5 21v141.5c0 47.667 -0.666992 97.5 -2 149.5c0 5.33301 1.66699 9.83301 5 13.5 s7.66602 5.5 12.999 5.5h47c6 0 10.667 -1.83301 14 -5.5s5 -8.16699 5 -13.5c0.666992 -22.667 1.16699 -43 1.5 -61s0.5 -35.333 0.5 -52v-50.5v-55.5v-36v-27c0 -10 -0.166992 -20.167 -0.5 -30.5s-0.833008 -20.5 -1.5 -30.5s-1.33398 -19 -2.00098 -27 c-1.33301 -7.33301 -3.5 -13.333 -6.5 -18s-8.5 -8.66699 -16.5 -12c-10.667 -3.33301 -25.5 -5.83301 -44.5 -7.5s-39.167 -2.5 -60.5 -2.5h-16c-24 0 -48 2 -72 6s-44.667 12.667 -62 26c-13.333 -11.333 -30.166 -19.666 -50.499 -24.999s-42.166 -8 -65.499 -8h-17 c-20.667 0 -41.667 2.16699 -63 6.5s-39.666 13.166 -54.999 26.499c-16 -13.333 -35.333 -22.166 -58 -26.499s-44.334 -6.5 -65.001 -6.5h-30c-9.33301 0 -17.333 1.16699 -24 3.5s-10 5.83301 -10 10.5v59z"/>
    <glyph glyph-name="SheenMed" unicode="ش" horiz-adv-x="779" arabic-form="medial" d="M259 580c0 6.66699 2.16699 12.167 6.5 16.5s9.83301 6.5 16.5 6.5h39c6.66699 0 12.167 -2.16699 16.5 -6.5s6.5 -9.83301 6.5 -16.5v-50c0 -6 -2.33301 -11 -7 -15s-10 -6 -16 -6h-39c-6.66699 0 -12.167 2 -16.5 6s-6.5 9 -6.5 15v50zM422 580 c0 6.66699 2.5 12.167 7.5 16.5s10.5 6.5 16.5 6.5h39c6 0 11.333 -2.16699 16 -6.5s7 -9.83301 7 -16.5v-50c0 -6 -2.33301 -11 -7 -15s-10 -6 -16 -6h-39c-6 0 -11.5 2 -16.5 6s-7.5 9 -7.5 15v50zM343 704c0 6 2.33301 11 7 15s10 6 16 6h37c6 0 11.333 -2 16 -6 s7 -9 7 -15v-45c0 -6.66699 -2.5 -11.834 -7.5 -15.501s-10.5 -5.5 -16.5 -5.5h-37c-6 0 -11.167 1.83301 -15.5 5.5s-6.5 8.83398 -6.5 15.501v45zM-40 73c0 4 3.33301 7.17285 10 9.50586s14.667 3.5 24 3.5h38c6.66699 0 14 0.333008 22 1s15.5 2.16699 22.5 4.5 s13 6 18 11s7.5 11.833 7.5 20.5v216c0 5.33301 1.66699 10 5 14s7.66602 6 12.999 6h46c5.33301 0 9.66602 -2 12.999 -6s5 -8.66699 5 -14v-231c2 -5.33301 6.16699 -9.5 12.5 -12.5s13.333 -5.33301 21 -7s15.5 -2.83398 23.5 -3.50098s15 -1 21 -1h21 c6 0 12.833 0.5 20.5 1.5s14.834 2.66699 21.501 5s12.334 5.83301 17.001 10.5s7 11 7 19v253c0 5.33301 1.83301 9.83301 5.5 13.5s8.16699 5.5 13.5 5.5h46c5.33301 0 9.66602 -1.83301 12.999 -5.5s5 -8.16699 5 -13.5v-265c4 -10.667 14 -17.334 30 -20.001 s32.667 -4 50 -4h13c6 0 13.167 0.333008 21.5 1s16.166 2.16699 23.499 4.5s13.5 6 18.5 11s7.5 11.5 7.5 19.5v291c0 5.33301 1.83301 9.83301 5.5 13.5s8.16699 5.5 13.5 5.5h47c5.33301 0 9.66602 -1.83301 12.999 -5.5s5 -8.16699 5 -13.5v-301 c2 -5.33301 6.33301 -9.5 13 -12.5s14 -5.33301 22 -7s16 -2.83398 24 -3.50098s15 -1 21 -1h19v-86h-17c-18 0 -38.667 2.16699 -62 6.5s-43.666 13.166 -60.999 26.499c-15.333 -13.333 -33.666 -22.166 -54.999 -26.499s-41.666 -6.5 -60.999 -6.5h-16 c-23.333 0 -44.166 2.16699 -62.499 6.5s-36.5 13.166 -54.5 26.499c-26.667 -22 -65.334 -33 -116.001 -33h-17c-17.333 0 -36.5 2.16699 -57.5 6.5s-39.167 13.166 -54.5 26.499c-8 -7.33301 -17.167 -13 -27.5 -17s-20.833 -7.33301 -31.5 -10 s-21.167 -4.33398 -31.5 -5.00098s-19.833 -1 -28.5 -1h-32c-9.33301 0 -17.333 1.16699 -24 3.5s-10 5.83301 -10 10.5v59z"/>
    <glyph glyph-name="SadSep" unicode="ص" horiz-adv-x="1088" arabic-form="isolated" d="M53 133c0 6 0.333008 14.6689 1 26.002s1.66699 23.5 3 36.5l4 38c1.33301 12.333 3 22.5 5 30.5c1.33301 7.33301 3.33301 12.5 6 15.5s7.33398 4.5 14.001 4.5h43c11.333 0 16.666 -7 15.999 -21c-2 -15.333 -3.83301 -32.333 -5.5 -51s-2.5 -33.667 -2.5 -45 c0 -35.333 2.16699 -68.166 6.5 -98.499s14.166 -57 29.499 -80s37.833 -41 67.5 -54s70.167 -19.5 121.5 -19.5c11.333 0 24.5 0.333008 39.5 1s30.5 2.66699 46.5 6c0 18.667 0.166992 35.167 0.5 49.5s0.5 27.666 0.5 39.999v36.5v39v351c0 5.33301 2 10 6 14 s8.66699 6 14 6h46c5.33301 0 9.66602 -2 12.999 -6s5 -8.66699 5 -14v-40c17.333 13.333 36.666 24.166 57.999 32.499s42.333 14.666 63 18.999s40 7.16602 58 8.49902s32.667 2 44 2c42.667 0 80.5 -4.66699 113.5 -14s60.833 -24.333 83.5 -45 s39.834 -47.334 51.501 -80.001s17.5 -72.334 17.5 -119.001v-20c0 -10.667 -0.166992 -22.667 -0.5 -36s-1 -26.666 -2 -39.999s-2.16699 -26.333 -3.5 -39s-3.33301 -23.334 -6 -32.001c-1.33301 -6.66699 -4.66602 -13.167 -9.99902 -19.5 s-13.666 -10.166 -24.999 -11.499c-9.33301 -1.33301 -24.166 -2.16602 -44.499 -2.49902s-42.333 -0.666016 -66 -0.999023s-46.834 -0.5 -69.501 -0.5h-55h-207v-33c0 -12 -0.166992 -24.167 -0.5 -36.5s-0.666016 -24 -0.999023 -35s-0.833008 -20.5 -1.5 -28.5 c0 -6.66699 -1.83301 -11.5 -5.5 -14.5s-9.16699 -5.5 -16.5 -7.5c-24 -5.33301 -48.5 -9.33301 -73.5 -12s-49.167 -4 -72.5 -4c-58.667 0 -107.834 7 -147.501 21s-71.5 34 -95.5 60s-41 57.833 -51 95.5s-15 80.167 -15 127.5zM533 87.002 c17.333 -1.33301 34.835 -1.99902 52.502 -1.99902h68.5h256c10 0 17.167 4.83301 21.5 14.5s6.5 31.167 6.5 64.5v24c0 36.667 -4.16699 67.167 -12.5 91.5s-20.833 43.666 -37.5 57.999s-37.667 24.5 -63 30.5s-55 9 -89 9c-9.33301 0 -22.333 -0.833008 -39 -2.5 s-34.834 -4.5 -54.501 -8.5s-39.334 -9.5 -59.001 -16.5s-36.5 -16.167 -50.5 -27.5v-235z"/>
    <glyph glyph-name="SadFin" unicode="ص" horiz-adv-x="1094" arabic-form="final" d="M53 132c0 6 0.330078 14.8379 0.99707 26.5049s1.66699 23.834 3 36.501l4 38c1.33301 12.667 3 23 5 31c1.33301 7.33301 3.33301 12.5 6 15.5s7.33398 4.5 14.001 4.5h43c11.333 0 16.666 -7 15.999 -21c-2 -15.333 -3.83301 -32.5 -5.5 -51.5s-2.5 -34.167 -2.5 -45.5 c0 -34.667 2.16699 -67.334 6.5 -98.001s14 -57.334 29 -80.001s37.333 -40.5 67 -53.5s70.167 -19.5 121.5 -19.5c10.667 0 23.834 0.333008 39.501 1s31.5 2.66699 47.5 6c0 18.667 0.166992 35.167 0.5 49.5s0.5 27.666 0.5 39.999v36.5v39v351c0 5.33301 2 10 6 14 s8.66699 6 14 6h46c5.33301 0 9.66602 -2 12.999 -6s5 -8.66699 5 -14v-40c17.333 13.333 36.666 24.166 57.999 32.499s42.333 14.666 63 18.999s40 7.16602 58 8.49902s32.667 2 44 2c42.667 0 80.5 -4.66699 113.5 -14s60.833 -24.333 83.5 -45 s39.834 -47.334 51.501 -80.001s17.5 -72.334 17.5 -119.001v-15c0 -7.33301 -0.166992 -15.833 -0.5 -25.5l-1 -28.5c-0.333008 -9.33301 -1.16602 -18.166 -2.49902 -26.499s-3 -15.166 -5 -20.499h81v-86h-561v-33c0 -12 -0.166992 -24.167 -0.5 -36.5 s-0.666016 -24 -0.999023 -35s-0.833008 -20.5 -1.5 -28.5c0 -6.66699 -1.83301 -11.5 -5.5 -14.5s-9.16699 -5.5 -16.5 -7.5c-24 -5.33301 -48.667 -9.33301 -74 -12s-49.666 -4 -72.999 -4c-58.667 0 -107.667 6.83301 -147 20.5s-71 33.5 -95 59.5s-41 57.833 -51 95.5 s-15 80.167 -15 127.5zM532.997 87.0049c17.333 -1.33301 34.833 -1.99902 52.5 -1.99902h68.5h257c9.33301 0 16.166 5.5 20.499 16.5s6.5 34.167 6.5 69.5v17c0 36.667 -4.16699 67.167 -12.5 91.5s-20.833 43.666 -37.5 57.999s-37.667 24.5 -63 30.5s-55 9 -89 9 c-10 0 -23.5 -0.833008 -40.5 -2.5s-35.167 -4.5 -54.5 -8.5s-38.666 -9.5 -57.999 -16.5s-36 -16.167 -50 -27.5v-235z"/>
    <glyph glyph-name="SadIni" unicode="ص" horiz-adv-x="747" arabic-form="initial" d="M-40 73c0 4 3.33398 7.16895 10.001 9.50195s14.667 3.5 24 3.5h114v352c0 5.33301 1.83301 10 5.5 14s8.16699 6 13.5 6h46c5.33301 0 9.83301 -2 13.5 -6s5.5 -8.66699 5.5 -14v-40c17.333 13.333 36.666 24.166 57.999 32.499s42.333 14.666 63 18.999 s40 7.16602 58 8.49902s32.667 2 44 2c42.667 0 80.5 -4.66699 113.5 -14s60.833 -24.333 83.5 -45s39.834 -47.334 51.501 -80.001s17.5 -72.334 17.5 -119.001v-20c0 -10.667 -0.166992 -22.667 -0.5 -36s-0.833008 -26.666 -1.5 -39.999s-1.83398 -26.333 -3.50098 -39 s-3.83398 -23.334 -6.50098 -32.001c-2 -6.66699 -5.5 -13.167 -10.5 -19.5s-13.5 -10.166 -25.5 -11.499c-9.33301 -1.33301 -24.166 -2.16602 -44.499 -2.49902s-42.333 -0.666016 -66 -0.999023s-46.667 -0.5 -69 -0.5h-54.5h-405c-9.33301 0 -17.333 1.16699 -24 3.5 s-10 5.83301 -10 10.5v59zM192.001 87.002c16.667 -1.33301 33.8311 -1.99902 51.498 -1.99902h68.5h258c4.66699 0 8.83398 1 12.501 3s6.5 6.16699 8.5 12.5s3.5 15.166 4.5 26.499s1.5 26 1.5 44v18c0 36.667 -4.16699 67 -12.5 91s-20.833 43.167 -37.5 57.5 s-37.667 24.5 -63 30.5s-55 9 -89 9c-10 0 -23.5 -0.833008 -40.5 -2.5s-35.167 -4.5 -54.5 -8.5s-38.666 -9.5 -57.999 -16.5s-36 -16.167 -50 -27.5v-235z"/>
    <glyph glyph-name="SadMed" unicode="ص" horiz-adv-x="753" arabic-form="medial" d="M-40 73c0 4 3.33301 7.16992 10 9.50293s14.667 3.5 24 3.5h114v352c0 5.33301 1.83301 10 5.5 14s8.16699 6 13.5 6h46c5.33301 0 9.83301 -2 13.5 -6s5.5 -8.66699 5.5 -14v-40c17.333 13.333 36.666 24.166 57.999 32.499s42.333 14.666 63 18.999 s40 7.16602 58 8.49902s32.667 2 44 2c42.667 0 80.5 -4.66699 113.5 -14s60.833 -24.333 83.5 -45s39.834 -47.334 51.501 -80.001s17.5 -72.334 17.5 -119.001v-15v-25.5c0 -9.66699 -0.333008 -19.167 -1 -28.5s-1.66699 -18.166 -3 -26.499s-3 -15.166 -5 -20.499h81 v-86h-759c-9.33301 0 -17.333 1.16699 -24 3.5s-10 5.83301 -10 10.5v59zM192 86.0029c16.667 -0.666992 33.832 -1 51.499 -1h68.5h259c9.33301 0 16 5.5 20 16.5s6 34.167 6 69.5v18c0 36.667 -4.16699 67 -12.5 91s-20.833 43.167 -37.5 57.5s-37.667 24.5 -63 30.5 s-55 9 -89 9c-10 0 -23.5 -0.833008 -40.5 -2.5s-35.167 -4.5 -54.5 -8.5s-38.666 -9.5 -57.999 -16.5s-36 -16.167 -50 -27.5v-236z"/>
    <glyph glyph-name="DadSep" unicode="ض" horiz-adv-x="1088" arabic-form="isolated" d="M688 650c0 6.66699 2.33301 12 7 16s10 6 16 6h44c6 0 11.167 -2 15.5 -6s6.5 -9.33301 6.5 -16v-54c0 -6 -2.16699 -11 -6.5 -15s-9.83301 -6 -16.5 -6h-43c-6.66699 0 -12.167 2 -16.5 6s-6.5 9 -6.5 15v54zM53 133c0 6 0.333008 14.6689 1 26.002s1.66699 23.5 3 36.5 l4 38c1.33301 12.333 3 22.5 5 30.5c1.33301 7.33301 3.33301 12.5 6 15.5s7.33398 4.5 14.001 4.5h43c11.333 0 16.666 -7 15.999 -21c-2 -15.333 -3.83301 -32.333 -5.5 -51s-2.5 -33.667 -2.5 -45c0 -35.333 2.16699 -68.166 6.5 -98.499s14.166 -57 29.499 -80 s37.833 -41 67.5 -54s70.167 -19.5 121.5 -19.5c11.333 0 24.5 0.333008 39.5 1s30.5 2.66699 46.5 6c0 18.667 0.166992 35.167 0.5 49.5s0.5 27.666 0.5 39.999v36.5v39v351c0 5.33301 2 10 6 14s8.66699 6 14 6h46c5.33301 0 9.66602 -2 12.999 -6s5 -8.66699 5 -14v-40 c17.333 13.333 36.666 24.166 57.999 32.499s42.333 14.666 63 18.999s40 7.16602 58 8.49902s32.667 2 44 2c42.667 0 80.5 -4.66699 113.5 -14s60.833 -24.333 83.5 -45s39.834 -47.334 51.501 -80.001s17.5 -72.334 17.5 -119.001v-20 c0 -10.667 -0.166992 -22.667 -0.5 -36s-1 -26.666 -2 -39.999s-2.16699 -26.333 -3.5 -39s-3.33301 -23.334 -6 -32.001c-1.33301 -6.66699 -4.66602 -13.167 -9.99902 -19.5s-13.666 -10.166 -24.999 -11.499c-9.33301 -1.33301 -24.166 -2.16602 -44.499 -2.49902 s-42.333 -0.666016 -66 -0.999023s-46.834 -0.5 -69.501 -0.5h-55h-207v-33c0 -12 -0.166992 -24.167 -0.5 -36.5s-0.666016 -24 -0.999023 -35s-0.833008 -20.5 -1.5 -28.5c0 -6.66699 -1.83301 -11.5 -5.5 -14.5s-9.16699 -5.5 -16.5 -7.5 c-24 -5.33301 -48.5 -9.33301 -73.5 -12s-49.167 -4 -72.5 -4c-58.667 0 -107.834 7 -147.501 21s-71.5 34 -95.5 60s-41 57.833 -51 95.5s-15 80.167 -15 127.5zM533 87.002c17.333 -1.33301 34.835 -1.99902 52.502 -1.99902h68.5h256c10 0 17.167 4.83301 21.5 14.5 s6.5 31.167 6.5 64.5v24c0 36.667 -4.16699 67.167 -12.5 91.5s-20.833 43.666 -37.5 57.999s-37.667 24.5 -63 30.5s-55 9 -89 9c-9.33301 0 -22.333 -0.833008 -39 -2.5s-34.834 -4.5 -54.501 -8.5s-39.334 -9.5 -59.001 -16.5s-36.5 -16.167 -50.5 -27.5v-235z"/>
    <glyph glyph-name="DadFin" unicode="ض" horiz-adv-x="1094" arabic-form="final" d="M688 650c0 6.66699 2.33301 12 7 16s10 6 16 6h44c6 0 11.167 -2 15.5 -6s6.5 -9.33301 6.5 -16v-54c0 -6 -2.16699 -11 -6.5 -15s-9.83301 -6 -16.5 -6h-43c-6.66699 0 -12.167 2 -16.5 6s-6.5 9 -6.5 15v54zM53 132c0 6 0.330078 14.8379 0.99707 26.5049 s1.66699 23.834 3 36.501l4 38c1.33301 12.667 3 23 5 31c1.33301 7.33301 3.33301 12.5 6 15.5s7.33398 4.5 14.001 4.5h43c11.333 0 16.666 -7 15.999 -21c-2 -15.333 -3.83301 -32.5 -5.5 -51.5s-2.5 -34.167 -2.5 -45.5c0 -34.667 2.16699 -67.334 6.5 -98.001 s14 -57.334 29 -80.001s37.333 -40.5 67 -53.5s70.167 -19.5 121.5 -19.5c10.667 0 23.834 0.333008 39.501 1s31.5 2.66699 47.5 6c0 18.667 0.166992 35.167 0.5 49.5s0.5 27.666 0.5 39.999v36.5v39v351c0 5.33301 2 10 6 14s8.66699 6 14 6h46 c5.33301 0 9.66602 -2 12.999 -6s5 -8.66699 5 -14v-40c17.333 13.333 36.666 24.166 57.999 32.499s42.333 14.666 63 18.999s40 7.16602 58 8.49902s32.667 2 44 2c42.667 0 80.5 -4.66699 113.5 -14s60.833 -24.333 83.5 -45s39.834 -47.334 51.501 -80.001 s17.5 -72.334 17.5 -119.001v-15c0 -7.33301 -0.166992 -15.833 -0.5 -25.5l-1 -28.5c-0.333008 -9.33301 -1.16602 -18.166 -2.49902 -26.499s-3 -15.166 -5 -20.499h81v-86h-561v-33c0 -12 -0.166992 -24.167 -0.5 -36.5s-0.666016 -24 -0.999023 -35 s-0.833008 -20.5 -1.5 -28.5c0 -6.66699 -1.83301 -11.5 -5.5 -14.5s-9.16699 -5.5 -16.5 -7.5c-24 -5.33301 -48.667 -9.33301 -74 -12s-49.666 -4 -72.999 -4c-58.667 0 -107.667 6.83301 -147 20.5s-71 33.5 -95 59.5s-41 57.833 -51 95.5s-15 80.167 -15 127.5z M532.997 87.0049c17.333 -1.33301 34.833 -1.99902 52.5 -1.99902h68.5h257c9.33301 0 16.166 5.5 20.499 16.5s6.5 34.167 6.5 69.5v17c0 36.667 -4.16699 67.167 -12.5 91.5s-20.833 43.666 -37.5 57.999s-37.667 24.5 -63 30.5s-55 9 -89 9 c-10 0 -23.5 -0.833008 -40.5 -2.5s-35.167 -4.5 -54.5 -8.5s-38.666 -9.5 -57.999 -16.5s-36 -16.167 -50 -27.5v-235z"/>
    <glyph glyph-name="DadIni" unicode="ض" horiz-adv-x="747" arabic-form="initial" d="M349 650c0 6.66699 2.33301 12 7 16s10 6 16 6h44c6 0 11.167 -2 15.5 -6s6.5 -9.33301 6.5 -16v-54c0 -6 -2.16699 -11 -6.5 -15s-9.83301 -6 -16.5 -6h-43c-6.66699 0 -12.167 2 -16.5 6s-6.5 9 -6.5 15v54zM-40 73c0 4 3.33398 7.16895 10.001 9.50195 s14.667 3.5 24 3.5h114v352c0 5.33301 1.83301 10 5.5 14s8.16699 6 13.5 6h46c5.33301 0 9.83301 -2 13.5 -6s5.5 -8.66699 5.5 -14v-40c17.333 13.333 36.666 24.166 57.999 32.499s42.333 14.666 63 18.999s40 7.16602 58 8.49902s32.667 2 44 2 c42.667 0 80.5 -4.66699 113.5 -14s60.833 -24.333 83.5 -45s39.834 -47.334 51.501 -80.001s17.5 -72.334 17.5 -119.001v-20c0 -10.667 -0.166992 -22.667 -0.5 -36s-0.833008 -26.666 -1.5 -39.999s-1.83398 -26.333 -3.50098 -39s-3.83398 -23.334 -6.50098 -32.001 c-2 -6.66699 -5.5 -13.167 -10.5 -19.5s-13.5 -10.166 -25.5 -11.499c-9.33301 -1.33301 -24.166 -2.16602 -44.499 -2.49902s-42.333 -0.666016 -66 -0.999023s-46.667 -0.5 -69 -0.5h-54.5h-405c-9.33301 0 -17.333 1.16699 -24 3.5s-10 5.83301 -10 10.5v59z M192.001 87.002c16.667 -1.33301 33.8311 -1.99902 51.498 -1.99902h68.5h258c4.66699 0 8.83398 1 12.501 3s6.5 6.16699 8.5 12.5s3.5 15.166 4.5 26.499s1.5 26 1.5 44v18c0 36.667 -4.16699 67 -12.5 91s-20.833 43.167 -37.5 57.5s-37.667 24.5 -63 30.5s-55 9 -89 9 c-10 0 -23.5 -0.833008 -40.5 -2.5s-35.167 -4.5 -54.5 -8.5s-38.666 -9.5 -57.999 -16.5s-36 -16.167 -50 -27.5v-235z"/>
    <glyph glyph-name="DadMed" unicode="ض" horiz-adv-x="753" arabic-form="medial" d="M-40 73c0 4 3.33301 7.16992 10 9.50293s14.667 3.5 24 3.5h114v352c0 5.33301 1.83301 10 5.5 14s8.16699 6 13.5 6h46c5.33301 0 9.83301 -2 13.5 -6s5.5 -8.66699 5.5 -14v-40c17.333 13.333 36.666 24.166 57.999 32.499s42.333 14.666 63 18.999 s40 7.16602 58 8.49902s32.667 2 44 2c42.667 0 80.5 -4.66699 113.5 -14s60.833 -24.333 83.5 -45s39.834 -47.334 51.501 -80.001s17.5 -72.334 17.5 -119.001v-15v-25.5c0 -9.66699 -0.333008 -19.167 -1 -28.5s-1.66699 -18.166 -3 -26.499s-3 -15.166 -5 -20.499h81 v-86h-759c-9.33301 0 -17.333 1.16699 -24 3.5s-10 5.83301 -10 10.5v59zM192 86.0029c16.667 -0.666992 33.832 -1 51.499 -1h68.5h259c9.33301 0 16 5.5 20 16.5s6 34.167 6 69.5v18c0 36.667 -4.16699 67 -12.5 91s-20.833 43.167 -37.5 57.5s-37.667 24.5 -63 30.5 s-55 9 -89 9c-10 0 -23.5 -0.833008 -40.5 -2.5s-35.167 -4.5 -54.5 -8.5s-38.666 -9.5 -57.999 -16.5s-36 -16.167 -50 -27.5v-236zM346.998 650.003c0 6.66699 2.33301 12 7 16s10 6 16 6h44c6 0 11.167 -2 15.5 -6s6.5 -9.33301 6.5 -16v-54c0 -6 -2.16699 -11 -6.5 -15 s-9.83301 -6 -16.5 -6h-43c-6.66699 0 -12.167 2 -16.5 6s-6.5 9 -6.5 15v54z"/>
    <glyph glyph-name="TahSep" unicode="ط" horiz-adv-x="817" arabic-form="isolated" d="M42 69c0 5.33301 2.00098 9.49609 6.00098 12.4961s8.66699 4.5 14 4.5h114v646c0 5.33301 1.83301 9.83301 5.5 13.5s8.16699 5.5 13.5 5.5h49c5.33301 0 9.66602 -1.83301 12.999 -5.5s5 -8.16699 5 -13.5v-330c17.333 12.667 36.666 22.834 57.999 30.501 s42.166 13.5 62.499 17.5s39.5 6.66699 57.5 8s32.667 2 44 2c42.667 0 80.5 -4.66699 113.5 -14s60.833 -24.333 83.5 -45s40 -47.167 52 -79.5s18 -71.833 18 -118.5v-21c0 -10.667 -0.166992 -22.667 -0.5 -36s-0.833008 -26.666 -1.5 -39.999s-1.66699 -26.333 -3 -39 s-3.33301 -23.334 -6 -32.001c-2 -6.66699 -5.66699 -13.167 -11 -19.5s-14 -10.166 -26 -11.499c-9.33301 -1.33301 -24.166 -2.16602 -44.499 -2.49902s-42.166 -0.666016 -65.499 -0.999023s-46.333 -0.5 -69 -0.5h-55h-407c-5.33301 0 -10 1.5 -14 4.5 s-6 7.16699 -6 12.5v52zM639.001 84.9961c4.66699 0 8.83203 1.00098 12.499 3.00098s6.66699 6.16699 9 12.5s4 15.166 5 26.499s1.5 26 1.5 44v17c0 36.667 -4.16699 67.167 -12.5 91.5s-20.666 43.833 -36.999 58.5s-36.833 24.834 -61.5 30.501s-53.334 8.5 -86.001 8.5 c-11.333 0 -26 -0.666992 -44 -2s-36.667 -4 -56 -8s-38.666 -9.33301 -57.999 -16s-36 -15.334 -50 -26.001v-238c17.333 -1.33301 34.833 -2 52.5 -2h67.5h257z"/>
    <glyph glyph-name="TahFin" unicode="ط" horiz-adv-x="823" arabic-form="final" d="M42 70c0 5.33301 2.00195 9.33008 6.00195 11.9971s8.66699 4 14 4h114v646c0 5.33301 1.83301 9.83301 5.5 13.5s8.16699 5.5 13.5 5.5h49c5.33301 0 9.66602 -1.83301 12.999 -5.5s5 -8.16699 5 -13.5v-330c17.333 12.667 36.666 22.834 57.999 30.501 s42.166 13.5 62.499 17.5s39.5 6.66699 57.5 8s32.667 2 44 2c42.667 0 80.5 -4.5 113.5 -13.5s60.833 -23.667 83.5 -44s40 -46.833 52 -79.5s18 -72.667 18 -120v-16c0 -7.33301 -0.166992 -15.833 -0.5 -25.5l-1 -28.5 c-0.333008 -9.33301 -1.16602 -18.166 -2.49902 -26.499s-3 -15.166 -5 -20.499h81v-86h-761c-5.33301 0 -10 1.5 -14 4.5s-6 7.16699 -6 12.5v53zM640.002 84.9971c9.33301 0 16.167 5.50098 20.5 16.501s6.5 34.167 6.5 69.5v15c0 37.333 -4.16699 68.333 -12.5 93 s-20.666 44.167 -36.999 58.5s-36.833 24.5 -61.5 30.5s-53.334 9 -86.001 9c-10 0 -23.833 -0.666992 -41.5 -2s-36.5 -4 -56.5 -8s-39.833 -9.33301 -59.5 -16s-36.5 -15.334 -50.5 -26.001v-239c16.667 -0.666992 33.5 -1 50.5 -1h67.5h260z"/>
    <glyph glyph-name="TahIni" unicode="ط" horiz-adv-x="761" arabic-form="initial" d="M-40 73c0 4 3.33496 7.16309 10.002 9.49609s14.667 3.5 24 3.5h127v646c0 5.33301 1.66699 9.83301 5 13.5s7.66602 5.5 12.999 5.5h49c5.33301 0 9.83301 -1.83301 13.5 -5.5s5.5 -8.16699 5.5 -13.5v-330c17.333 12.667 36.666 22.834 57.999 30.501 s42.166 13.5 62.499 17.5s39.5 6.66699 57.5 8s32.667 2 44 2c42.667 0 80.667 -4.66699 114 -14s61.333 -24.333 84 -45s39.834 -47.167 51.501 -79.5s17.5 -71.833 17.5 -118.5v-21c0 -10.667 -0.166992 -22.667 -0.5 -36s-0.833008 -26.666 -1.5 -39.999 s-1.66699 -26.333 -3 -39s-3.33301 -23.334 -6 -32.001c-2 -6.66699 -5.66699 -13.167 -11 -19.5s-14 -10.166 -26 -11.499c-9.33301 -1.33301 -24.166 -2.16602 -44.499 -2.49902s-42.333 -0.666016 -66 -0.999023s-46.834 -0.5 -69.501 -0.5h-55h-419 c-9.33301 0 -17.333 1.16699 -24 3.5s-10 5.83301 -10 10.5v59zM585.002 84.9961c4.66699 0 8.83105 1.00098 12.498 3.00098s6.5 6.16699 8.5 12.5s3.5 15.166 4.5 26.499s1.5 26 1.5 44v17c0 36.667 -4.16699 67.167 -12.5 91.5s-20.666 43.833 -36.999 58.5 s-36.833 24.834 -61.5 30.501s-53.334 8.5 -86.001 8.5c-11.333 0 -26 -0.666992 -44 -2s-36.667 -4 -56 -8s-38.666 -9.33301 -57.999 -16s-36 -15.334 -50 -26.001v-238c16.667 -1.33301 33.834 -2 51.501 -2h68.5h258z"/>
    <glyph glyph-name="TahMed" unicode="ط" horiz-adv-x="768" arabic-form="medial" d="M-40 73c0 4 3.33301 7.16406 10 9.49707s14.667 3.5 24 3.5h127v646c0 5.33301 1.66699 9.83301 5 13.5s7.66602 5.5 12.999 5.5h49c5.33301 0 9.83301 -1.83301 13.5 -5.5s5.5 -8.16699 5.5 -13.5v-330c17.333 12.667 36.5 22.834 57.5 30.501s41.833 13.5 62.5 17.5 s39.834 6.66699 57.501 8s32.167 2 43.5 2c42.667 0 80.667 -4.66699 114 -14s61.333 -24.333 84 -45s40 -47.167 52 -79.5s18 -71.833 18 -118.5v-16c0 -7.33301 -0.166992 -15.833 -0.5 -25.5s-0.833008 -19.167 -1.5 -28.5s-1.66699 -18.166 -3 -26.499 s-3 -15.166 -5 -20.499h82v-86h-774c-9.33301 0 -17.333 1.16699 -24 3.5s-10 5.83301 -10 10.5v59zM586 84.9971c9.33301 0 15.999 5.5 19.999 16.5s6 34.167 6 69.5v17c0 36.667 -4.16699 67.167 -12.5 91.5s-20.666 43.833 -36.999 58.5s-36.833 24.834 -61.5 30.501 s-53.334 8.5 -86.001 8.5c-11.333 0 -26 -0.666992 -44 -2s-36.667 -4 -56 -8s-38.666 -9.33301 -57.999 -16s-36 -15.334 -50 -26.001v-239c16.667 -0.666992 33.5 -1 50.5 -1h66.5h262z"/>
    <glyph glyph-name="ZahSep" unicode="ظ" horiz-adv-x="817" arabic-form="isolated" d="M438 650c0 6.66699 2.33301 12 7 16s10 6 16 6h44c6 0 11.167 -2 15.5 -6s6.5 -9.33301 6.5 -16v-54c0 -6 -2.16699 -11 -6.5 -15s-9.83301 -6 -16.5 -6h-43c-6.66699 0 -12.167 2 -16.5 6s-6.5 9 -6.5 15v54zM42 69c0 5.33301 2.00098 9.49609 6.00098 12.4961 s8.66699 4.5 14 4.5h114v646c0 5.33301 1.83301 9.83301 5.5 13.5s8.16699 5.5 13.5 5.5h49c5.33301 0 9.66602 -1.83301 12.999 -5.5s5 -8.16699 5 -13.5v-330c17.333 12.667 36.666 22.834 57.999 30.501s42.166 13.5 62.499 17.5s39.5 6.66699 57.5 8s32.667 2 44 2 c42.667 0 80.5 -4.66699 113.5 -14s60.833 -24.333 83.5 -45s40 -47.167 52 -79.5s18 -71.833 18 -118.5v-21c0 -10.667 -0.166992 -22.667 -0.5 -36s-0.833008 -26.666 -1.5 -39.999s-1.66699 -26.333 -3 -39s-3.33301 -23.334 -6 -32.001 c-2 -6.66699 -5.66699 -13.167 -11 -19.5s-14 -10.166 -26 -11.499c-9.33301 -1.33301 -24.166 -2.16602 -44.499 -2.49902s-42.166 -0.666016 -65.499 -0.999023s-46.333 -0.5 -69 -0.5h-55h-407c-5.33301 0 -10 1.5 -14 4.5s-6 7.16699 -6 12.5v52zM639.001 84.9961 c4.66699 0 8.83203 1.00098 12.499 3.00098s6.66699 6.16699 9 12.5s4 15.166 5 26.499s1.5 26 1.5 44v17c0 36.667 -4.16699 67.167 -12.5 91.5s-20.666 43.833 -36.999 58.5s-36.833 24.834 -61.5 30.501s-53.334 8.5 -86.001 8.5c-11.333 0 -26 -0.666992 -44 -2 s-36.667 -4 -56 -8s-38.666 -9.33301 -57.999 -16s-36 -15.334 -50 -26.001v-238c17.333 -1.33301 34.833 -2 52.5 -2h67.5h257z"/>
    <glyph glyph-name="ZahFin" unicode="ظ" horiz-adv-x="823" arabic-form="final" d="M42 70c0 5.33301 2.00195 9.33008 6.00195 11.9971s8.66699 4 14 4h114v646c0 5.33301 1.83301 9.83301 5.5 13.5s8.16699 5.5 13.5 5.5h49c5.33301 0 9.66602 -1.83301 12.999 -5.5s5 -8.16699 5 -13.5v-330c17.333 12.667 36.666 22.834 57.999 30.501 s42.166 13.5 62.499 17.5s39.5 6.66699 57.5 8s32.667 2 44 2c42.667 0 80.5 -4.5 113.5 -13.5s60.833 -23.667 83.5 -44s40 -46.833 52 -79.5s18 -72.667 18 -120v-16c0 -7.33301 -0.166992 -15.833 -0.5 -25.5l-1 -28.5 c-0.333008 -9.33301 -1.16602 -18.166 -2.49902 -26.499s-3 -15.166 -5 -20.499h81v-86h-761c-5.33301 0 -10 1.5 -14 4.5s-6 7.16699 -6 12.5v53zM640.002 84.9971c9.33301 0 16.167 5.50098 20.5 16.501s6.5 34.167 6.5 69.5v15c0 37.333 -4.16699 68.333 -12.5 93 s-20.666 44.167 -36.999 58.5s-36.833 24.5 -61.5 30.5s-53.334 9 -86.001 9c-10 0 -23.833 -0.666992 -41.5 -2s-36.5 -4 -56.5 -8s-39.833 -9.33301 -59.5 -16s-36.5 -15.334 -50.5 -26.001v-239c16.667 -0.666992 33.5 -1 50.5 -1h67.5h260zM438.003 649.998 c0 6.66699 2.33301 12 7 16s10 6 16 6h44c6 0 11.167 -2 15.5 -6s6.5 -9.33301 6.5 -16v-54c0 -6 -2.16699 -11 -6.5 -15s-9.83301 -6 -16.5 -6h-43c-6.66699 0 -12.167 2 -16.5 6s-6.5 9 -6.5 15v54z"/>
    <glyph glyph-name="ZahIni" unicode="ظ" horiz-adv-x="761" arabic-form="initial" d="M-40 73c0 4 3.33496 7.16309 10.002 9.49609s14.667 3.5 24 3.5h127v646c0 5.33301 1.66699 9.83301 5 13.5s7.66602 5.5 12.999 5.5h49c5.33301 0 9.83301 -1.83301 13.5 -5.5s5.5 -8.16699 5.5 -13.5v-330c17.333 12.667 36.666 22.834 57.999 30.501 s42.166 13.5 62.499 17.5s39.5 6.66699 57.5 8s32.667 2 44 2c42.667 0 80.667 -4.66699 114 -14s61.333 -24.333 84 -45s39.834 -47.167 51.501 -79.5s17.5 -71.833 17.5 -118.5v-21c0 -10.667 -0.166992 -22.667 -0.5 -36s-0.833008 -26.666 -1.5 -39.999 s-1.66699 -26.333 -3 -39s-3.33301 -23.334 -6 -32.001c-2 -6.66699 -5.66699 -13.167 -11 -19.5s-14 -10.166 -26 -11.499c-9.33301 -1.33301 -24.166 -2.16602 -44.499 -2.49902s-42.333 -0.666016 -66 -0.999023s-46.834 -0.5 -69.501 -0.5h-55h-419 c-9.33301 0 -17.333 1.16699 -24 3.5s-10 5.83301 -10 10.5v59zM585.002 84.9961c4.66699 0 8.83105 1.00098 12.498 3.00098s6.5 6.16699 8.5 12.5s3.5 15.166 4.5 26.499s1.5 26 1.5 44v17c0 36.667 -4.16699 67.167 -12.5 91.5s-20.666 43.833 -36.999 58.5 s-36.833 24.834 -61.5 30.501s-53.334 8.5 -86.001 8.5c-11.333 0 -26 -0.666992 -44 -2s-36.667 -4 -56 -8s-38.666 -9.33301 -57.999 -16s-36 -15.334 -50 -26.001v-238c16.667 -1.33301 33.834 -2 51.501 -2h68.5h258zM382.999 649.997c0 6.66699 2.33301 12 7 16 s10 6 16 6h44c6 0 11.167 -2 15.5 -6s6.5 -9.33301 6.5 -16v-54c0 -6 -2.16699 -11 -6.5 -15s-9.83301 -6 -16.5 -6h-43c-6.66699 0 -12.167 2 -16.5 6s-6.5 9 -6.5 15v54z"/>
    <glyph glyph-name="ZahMed" unicode="ظ" horiz-adv-x="768" arabic-form="medial" d="M383 650c0 6.66699 2.33301 12 7 16s10 6 16 6h44c6 0 11.167 -2 15.5 -6s6.5 -9.33301 6.5 -16v-54c0 -6 -2.16699 -11 -6.5 -15s-9.83301 -6 -16.5 -6h-43c-6.66699 0 -12.167 2 -16.5 6s-6.5 9 -6.5 15v54zM-40 73c0 4 3.33301 7.16406 10 9.49707s14.667 3.5 24 3.5 h127v646c0 5.33301 1.66699 9.83301 5 13.5s7.66602 5.5 12.999 5.5h49c5.33301 0 9.83301 -1.83301 13.5 -5.5s5.5 -8.16699 5.5 -13.5v-330c17.333 12.667 36.5 22.834 57.5 30.501s41.833 13.5 62.5 17.5s39.834 6.66699 57.501 8s32.167 2 43.5 2 c42.667 0 80.667 -4.66699 114 -14s61.333 -24.333 84 -45s40 -47.167 52 -79.5s18 -71.833 18 -118.5v-16c0 -7.33301 -0.166992 -15.833 -0.5 -25.5s-0.833008 -19.167 -1.5 -28.5s-1.66699 -18.166 -3 -26.499s-3 -15.166 -5 -20.499h82v-86h-774 c-9.33301 0 -17.333 1.16699 -24 3.5s-10 5.83301 -10 10.5v59zM586 84.9971c9.33301 0 15.999 5.5 19.999 16.5s6 34.167 6 69.5v17c0 36.667 -4.16699 67.167 -12.5 91.5s-20.666 43.833 -36.999 58.5s-36.833 24.834 -61.5 30.501s-53.334 8.5 -86.001 8.5 c-11.333 0 -26 -0.666992 -44 -2s-36.667 -4 -56 -8s-38.666 -9.33301 -57.999 -16s-36 -15.334 -50 -26.001v-239c16.667 -0.666992 33.5 -1 50.5 -1h66.5h262z"/>
    <glyph glyph-name="AinSep" unicode="ع" horiz-adv-x="565" arabic-form="isolated" d="M333 -237c0 -12 -6.66797 -18.3359 -20.001 -19.0029c-5.33301 -0.666992 -10.833 -1 -16.5 -1h-10.5c-41.333 0 -76.5 4.83301 -105.5 14.5s-52.5 24.167 -70.5 43.5s-31.167 43 -39.5 71s-12.5 60.667 -12.5 98c0 12.667 0.5 28 1.5 46s2.16699 32.667 3.5 44 c2 14 9.33301 21 22 21c2.66699 0 7.83398 0.166992 15.501 0.5s16.334 0.5 26.001 0.5h28h22.5c-14 16 -25.333 37 -34 63s-13 57.333 -13 94v13c0 35.333 6.33301 66.166 19 92.499s29.834 48 51.501 65s47.167 29.667 76.5 38s60.666 12.5 93.999 12.5 c12 0 22 -0.166992 30 -0.5l23.5 -1c7.66699 -0.333008 15.334 -1 23.001 -2l27.5 -3.5c7.33301 -1.33301 13.166 -3.16602 17.499 -5.49902s6.5 -6.83301 6.5 -13.5v-40c0 -7.33301 -2.5 -12.166 -7.5 -14.499s-10.167 -3.16602 -15.5 -2.49902 c-20.667 1.33301 -39.167 2.33301 -55.5 3s-29.833 1 -40.5 1c-51.333 0 -91.833 -10.5 -121.5 -31.5s-44.5 -56.167 -44.5 -105.5v-13c0 -18 2 -35 6 -51s9.5 -30.333 16.5 -43s15 -23.5 24 -32.5s18.167 -15.167 27.5 -18.5h207c13.333 0 20 -6 20 -18v-50 c0 -5.33301 -1.83301 -9.66602 -5.5 -12.999s-8.5 -5 -14.5 -5h-272h-40.5c-16.333 0 -30.166 -0.333008 -41.499 -1c0 -4.66699 -0.166992 -11.167 -0.5 -19.5s-0.5 -14.166 -0.5 -17.499c0.666992 -24 3.66699 -44.833 9 -62.5s14.166 -32.334 26.499 -44.001 s28.666 -20.5 48.999 -26.5s45.833 -9 76.5 -9h11c14 0 21 -5.66699 21 -17v-40z"/>
    <glyph glyph-name="AinFin" unicode="ع" horiz-adv-x="619" arabic-form="final" d="M312 -180c14 0 20.9971 -5.66211 20.9971 -16.9951v-40c0 -12 -6.66699 -18.333 -20 -19c-6 -0.666992 -11.167 -1 -15.5 -1h-9.5c-83.333 0 -142.5 19.333 -177.5 58s-52.5 95 -52.5 169c0 6 0.166992 13.167 0.5 21.5l1 25.5c0.333008 8.66699 0.833008 17 1.5 25 s1.33398 15 2.00098 21c1.33301 6 3.5 11 6.5 15s8.16699 6 15.5 6c8 0.666992 19.5 1 34.5 1h44.5h30l-94 241c-1.33301 2 -2.16602 4.66699 -2.49902 8s-0.5 6.33301 -0.5 9l1 29c0.666992 5.33301 2.33398 9.66602 5.00098 12.999s6.66699 7.66602 12 12.999 c23.333 20 54.333 36.167 93 48.5s78 18.5 118 18.5c32.667 0 62.667 -3.66699 90 -11s51 -18.833 71 -34.5s35.5 -35.834 46.5 -60.501s16.5 -54 16.5 -88v-19c0 -17.333 -1.83301 -34.5 -5.5 -51.5s-8.5 -32.833 -14.5 -47.5s-13.167 -27.834 -21.5 -39.501 s-17.166 -20.834 -26.499 -27.501h137v-86h-396h-40.5c-16.333 0 -30.166 -0.333008 -41.499 -1c0 -4.66699 -0.166992 -11.167 -0.5 -19.5s-0.5 -14.166 -0.5 -17.499c0.666992 -24 3.66699 -44.833 9 -62.5s14.166 -32.334 26.499 -44.001s28.666 -20.5 48.999 -26.5 s45.833 -9 76.5 -9h11zM355.997 85.0049c36 8 63.501 27.499 82.501 58.499s28.5 66.833 28.5 107.5v10c0 44 -12.5 75.833 -37.5 95.5s-59.5 29.5 -103.5 29.5c-8.66699 0 -18.834 -0.333008 -30.501 -1s-24 -2.16699 -37 -4.5s-26.167 -6.16602 -39.5 -11.499 s-26.333 -12.333 -39 -21l102 -263h74z"/>
    <glyph glyph-name="AinIni" unicode="ع" horiz-adv-x="502" arabic-form="initial" d="M-40 73c0 4 3.33203 7.16699 9.99902 9.5s14.667 3.5 24 3.5h126c-13.333 14.667 -23.833 35 -31.5 61s-11.5 57 -11.5 93v11c0 35.333 5.83301 66.166 17.5 92.499s28 48.166 49 65.499s45.667 30.166 74 38.499s59.166 12.5 92.499 12.5 c13.333 0 27.833 -0.333008 43.5 -1s34.5 -2.66699 56.5 -6c7.33301 -1.33301 13 -3.16602 17 -5.49902s6 -6.83301 6 -13.5v-40c0 -7.33301 -2.33301 -12.166 -7 -14.499s-9.66699 -3.16602 -15 -2.49902c-16.667 1.33301 -31.667 2.33301 -45 3s-28.666 1 -45.999 1 c-49.333 0 -88.166 -10.833 -116.499 -32.5s-42.5 -57.167 -42.5 -106.5v-12c0 -35.333 6.83301 -66.333 20.5 -93s30.167 -43.667 49.5 -51h201c5.33301 0 10 -1.5 14 -4.5s6 -7.16699 6 -12.5v-53c0 -5.33301 -2 -9.33301 -6 -12s-8.66699 -4 -14 -4h-438 c-9.33301 0 -17.333 1.16699 -24 3.5s-10 5.83301 -10 10.5v59z"/>
    <glyph glyph-name="AinMed" unicode="ع" horiz-adv-x="569" arabic-form="medial" d="M-40 73c0 4 3.3291 7.16699 9.99609 9.5s14.667 3.5 24 3.5h161l-94 240c-1.33301 2 -2.16602 4.66699 -2.49902 8s-0.5 6.33301 -0.5 9l1 29c0.666992 8.66699 6.33398 17.334 17.001 26.001c11.333 10 24.833 19.167 40.5 27.5s32.834 15.333 51.501 21 s38 10.167 58 13.5s40 5 60 5c32.667 0 62.834 -3.66699 90.501 -11s51.5 -18.833 71.5 -34.5s35.5 -35.834 46.5 -60.501s16.5 -54 16.5 -88v-19c0 -16 -1.66699 -32.333 -5 -49s-8 -32.5 -14 -47.5s-13.167 -28.667 -21.5 -41s-17.5 -21.833 -27.5 -28.5h126v-86h-575 c-9.33301 0 -17.333 1.16699 -24 3.5s-10 5.83301 -10 10.5v59zM316.996 85c34.667 8 61.832 27.333 81.499 58s29.5 66.334 29.5 107.001v11c0 44 -12.667 75.833 -38 95.5s-60 29.5 -104 29.5c-17.333 0 -39.666 -2.33301 -66.999 -7s-53.333 -15.334 -78 -32.001 l102 -262h74z"/>
    <glyph glyph-name="GhainSep" unicode="غ" horiz-adv-x="565" arabic-form="isolated" d="M333 -237c0 -12 -6.66797 -18.3359 -20.001 -19.0029c-5.33301 -0.666992 -10.833 -1 -16.5 -1h-10.5c-41.333 0 -76.5 4.83301 -105.5 14.5s-52.5 24.167 -70.5 43.5s-31.167 43 -39.5 71s-12.5 60.667 -12.5 98c0 12.667 0.5 28 1.5 46s2.16699 32.667 3.5 44 c2 14 9.33301 21 22 21c2.66699 0 7.83398 0.166992 15.501 0.5s16.334 0.5 26.001 0.5h28h22.5c-14 16 -25.333 37 -34 63s-13 57.333 -13 94v13c0 35.333 6.33301 66.166 19 92.499s29.834 48 51.501 65s47.167 29.667 76.5 38s60.666 12.5 93.999 12.5 c12 0 22 -0.166992 30 -0.5l23.5 -1c7.66699 -0.333008 15.334 -1 23.001 -2l27.5 -3.5c7.33301 -1.33301 13.166 -3.16602 17.499 -5.49902s6.5 -6.83301 6.5 -13.5v-40c0 -7.33301 -2.5 -12.166 -7.5 -14.499s-10.167 -3.16602 -15.5 -2.49902 c-20.667 1.33301 -39.167 2.33301 -55.5 3s-29.833 1 -40.5 1c-51.333 0 -91.833 -10.5 -121.5 -31.5s-44.5 -56.167 -44.5 -105.5v-13c0 -18 2 -35 6 -51s9.5 -30.333 16.5 -43s15 -23.5 24 -32.5s18.167 -15.167 27.5 -18.5h207c13.333 0 20 -6 20 -18v-50 c0 -5.33301 -1.83301 -9.66602 -5.5 -12.999s-8.5 -5 -14.5 -5h-272h-40.5c-16.333 0 -30.166 -0.333008 -41.499 -1c0 -4.66699 -0.166992 -11.167 -0.5 -19.5s-0.5 -14.166 -0.5 -17.499c0.666992 -24 3.66699 -44.833 9 -62.5s14.166 -32.334 26.499 -44.001 s28.666 -20.5 48.999 -26.5s45.833 -9 76.5 -9h11c14 0 21 -5.66699 21 -17v-40zM296.999 649.997c0 6.66699 2.33301 12 7 16s10 6 16 6h44c6 0 11.167 -2 15.5 -6s6.5 -9.33301 6.5 -16v-54c0 -6 -2.16699 -11 -6.5 -15s-9.83301 -6 -16.5 -6h-43 c-6.66699 0 -12.167 2 -16.5 6s-6.5 9 -6.5 15v54z"/>
    <glyph glyph-name="GhainFin" unicode="غ" horiz-adv-x="619" arabic-form="final" d="M312 -180c14 0 20.9971 -5.66211 20.9971 -16.9951v-40c0 -12 -6.66699 -18.333 -20 -19c-6 -0.666992 -11.167 -1 -15.5 -1h-9.5c-83.333 0 -142.5 19.333 -177.5 58s-52.5 95 -52.5 169c0 6 0.166992 13.167 0.5 21.5l1 25.5c0.333008 8.66699 0.833008 17 1.5 25 s1.33398 15 2.00098 21c1.33301 6 3.5 11 6.5 15s8.16699 6 15.5 6c8 0.666992 19.5 1 34.5 1h44.5h30l-94 241c-1.33301 2 -2.16602 4.66699 -2.49902 8s-0.5 6.33301 -0.5 9l1 29c0.666992 5.33301 2.33398 9.66602 5.00098 12.999s6.66699 7.66602 12 12.999 c23.333 20 54.333 36.167 93 48.5s78 18.5 118 18.5c32.667 0 62.667 -3.66699 90 -11s51 -18.833 71 -34.5s35.5 -35.834 46.5 -60.501s16.5 -54 16.5 -88v-19c0 -17.333 -1.83301 -34.5 -5.5 -51.5s-8.5 -32.833 -14.5 -47.5s-13.167 -27.834 -21.5 -39.501 s-17.166 -20.834 -26.499 -27.501h137v-86h-396h-40.5c-16.333 0 -30.166 -0.333008 -41.499 -1c0 -4.66699 -0.166992 -11.167 -0.5 -19.5s-0.5 -14.166 -0.5 -17.499c0.666992 -24 3.66699 -44.833 9 -62.5s14.166 -32.334 26.499 -44.001s28.666 -20.5 48.999 -26.5 s45.833 -9 76.5 -9h11zM355.997 85.0049c36 8 63.501 27.499 82.501 58.499s28.5 66.833 28.5 107.5v10c0 44 -12.5 75.833 -37.5 95.5s-59.5 29.5 -103.5 29.5c-8.66699 0 -18.834 -0.333008 -30.501 -1s-24 -2.16699 -37 -4.5s-26.167 -6.16602 -39.5 -11.499 s-26.333 -12.333 -39 -21l102 -263h74zM279.998 650.004c0 6.66699 2.33301 12 7 16s10 6 16 6h44c6 0 11.167 -2 15.5 -6s6.5 -9.33301 6.5 -16v-54c0 -6 -2.16699 -11 -6.5 -15s-9.83301 -6 -16.5 -6h-43c-6.66699 0 -12.167 2 -16.5 6s-6.5 9 -6.5 15v54z"/>
    </font>
</defs>
</svg>
